<svg width="560" height="48" viewBox="0 0 560 48" fill="none" xmlns="http://www.w3.org/2000/svg">
<g style="mix-blend-mode:plus-lighter">
<g clip-path="url(#clip0_91_5150)">
<rect width="560" height="48" rx="8" fill="#1C1C23" fill-opacity="0.5"/>
<rect x="8" y="8" width="14" height="14" rx="3" fill="#2B2B36"/>
<path fill-rule="evenodd" clip-rule="evenodd" d="M10.8335 12.0833C10.8335 11.3929 11.3931 10.8333 12.0835 10.8333C12.6278 10.8333 13.0908 11.1811 13.2624 11.6666H14.1668V12.4999H13.2624C13.0908 12.9854 12.6278 13.3333 12.0835 13.3333C11.3931 13.3333 10.8335 12.7736 10.8335 12.0833ZM16.2502 12.4999H15.0002V11.6666H16.2502V12.4999ZM19.1668 11.6666C17.9873 11.6666 16.8667 12.182 16.0992 13.0775L13.2685 16.38C12.6592 17.0908 11.7697 17.4999 10.8335 17.4999V18.3333C12.013 18.3333 13.1336 17.8178 13.9012 16.9223L16.7319 13.6198C17.3412 12.909 18.2306 12.4999 19.1668 12.4999V11.6666Z" fill="white"/>
<rect x="26" y="8" width="14" height="14" rx="3" fill="#2B2B36"/>
<g clip-path="url(#clip1_91_5150)">
<path fill-rule="evenodd" clip-rule="evenodd" d="M30.5002 11.25C30.7754 11.2499 31.0464 11.3179 31.289 11.4481C31.5315 11.5783 31.7381 11.7665 31.8901 11.9959C32.0422 12.2254 32.1351 12.4889 32.1605 12.763C32.1858 13.0371 32.1429 13.3132 32.0356 13.5667L33.3564 14.4917L36.0589 12.5992C36.1485 12.5363 36.2497 12.4918 36.3565 12.468C36.4633 12.4443 36.5738 12.4418 36.6816 12.4608C36.7894 12.4798 36.8924 12.5198 36.9848 12.5785C37.0771 12.6373 37.1569 12.7137 37.2197 12.8033L34.0831 15L37.2197 17.1962C37.157 17.2859 37.0771 17.3623 36.9848 17.4212C36.8925 17.48 36.7895 17.52 36.6817 17.539C36.5739 17.558 36.4634 17.5556 36.3566 17.5319C36.2497 17.5082 36.1486 17.4636 36.0589 17.4008L33.3564 15.5088L32.0356 16.4337C32.1936 16.8073 32.2101 17.2257 32.0818 17.6105C31.9535 17.9952 31.6893 18.32 31.3386 18.524C30.988 18.7279 30.5751 18.797 30.1772 18.7182C29.7793 18.6395 29.4237 18.4184 29.1772 18.0963C28.9307 17.7742 28.8101 17.3732 28.838 16.9686C28.8659 16.5639 29.0404 16.1833 29.3288 15.8981C29.6172 15.613 29.9998 15.4427 30.4047 15.4194C30.8096 15.396 31.2092 15.5211 31.5285 15.7713L32.6302 15L31.5285 14.2283C31.3195 14.3922 31.0743 14.5037 30.8135 14.5536C30.5526 14.6035 30.2836 14.5904 30.0289 14.5153C29.7741 14.4402 29.541 14.3053 29.349 14.1218C29.1569 13.9384 29.0115 13.7117 28.9248 13.4606C28.8382 13.2096 28.8127 12.9414 28.8507 12.6786C28.8886 12.4157 28.9888 12.1657 29.143 11.9494C29.2971 11.7331 29.5007 11.5568 29.7368 11.4352C29.9728 11.3135 30.2346 11.25 30.5002 11.25ZM30.5002 16.25C30.2791 16.25 30.0672 16.3378 29.9109 16.4941C29.7546 16.6504 29.6668 16.8623 29.6668 17.0833C29.6668 17.3043 29.7546 17.5163 29.9109 17.6726C30.0672 17.8289 30.2791 17.9167 30.5002 17.9167C30.7212 17.9167 30.9331 17.8289 31.0894 17.6726C31.2457 17.5163 31.3335 17.3043 31.3335 17.0833C31.3335 16.8623 31.2457 16.6504 31.0894 16.4941C30.9331 16.3378 30.7212 16.25 30.5002 16.25ZM29.2502 14.5833C29.3607 14.5833 29.4667 14.6272 29.5448 14.7054C29.6229 14.7835 29.6668 14.8895 29.6668 15C29.6668 15.1105 29.6229 15.2165 29.5448 15.2946C29.4667 15.3728 29.3607 15.4167 29.2502 15.4167C29.1397 15.4167 29.0337 15.3728 28.9555 15.2946C28.8774 15.2165 28.8335 15.1105 28.8335 15C28.8335 14.8895 28.8774 14.7835 28.9555 14.7054C29.0337 14.6272 29.1397 14.5833 29.2502 14.5833ZM30.9168 14.5833C31.0273 14.5833 31.1333 14.6272 31.2115 14.7054C31.2896 14.7835 31.3335 14.8895 31.3335 15C31.3335 15.1105 31.2896 15.2165 31.2115 15.2946C31.1333 15.3728 31.0273 15.4167 30.9168 15.4167C30.8063 15.4167 30.7003 15.3728 30.6222 15.2946C30.5441 15.2165 30.5002 15.1105 30.5002 15C30.5002 14.8895 30.5441 14.7835 30.6222 14.7054C30.7003 14.6272 30.8063 14.5833 30.9168 14.5833ZM35.0835 14.5833C35.194 14.5833 35.3 14.6272 35.3781 14.7054C35.4563 14.7835 35.5002 14.8895 35.5002 15C35.5002 15.1105 35.4563 15.2165 35.3781 15.2946C35.3 15.3728 35.194 15.4167 35.0835 15.4167C34.973 15.4167 34.867 15.3728 34.7889 15.2946C34.7107 15.2165 34.6668 15.1105 34.6668 15C34.6668 14.8895 34.7107 14.7835 34.7889 14.7054C34.867 14.6272 34.973 14.5833 35.0835 14.5833ZM36.7502 14.5833C36.8607 14.5833 36.9667 14.6272 37.0448 14.7054C37.1229 14.7835 37.1668 14.8895 37.1668 15C37.1668 15.1105 37.1229 15.2165 37.0448 15.2946C36.9667 15.3728 36.8607 15.4167 36.7502 15.4167C36.6397 15.4167 36.5337 15.3728 36.4555 15.2946C36.3774 15.2165 36.3335 15.1105 36.3335 15C36.3335 14.8895 36.3774 14.7835 36.4555 14.7054C36.5337 14.6272 36.6397 14.5833 36.7502 14.5833ZM30.5002 12.0833C30.3907 12.0833 30.2824 12.1049 30.1813 12.1468C30.0802 12.1886 29.9883 12.25 29.9109 12.3274C29.8335 12.4048 29.7721 12.4967 29.7303 12.5978C29.6884 12.6989 29.6668 12.8072 29.6668 12.9167C29.6668 13.0261 29.6884 13.1345 29.7303 13.2356C29.7721 13.3367 29.8335 13.4285 29.9109 13.5059C29.9883 13.5833 30.0802 13.6447 30.1813 13.6866C30.2824 13.7284 30.3907 13.75 30.5002 13.75C30.7212 13.75 30.9331 13.6622 31.0894 13.5059C31.2457 13.3496 31.3335 13.1377 31.3335 12.9167C31.3335 12.6957 31.2457 12.4837 31.0894 12.3274C30.9331 12.1711 30.7212 12.0833 30.5002 12.0833Z" fill="white"/>
</g>
<rect x="44" y="8" width="14" height="14" rx="3" fill="#2B2B36"/>
<path fill-rule="evenodd" clip-rule="evenodd" d="M53.0833 10.625C53.0833 11.4304 52.4304 12.0833 51.625 12.0833V12.9166C52.4304 12.9166 53.0833 13.5696 53.0833 14.375L53.5 14.375H53.9167C53.9167 13.5696 54.5696 12.9166 55.375 12.9166L55.375 12.0833C54.5697 12.0833 53.9167 11.4304 53.9167 10.625H53.0833ZM48.9167 12.5V17.5H49.75V12.5H48.9167ZM50.5833 13.75V19.1667H51.4167V13.75H50.5833ZM47.25 14.1667V15.8333H48.0833V14.1667H47.25ZM52.25 15.2083V17.5H53.0833V15.2083H52.25ZM53.9167 15.2083V15.8333H54.75V15.2083H53.9167Z" fill="white"/>
<path d="M203.449 18.144C202.921 18.144 202.462 18.009 202.072 17.739C201.682 17.469 201.382 17.085 201.172 16.587C200.962 16.089 200.857 15.498 200.857 14.814C200.857 14.13 200.962 13.539 201.172 13.041C201.388 12.537 201.688 12.15 202.072 11.88C202.462 11.604 202.921 11.466 203.449 11.466C203.983 11.466 204.442 11.604 204.826 11.88C205.216 12.15 205.516 12.534 205.726 13.032C205.942 13.53 206.05 14.124 206.05 14.814C206.05 15.498 205.945 16.089 205.735 16.587C205.525 17.085 205.225 17.469 204.835 17.739C204.445 18.009 203.983 18.144 203.449 18.144ZM203.449 17.253C203.959 17.253 204.352 17.043 204.628 16.623C204.904 16.203 205.042 15.6 205.042 14.814C205.042 14.286 204.979 13.839 204.853 13.473C204.733 13.107 204.553 12.831 204.313 12.645C204.079 12.453 203.791 12.357 203.449 12.357C203.113 12.357 202.825 12.453 202.585 12.645C202.351 12.831 202.171 13.107 202.045 13.473C201.925 13.839 201.865 14.286 201.865 14.814C201.865 15.6 202.003 16.203 202.279 16.623C202.555 17.043 202.945 17.253 203.449 17.253ZM209.342 18.144C208.814 18.144 208.355 18.009 207.965 17.739C207.575 17.469 207.275 17.085 207.065 16.587C206.855 16.089 206.75 15.498 206.75 14.814C206.75 14.13 206.855 13.539 207.065 13.041C207.281 12.537 207.581 12.15 207.965 11.88C208.355 11.604 208.814 11.466 209.342 11.466C209.876 11.466 210.335 11.604 210.719 11.88C211.109 12.15 211.409 12.534 211.619 13.032C211.835 13.53 211.943 14.124 211.943 14.814C211.943 15.498 211.838 16.089 211.628 16.587C211.418 17.085 211.118 17.469 210.728 17.739C210.338 18.009 209.876 18.144 209.342 18.144ZM209.342 17.253C209.852 17.253 210.245 17.043 210.521 16.623C210.797 16.203 210.935 15.6 210.935 14.814C210.935 14.286 210.872 13.839 210.746 13.473C210.626 13.107 210.446 12.831 210.206 12.645C209.972 12.453 209.684 12.357 209.342 12.357C209.006 12.357 208.718 12.453 208.478 12.645C208.244 12.831 208.064 13.107 207.938 13.473C207.818 13.839 207.758 14.286 207.758 14.814C207.758 15.6 207.896 16.203 208.172 16.623C208.448 17.043 208.838 17.253 209.342 17.253ZM212.889 18V16.866H214.05V18H212.889ZM212.889 14.571V13.437H214.05V14.571H212.889Z" fill="white" fill-opacity="0.4"/>
<path d="M217.596 18.144C217.068 18.144 216.609 18.009 216.219 17.739C215.829 17.469 215.529 17.085 215.319 16.587C215.109 16.089 215.004 15.498 215.004 14.814C215.004 14.13 215.109 13.539 215.319 13.041C215.535 12.537 215.835 12.15 216.219 11.88C216.609 11.604 217.068 11.466 217.596 11.466C218.13 11.466 218.589 11.604 218.973 11.88C219.363 12.15 219.663 12.534 219.873 13.032C220.089 13.53 220.197 14.124 220.197 14.814C220.197 15.498 220.092 16.089 219.882 16.587C219.672 17.085 219.372 17.469 218.982 17.739C218.592 18.009 218.13 18.144 217.596 18.144ZM217.596 17.253C218.106 17.253 218.499 17.043 218.775 16.623C219.051 16.203 219.189 15.6 219.189 14.814C219.189 14.286 219.126 13.839 219 13.473C218.88 13.107 218.7 12.831 218.46 12.645C218.226 12.453 217.938 12.357 217.596 12.357C217.26 12.357 216.972 12.453 216.732 12.645C216.498 12.831 216.318 13.107 216.192 13.473C216.072 13.839 216.012 14.286 216.012 14.814C216.012 15.6 216.15 16.203 216.426 16.623C216.702 17.043 217.092 17.253 217.596 17.253ZM223.327 18.144C222.853 18.144 222.448 18.069 222.112 17.919C221.776 17.763 221.512 17.547 221.32 17.271C221.128 16.995 221.017 16.677 220.987 16.317L221.986 16.254C222.034 16.59 222.175 16.842 222.409 17.01C222.649 17.172 222.955 17.253 223.327 17.253C223.747 17.253 224.077 17.136 224.317 16.902C224.563 16.668 224.686 16.341 224.686 15.921C224.686 15.645 224.629 15.408 224.515 15.21C224.407 15.006 224.251 14.85 224.047 14.742C223.843 14.628 223.6 14.571 223.318 14.571C223.036 14.571 222.784 14.631 222.562 14.751C222.34 14.871 222.181 15.036 222.085 15.246H221.077L221.509 11.61H225.253V12.501H222.373L222.103 14.688L221.95 14.553C222.052 14.373 222.181 14.226 222.337 14.112C222.493 13.992 222.673 13.902 222.877 13.842C223.087 13.776 223.309 13.743 223.543 13.743C223.975 13.743 224.35 13.836 224.668 14.022C224.992 14.208 225.244 14.466 225.424 14.796C225.604 15.126 225.694 15.501 225.694 15.921C225.694 16.359 225.595 16.746 225.397 17.082C225.199 17.418 224.923 17.679 224.569 17.865C224.215 18.051 223.801 18.144 223.327 18.144ZM226.816 18V16.866H227.977V18H226.816ZM226.816 14.571V13.437H227.977V14.571H226.816ZM231.448 18.144C230.974 18.144 230.569 18.069 230.233 17.919C229.897 17.763 229.633 17.547 229.441 17.271C229.249 16.995 229.138 16.677 229.108 16.317L230.107 16.254C230.155 16.59 230.296 16.842 230.53 17.01C230.77 17.172 231.076 17.253 231.448 17.253C231.868 17.253 232.198 17.136 232.438 16.902C232.684 16.668 232.807 16.341 232.807 15.921C232.807 15.645 232.75 15.408 232.636 15.21C232.528 15.006 232.372 14.85 232.168 14.742C231.964 14.628 231.721 14.571 231.439 14.571C231.157 14.571 230.905 14.631 230.683 14.751C230.461 14.871 230.302 15.036 230.206 15.246H229.198L229.63 11.61H233.374V12.501H230.494L230.224 14.688L230.071 14.553C230.173 14.373 230.302 14.226 230.458 14.112C230.614 13.992 230.794 13.902 230.998 13.842C231.208 13.776 231.43 13.743 231.664 13.743C232.096 13.743 232.471 13.836 232.789 14.022C233.113 14.208 233.365 14.466 233.545 14.796C233.725 15.126 233.815 15.501 233.815 15.921C233.815 16.359 233.716 16.746 233.518 17.082C233.32 17.418 233.044 17.679 232.69 17.865C232.336 18.051 231.922 18.144 231.448 18.144ZM235.36 18C235.36 17.34 235.447 16.689 235.621 16.047C235.801 15.399 236.053 14.778 236.377 14.184C236.707 13.584 237.1 13.023 237.556 12.501H233.983V11.61H238.582V12.438C238.078 13.014 237.658 13.59 237.322 14.166C236.992 14.736 236.746 15.336 236.584 15.966C236.428 16.59 236.35 17.268 236.35 18H235.36Z" fill="white"/>
<g opacity="0.5">
<path d="M253.833 11.6665C253.603 11.6665 253.417 11.8531 253.417 12.0832V17.9165C253.417 18.1466 253.603 18.3332 253.833 18.3332C254.063 18.3332 254.25 18.1466 254.25 17.9165V15.5553L258.093 18.1172C258.127 18.14 258.167 18.1522 258.208 18.1522C258.323 18.1522 258.417 18.0589 258.417 17.9438V15.5553L262.259 18.1172C262.294 18.14 262.334 18.1522 262.375 18.1522C262.49 18.1522 262.583 18.0589 262.583 17.9438V12.0557C262.583 12.0146 262.571 11.9744 262.548 11.9402C262.484 11.8444 262.355 11.8186 262.259 11.8824L258.417 14.4442V12.0557C258.417 12.0146 258.404 11.9744 258.382 11.9402C258.318 11.8444 258.188 11.8186 258.093 11.8824L254.25 14.4443V12.0832C254.25 11.8531 254.063 11.6665 253.833 11.6665ZM257.583 13.2235V16.776L254.919 14.9998L257.583 13.2235ZM261.75 13.2235V16.776L259.086 14.9998L261.75 13.2235Z" fill="white"/>
</g>
<g clip-path="url(#clip2_91_5150)">
<path d="M277.379 18.9201C277.248 18.9198 277.12 18.8856 277.006 18.8206C276.751 18.6757 276.592 18.3945 276.592 18.0892V11.911C276.592 11.6048 276.751 11.3245 277.006 11.1796C277.123 11.1128 277.255 11.0784 277.389 11.0801C277.523 11.0818 277.654 11.1195 277.768 11.1892L283.049 14.3499C283.159 14.4189 283.249 14.5147 283.312 14.6284C283.375 14.742 283.408 14.8698 283.408 14.9997C283.408 15.1296 283.375 15.2573 283.312 15.371C283.249 15.4846 283.159 15.5805 283.049 15.6494L277.768 18.811C277.65 18.8819 277.516 18.9196 277.379 18.9201Z" fill="white"/>
</g>
<g opacity="0.5">
<path d="M301.354 18.6875C300.583 18.5417 299.943 18.1632 299.432 17.5521C298.922 16.941 298.667 16.2326 298.667 15.4271C298.667 14.934 298.771 14.4687 298.979 14.0312C299.187 13.5937 299.482 13.2222 299.864 12.9167C299.92 12.875 299.986 12.8559 300.062 12.8594C300.139 12.8628 300.205 12.8924 300.26 12.9479C300.33 13.0174 300.361 13.0972 300.354 13.1875C300.347 13.2778 300.302 13.3576 300.219 13.4271C299.927 13.6701 299.699 13.967 299.536 14.3177C299.373 14.6684 299.292 15.0382 299.292 15.4271C299.292 16.0799 299.493 16.6476 299.896 17.1302C300.298 17.6128 300.809 17.9236 301.427 18.0625C301.503 18.0764 301.568 18.1146 301.62 18.1771C301.672 18.2396 301.698 18.309 301.698 18.3854C301.698 18.4826 301.663 18.5608 301.594 18.6198C301.524 18.6788 301.444 18.7014 301.354 18.6875ZM302.667 18.6875C302.576 18.7014 302.496 18.6788 302.427 18.6198C302.357 18.5608 302.323 18.4826 302.323 18.3854C302.323 18.309 302.349 18.2396 302.401 18.1771C302.453 18.1146 302.517 18.0764 302.594 18.0625C303.219 17.9236 303.729 17.6128 304.125 17.1302C304.521 16.6476 304.719 16.0799 304.719 15.4271C304.719 14.6701 304.456 14.0295 303.932 13.5052C303.408 12.9809 302.767 12.7187 302.01 12.7187H301.802L302.208 13.125C302.264 13.1806 302.292 13.2535 302.292 13.3437C302.292 13.434 302.264 13.5069 302.208 13.5625C302.146 13.625 302.069 13.6562 301.979 13.6562C301.889 13.6562 301.816 13.625 301.76 13.5625L300.812 12.625C300.778 12.5903 300.753 12.5556 300.739 12.5208C300.726 12.4861 300.719 12.4479 300.719 12.4062C300.719 12.3646 300.726 12.3264 300.739 12.2917C300.753 12.2569 300.778 12.2222 300.812 12.1875L301.76 11.2396C301.816 11.184 301.889 11.1562 301.979 11.1562C302.069 11.1562 302.146 11.184 302.208 11.2396C302.264 11.3021 302.292 11.3785 302.292 11.4688C302.292 11.559 302.264 11.6319 302.208 11.6875L301.802 12.0937H302.01C302.941 12.0937 303.729 12.4184 304.375 13.0677C305.021 13.717 305.344 14.5035 305.344 15.4271C305.344 16.2326 305.09 16.941 304.583 17.5521C304.076 18.1632 303.437 18.5417 302.667 18.6875Z" fill="white"/>
</g>
<line x1="444" y1="15" x2="516" y2="15" stroke="white" stroke-opacity="0.1"/>
<circle cx="501.512" cy="15" r="3.25" fill="white" stroke="#1C1C23" stroke-width="1.5"/>
<rect x="520" y="8" width="14" height="14" rx="3" fill="#2B2B36"/>
<g clip-path="url(#clip3_91_5150)">
<path fill-rule="evenodd" clip-rule="evenodd" d="M525.78 14.3688L523.666 12.2548V13.7722L522.833 13.7795V10.8333H525.78L525.772 11.6656H524.255L526.369 13.7795L525.78 14.3688ZM528.221 14.3688L530.334 12.2548V13.7722L531.167 13.7795V10.8333H528.221L528.228 11.6656H529.745L527.631 13.7795L528.221 14.3688ZM530.334 17.745L528.221 15.631L527.631 16.2203L529.745 18.3343H528.228L528.221 19.1666H531.167V16.2203L530.334 16.2277V17.745ZM525.78 15.631L523.666 17.745V16.2277L522.833 16.2203V19.1666H525.78L525.772 18.3343H524.255L526.369 16.2203L525.78 15.631Z" fill="white"/>
</g>
<rect x="538" y="8" width="14" height="14" rx="3" fill="#2B2B36"/>
<g clip-path="url(#clip4_91_5150)">
<path d="M544.302 11.7988C544.48 11.0671 545.52 11.0671 545.698 11.7988C545.725 11.9087 545.777 12.0107 545.85 12.0967C545.924 12.1826 546.017 12.2499 546.121 12.2932C546.226 12.3365 546.339 12.3545 546.452 12.3458C546.564 12.337 546.673 12.3018 546.77 12.2429C547.413 11.8512 548.149 12.5871 547.757 13.2304C547.699 13.3269 547.664 13.436 547.655 13.5487C547.646 13.6613 547.664 13.7745 547.707 13.8789C547.751 13.9833 547.818 14.0761 547.904 14.1496C547.989 14.2231 548.091 14.2754 548.201 14.3021C548.933 14.4796 548.933 15.5204 548.201 15.6979C548.091 15.7245 547.989 15.7768 547.903 15.8503C547.817 15.9238 547.75 16.0166 547.707 16.1211C547.663 16.2256 547.645 16.3388 547.654 16.4516C547.663 16.5643 547.698 16.6734 547.757 16.77C548.149 17.4129 547.413 18.1492 546.77 17.7575C546.673 17.6987 546.564 17.6635 546.451 17.6548C546.339 17.6461 546.226 17.6641 546.121 17.7073C546.017 17.7505 545.924 17.8178 545.85 17.9036C545.777 17.9895 545.725 18.0914 545.698 18.2013C545.52 18.9329 544.48 18.9329 544.302 18.2013C544.275 18.0913 544.223 17.9893 544.15 17.9033C544.076 17.8174 543.983 17.7501 543.879 17.7068C543.774 17.6635 543.661 17.6455 543.548 17.6542C543.436 17.663 543.327 17.6982 543.23 17.7571C542.587 18.1488 541.851 17.4129 542.242 16.7696C542.301 16.6731 542.336 16.564 542.345 16.4513C542.354 16.3387 542.336 16.2255 542.293 16.1211C542.249 16.0167 542.182 15.9239 542.096 15.8504C542.011 15.7769 541.909 15.7246 541.799 15.6979C541.067 15.5204 541.067 14.4796 541.799 14.3021C541.909 14.2755 542.011 14.2232 542.097 14.1497C542.183 14.0762 542.25 13.9834 542.293 13.8789C542.337 13.7744 542.355 13.6612 542.346 13.5484C542.337 13.4357 542.302 13.3266 542.243 13.23C541.851 12.5871 542.587 11.8508 543.23 12.2425C543.647 12.4958 544.187 12.2717 544.302 11.7988Z" stroke="white" stroke-width="0.833333" stroke-linecap="round" stroke-linejoin="round"/>
<path d="M543.75 15C543.75 15.3315 543.882 15.6495 544.116 15.8839C544.351 16.1183 544.668 16.25 545 16.25C545.332 16.25 545.649 16.1183 545.884 15.8839C546.118 15.6495 546.25 15.3315 546.25 15C546.25 14.6685 546.118 14.3505 545.884 14.1161C545.649 13.8817 545.332 13.75 545 13.75C544.668 13.75 544.351 13.8817 544.116 14.1161C543.882 14.3505 543.75 14.6685 543.75 15Z" stroke="white" stroke-width="0.833333" stroke-linecap="round" stroke-linejoin="round"/>
</g>
<mask id="path-23-inside-1_91_5150" fill="white">
<path d="M0 30H560V48H0V30Z"/>
</mask>
<path d="M0 30H560V48H0V30Z" fill="#272730" fill-opacity="0.3"/>
<path d="M0 30V31H560V30V29H0V30Z" fill="#2D2D38" fill-opacity="0.5" mask="url(#path-23-inside-1_91_5150)"/>
<path d="M9.99759 41.096C9.64559 41.096 9.33959 41.006 9.07959 40.826C8.81959 40.646 8.61959 40.39 8.47959 40.058C8.33959 39.726 8.26959 39.332 8.26959 38.876C8.26959 38.42 8.33959 38.026 8.47959 37.694C8.62359 37.358 8.82359 37.1 9.07959 36.92C9.33959 36.736 9.64559 36.644 9.99759 36.644C10.3536 36.644 10.6596 36.736 10.9156 36.92C11.1756 37.1 11.3756 37.356 11.5156 37.688C11.6596 38.02 11.7316 38.416 11.7316 38.876C11.7316 39.332 11.6616 39.726 11.5216 40.058C11.3816 40.39 11.1816 40.646 10.9216 40.826C10.6616 41.006 10.3536 41.096 9.99759 41.096ZM9.99759 40.502C10.3376 40.502 10.5996 40.362 10.7836 40.082C10.9676 39.802 11.0596 39.4 11.0596 38.876C11.0596 38.524 11.0176 38.226 10.9336 37.982C10.8536 37.738 10.7336 37.554 10.5736 37.43C10.4176 37.302 10.2256 37.238 9.99759 37.238C9.77359 37.238 9.58159 37.302 9.42159 37.43C9.26559 37.554 9.14559 37.738 9.06159 37.982C8.98159 38.226 8.94159 38.524 8.94159 38.876C8.94159 39.4 9.03359 39.802 9.21759 40.082C9.40159 40.362 9.66159 40.502 9.99759 40.502Z" fill="white" fill-opacity="0.6"/>
<rect x="19" y="38" width="1" height="2" rx="0.5" fill="white" fill-opacity="0.3"/>
<rect x="24" y="38" width="1" height="2" rx="0.5" fill="white" fill-opacity="0.3"/>
<rect x="29" y="37" width="1" height="4" rx="0.5" fill="white" fill-opacity="0.6"/>
<rect x="34" y="38" width="1" height="2" rx="0.5" fill="white" fill-opacity="0.3"/>
<rect x="39" y="38" width="1" height="2" rx="0.5" fill="white" fill-opacity="0.3"/>
<path d="M47.432 41.096C47.116 41.096 46.846 41.046 46.622 40.946C46.398 40.842 46.222 40.698 46.094 40.514C45.966 40.33 45.892 40.118 45.872 39.878L46.538 39.836C46.57 40.06 46.664 40.228 46.82 40.34C46.98 40.448 47.184 40.502 47.432 40.502C47.712 40.502 47.932 40.424 48.092 40.268C48.256 40.112 48.338 39.894 48.338 39.614C48.338 39.43 48.3 39.272 48.224 39.14C48.152 39.004 48.048 38.9 47.912 38.828C47.776 38.752 47.614 38.714 47.426 38.714C47.238 38.714 47.07 38.754 46.922 38.834C46.774 38.914 46.668 39.024 46.604 39.164H45.932L46.22 36.74H48.716V37.334H46.796L46.616 38.792L46.514 38.702C46.582 38.582 46.668 38.484 46.772 38.408C46.876 38.328 46.996 38.268 47.132 38.228C47.272 38.184 47.42 38.162 47.576 38.162C47.864 38.162 48.114 38.224 48.326 38.348C48.542 38.472 48.71 38.644 48.83 38.864C48.95 39.084 49.01 39.334 49.01 39.614C49.01 39.906 48.944 40.164 48.812 40.388C48.68 40.612 48.496 40.786 48.26 40.91C48.024 41.034 47.748 41.096 47.432 41.096ZM50.9218 41.072C50.6218 41.072 50.3678 41.026 50.1598 40.934C49.9558 40.842 49.7978 40.716 49.6858 40.556C49.5738 40.392 49.5098 40.204 49.4938 39.992L50.1478 39.962C50.1798 40.138 50.2558 40.278 50.3758 40.382C50.4958 40.486 50.6778 40.538 50.9218 40.538C51.1218 40.538 51.2798 40.506 51.3958 40.442C51.5118 40.378 51.5698 40.276 51.5698 40.136C51.5698 40.06 51.5498 39.996 51.5098 39.944C51.4738 39.888 51.4018 39.842 51.2938 39.806C51.1858 39.766 51.0258 39.728 50.8138 39.692C50.4978 39.632 50.2498 39.562 50.0698 39.482C49.8898 39.402 49.7618 39.3 49.6858 39.176C49.6098 39.052 49.5718 38.902 49.5718 38.726C49.5718 38.434 49.6798 38.196 49.8958 38.012C50.1158 37.828 50.4318 37.736 50.8438 37.736C51.1198 37.736 51.3518 37.784 51.5398 37.88C51.7278 37.972 51.8738 38.098 51.9778 38.258C52.0858 38.414 52.1538 38.59 52.1818 38.786L51.5278 38.822C51.5078 38.71 51.4678 38.614 51.4078 38.534C51.3518 38.45 51.2758 38.386 51.1798 38.342C51.0838 38.294 50.9698 38.27 50.8378 38.27C50.6338 38.27 50.4818 38.31 50.3818 38.39C50.2818 38.47 50.2318 38.574 50.2318 38.702C50.2318 38.798 50.2538 38.876 50.2978 38.936C50.3458 38.996 50.4218 39.046 50.5258 39.086C50.6298 39.122 50.7678 39.154 50.9398 39.182C51.2718 39.238 51.5318 39.308 51.7198 39.392C51.9078 39.472 52.0398 39.572 52.1158 39.692C52.1918 39.812 52.2298 39.958 52.2298 40.13C52.2298 40.33 52.1738 40.5 52.0618 40.64C51.9498 40.78 51.7958 40.888 51.5998 40.964C51.4038 41.036 51.1778 41.072 50.9218 41.072Z" fill="white" fill-opacity="0.6"/>
<rect x="58" y="38" width="1" height="2" rx="0.5" fill="white" fill-opacity="0.3"/>
<rect x="63" y="38" width="1" height="2" rx="0.5" fill="white" fill-opacity="0.3"/>
<rect x="68" y="37" width="1" height="4" rx="0.5" fill="white" fill-opacity="0.6"/>
<rect x="73" y="38" width="1" height="2" rx="0.5" fill="white" fill-opacity="0.3"/>
<rect x="78" y="38" width="1" height="2" rx="0.5" fill="white" fill-opacity="0.3"/>
<path d="M84.3907 41V37.964H83.4907V37.442H83.8567C84.0167 37.442 84.1467 37.422 84.2467 37.382C84.3467 37.338 84.4187 37.266 84.4627 37.166C84.5067 37.062 84.5287 36.92 84.5287 36.74H85.0387V41H84.3907ZM87.5259 41.096C87.1739 41.096 86.8679 41.006 86.6079 40.826C86.3479 40.646 86.1479 40.39 86.0079 40.058C85.8679 39.726 85.7979 39.332 85.7979 38.876C85.7979 38.42 85.8679 38.026 86.0079 37.694C86.1519 37.358 86.3519 37.1 86.6079 36.92C86.8679 36.736 87.1739 36.644 87.5259 36.644C87.8819 36.644 88.1879 36.736 88.4439 36.92C88.7039 37.1 88.9039 37.356 89.0439 37.688C89.1879 38.02 89.2599 38.416 89.2599 38.876C89.2599 39.332 89.1899 39.726 89.0499 40.058C88.9099 40.39 88.7099 40.646 88.4499 40.826C88.1899 41.006 87.8819 41.096 87.5259 41.096ZM87.5259 40.502C87.8659 40.502 88.1279 40.362 88.3119 40.082C88.4959 39.802 88.5879 39.4 88.5879 38.876C88.5879 38.524 88.5459 38.226 88.4619 37.982C88.3819 37.738 88.2619 37.554 88.1019 37.43C87.9459 37.302 87.7539 37.238 87.5259 37.238C87.3019 37.238 87.1099 37.302 86.9499 37.43C86.7939 37.554 86.6739 37.738 86.5899 37.982C86.5099 38.226 86.4699 38.524 86.4699 38.876C86.4699 39.4 86.5619 39.802 86.7459 40.082C86.9299 40.362 87.1899 40.502 87.5259 40.502ZM91.183 41.072C90.883 41.072 90.629 41.026 90.421 40.934C90.217 40.842 90.059 40.716 89.947 40.556C89.835 40.392 89.771 40.204 89.755 39.992L90.409 39.962C90.441 40.138 90.517 40.278 90.637 40.382C90.757 40.486 90.939 40.538 91.183 40.538C91.383 40.538 91.541 40.506 91.657 40.442C91.773 40.378 91.831 40.276 91.831 40.136C91.831 40.06 91.811 39.996 91.771 39.944C91.735 39.888 91.663 39.842 91.555 39.806C91.447 39.766 91.287 39.728 91.075 39.692C90.759 39.632 90.511 39.562 90.331 39.482C90.151 39.402 90.023 39.3 89.947 39.176C89.871 39.052 89.833 38.902 89.833 38.726C89.833 38.434 89.941 38.196 90.157 38.012C90.377 37.828 90.693 37.736 91.105 37.736C91.381 37.736 91.613 37.784 91.801 37.88C91.989 37.972 92.135 38.098 92.239 38.258C92.347 38.414 92.415 38.59 92.443 38.786L91.789 38.822C91.769 38.71 91.729 38.614 91.669 38.534C91.613 38.45 91.537 38.386 91.441 38.342C91.345 38.294 91.231 38.27 91.099 38.27C90.895 38.27 90.743 38.31 90.643 38.39C90.543 38.47 90.493 38.574 90.493 38.702C90.493 38.798 90.515 38.876 90.559 38.936C90.607 38.996 90.683 39.046 90.787 39.086C90.891 39.122 91.029 39.154 91.201 39.182C91.533 39.238 91.793 39.308 91.981 39.392C92.169 39.472 92.301 39.572 92.377 39.692C92.453 39.812 92.491 39.958 92.491 40.13C92.491 40.33 92.435 40.5 92.323 40.64C92.211 40.78 92.057 40.888 91.861 40.964C91.665 41.036 91.439 41.072 91.183 41.072Z" fill="white" fill-opacity="0.6"/>
<rect x="97" y="38" width="1" height="2" rx="0.5" fill="white" fill-opacity="0.3"/>
<rect x="102" y="38" width="1" height="2" rx="0.5" fill="white" fill-opacity="0.3"/>
<rect x="107" y="37" width="1" height="4" rx="0.5" fill="white" fill-opacity="0.6"/>
<rect x="112" y="38" width="1" height="2" rx="0.5" fill="white" fill-opacity="0.3"/>
<rect x="117" y="38" width="1" height="2" rx="0.5" fill="white" fill-opacity="0.3"/>
<path d="M123.493 41V37.964H122.593V37.442H122.959C123.119 37.442 123.249 37.422 123.349 37.382C123.449 37.338 123.521 37.266 123.565 37.166C123.609 37.062 123.631 36.92 123.631 36.74H124.141V41H123.493ZM126.591 41.096C126.275 41.096 126.005 41.046 125.781 40.946C125.557 40.842 125.381 40.698 125.253 40.514C125.125 40.33 125.051 40.118 125.031 39.878L125.697 39.836C125.729 40.06 125.823 40.228 125.979 40.34C126.139 40.448 126.343 40.502 126.591 40.502C126.871 40.502 127.091 40.424 127.251 40.268C127.415 40.112 127.497 39.894 127.497 39.614C127.497 39.43 127.459 39.272 127.383 39.14C127.311 39.004 127.207 38.9 127.071 38.828C126.935 38.752 126.773 38.714 126.585 38.714C126.397 38.714 126.229 38.754 126.081 38.834C125.933 38.914 125.827 39.024 125.763 39.164H125.091L125.379 36.74H127.875V37.334H125.955L125.775 38.792L125.673 38.702C125.741 38.582 125.827 38.484 125.931 38.408C126.035 38.328 126.155 38.268 126.291 38.228C126.431 38.184 126.579 38.162 126.735 38.162C127.023 38.162 127.273 38.224 127.485 38.348C127.701 38.472 127.869 38.644 127.989 38.864C128.109 39.084 128.169 39.334 128.169 39.614C128.169 39.906 128.103 40.164 127.971 40.388C127.839 40.612 127.655 40.786 127.419 40.91C127.183 41.034 126.907 41.096 126.591 41.096ZM130.081 41.072C129.781 41.072 129.527 41.026 129.319 40.934C129.115 40.842 128.957 40.716 128.845 40.556C128.733 40.392 128.669 40.204 128.653 39.992L129.307 39.962C129.339 40.138 129.415 40.278 129.535 40.382C129.655 40.486 129.837 40.538 130.081 40.538C130.281 40.538 130.439 40.506 130.555 40.442C130.671 40.378 130.729 40.276 130.729 40.136C130.729 40.06 130.709 39.996 130.669 39.944C130.633 39.888 130.561 39.842 130.453 39.806C130.345 39.766 130.185 39.728 129.973 39.692C129.657 39.632 129.409 39.562 129.229 39.482C129.049 39.402 128.921 39.3 128.845 39.176C128.769 39.052 128.731 38.902 128.731 38.726C128.731 38.434 128.839 38.196 129.055 38.012C129.275 37.828 129.591 37.736 130.003 37.736C130.279 37.736 130.511 37.784 130.699 37.88C130.887 37.972 131.033 38.098 131.137 38.258C131.245 38.414 131.313 38.59 131.341 38.786L130.687 38.822C130.667 38.71 130.627 38.614 130.567 38.534C130.511 38.45 130.435 38.386 130.339 38.342C130.243 38.294 130.129 38.27 129.997 38.27C129.793 38.27 129.641 38.31 129.541 38.39C129.441 38.47 129.391 38.574 129.391 38.702C129.391 38.798 129.413 38.876 129.457 38.936C129.505 38.996 129.581 39.046 129.685 39.086C129.789 39.122 129.927 39.154 130.099 39.182C130.431 39.238 130.691 39.308 130.879 39.392C131.067 39.472 131.199 39.572 131.275 39.692C131.351 39.812 131.389 39.958 131.389 40.13C131.389 40.33 131.333 40.5 131.221 40.64C131.109 40.78 130.955 40.888 130.759 40.964C130.563 41.036 130.337 41.072 130.081 41.072Z" fill="white" fill-opacity="0.6"/>
<rect x="136" y="38" width="1" height="2" rx="0.5" fill="white" fill-opacity="0.3"/>
<rect x="141" y="38" width="1" height="2" rx="0.5" fill="white" fill-opacity="0.3"/>
<rect x="146" y="37" width="1" height="4" rx="0.5" fill="white" fill-opacity="0.6"/>
<rect x="151" y="38" width="1" height="2" rx="0.5" fill="white" fill-opacity="0.3"/>
<rect x="156" y="38" width="1" height="2" rx="0.5" fill="white" fill-opacity="0.3"/>
<path d="M160.937 41C160.937 40.68 160.985 40.394 161.081 40.142C161.177 39.89 161.341 39.656 161.573 39.44C161.805 39.224 162.125 39.008 162.533 38.792C162.729 38.692 162.885 38.6 163.001 38.516C163.121 38.428 163.207 38.338 163.259 38.246C163.311 38.154 163.337 38.042 163.337 37.91C163.337 37.774 163.307 37.658 163.247 37.562C163.191 37.462 163.107 37.384 162.995 37.328C162.883 37.268 162.741 37.238 162.569 37.238C162.297 37.238 162.081 37.312 161.921 37.46C161.765 37.604 161.667 37.812 161.627 38.084L160.955 38.042C161.003 37.614 161.165 37.274 161.441 37.022C161.721 36.77 162.097 36.644 162.569 36.644C162.873 36.644 163.131 36.698 163.343 36.806C163.559 36.91 163.723 37.056 163.835 37.244C163.951 37.432 164.009 37.65 164.009 37.898C164.009 38.114 163.973 38.3 163.901 38.456C163.829 38.612 163.709 38.758 163.541 38.894C163.373 39.026 163.145 39.168 162.857 39.32C162.489 39.516 162.211 39.71 162.023 39.902C161.835 40.09 161.735 40.258 161.723 40.406H164.009V41H160.937ZM166.2 41.096C165.848 41.096 165.542 41.006 165.282 40.826C165.022 40.646 164.822 40.39 164.682 40.058C164.542 39.726 164.472 39.332 164.472 38.876C164.472 38.42 164.542 38.026 164.682 37.694C164.826 37.358 165.026 37.1 165.282 36.92C165.542 36.736 165.848 36.644 166.2 36.644C166.556 36.644 166.862 36.736 167.118 36.92C167.378 37.1 167.578 37.356 167.718 37.688C167.862 38.02 167.934 38.416 167.934 38.876C167.934 39.332 167.864 39.726 167.724 40.058C167.584 40.39 167.384 40.646 167.124 40.826C166.864 41.006 166.556 41.096 166.2 41.096ZM166.2 40.502C166.54 40.502 166.802 40.362 166.986 40.082C167.17 39.802 167.262 39.4 167.262 38.876C167.262 38.524 167.22 38.226 167.136 37.982C167.056 37.738 166.936 37.554 166.776 37.43C166.62 37.302 166.428 37.238 166.2 37.238C165.976 37.238 165.784 37.302 165.624 37.43C165.468 37.554 165.348 37.738 165.264 37.982C165.184 38.226 165.144 38.524 165.144 38.876C165.144 39.4 165.236 39.802 165.42 40.082C165.604 40.362 165.864 40.502 166.2 40.502ZM169.857 41.072C169.557 41.072 169.303 41.026 169.095 40.934C168.891 40.842 168.733 40.716 168.621 40.556C168.509 40.392 168.445 40.204 168.429 39.992L169.083 39.962C169.115 40.138 169.191 40.278 169.311 40.382C169.431 40.486 169.613 40.538 169.857 40.538C170.057 40.538 170.215 40.506 170.331 40.442C170.447 40.378 170.505 40.276 170.505 40.136C170.505 40.06 170.485 39.996 170.445 39.944C170.409 39.888 170.337 39.842 170.229 39.806C170.121 39.766 169.961 39.728 169.749 39.692C169.433 39.632 169.185 39.562 169.005 39.482C168.825 39.402 168.697 39.3 168.621 39.176C168.545 39.052 168.507 38.902 168.507 38.726C168.507 38.434 168.615 38.196 168.831 38.012C169.051 37.828 169.367 37.736 169.779 37.736C170.055 37.736 170.287 37.784 170.475 37.88C170.663 37.972 170.809 38.098 170.913 38.258C171.021 38.414 171.089 38.59 171.117 38.786L170.463 38.822C170.443 38.71 170.403 38.614 170.343 38.534C170.287 38.45 170.211 38.386 170.115 38.342C170.019 38.294 169.905 38.27 169.773 38.27C169.569 38.27 169.417 38.31 169.317 38.39C169.217 38.47 169.167 38.574 169.167 38.702C169.167 38.798 169.189 38.876 169.233 38.936C169.281 38.996 169.357 39.046 169.461 39.086C169.565 39.122 169.703 39.154 169.875 39.182C170.207 39.238 170.467 39.308 170.655 39.392C170.843 39.472 170.975 39.572 171.051 39.692C171.127 39.812 171.165 39.958 171.165 40.13C171.165 40.33 171.109 40.5 170.997 40.64C170.885 40.78 170.731 40.888 170.535 40.964C170.339 41.036 170.113 41.072 169.857 41.072Z" fill="white" fill-opacity="0.6"/>
<rect x="175" y="38" width="1" height="2" rx="0.5" fill="white" fill-opacity="0.3"/>
<rect x="180" y="38" width="1" height="2" rx="0.5" fill="white" fill-opacity="0.3"/>
<rect x="185" y="37" width="1" height="4" rx="0.5" fill="white" fill-opacity="0.6"/>
<rect x="190" y="38" width="1" height="2" rx="0.5" fill="white" fill-opacity="0.3"/>
<rect x="195" y="38" width="1" height="2" rx="0.5" fill="white" fill-opacity="0.3"/>
<path d="M200.042 41C200.042 40.68 200.09 40.394 200.186 40.142C200.282 39.89 200.446 39.656 200.678 39.44C200.91 39.224 201.23 39.008 201.638 38.792C201.834 38.692 201.99 38.6 202.106 38.516C202.226 38.428 202.312 38.338 202.364 38.246C202.416 38.154 202.442 38.042 202.442 37.91C202.442 37.774 202.412 37.658 202.352 37.562C202.296 37.462 202.212 37.384 202.1 37.328C201.988 37.268 201.846 37.238 201.674 37.238C201.402 37.238 201.186 37.312 201.026 37.46C200.87 37.604 200.772 37.812 200.732 38.084L200.06 38.042C200.108 37.614 200.27 37.274 200.546 37.022C200.826 36.77 201.202 36.644 201.674 36.644C201.978 36.644 202.236 36.698 202.448 36.806C202.664 36.91 202.828 37.056 202.94 37.244C203.056 37.432 203.114 37.65 203.114 37.898C203.114 38.114 203.078 38.3 203.006 38.456C202.934 38.612 202.814 38.758 202.646 38.894C202.478 39.026 202.25 39.168 201.962 39.32C201.594 39.516 201.316 39.71 201.128 39.902C200.94 40.09 200.84 40.258 200.828 40.406H203.114V41H200.042ZM205.262 41.096C204.946 41.096 204.676 41.046 204.452 40.946C204.228 40.842 204.052 40.698 203.924 40.514C203.796 40.33 203.722 40.118 203.702 39.878L204.368 39.836C204.4 40.06 204.494 40.228 204.65 40.34C204.81 40.448 205.014 40.502 205.262 40.502C205.542 40.502 205.762 40.424 205.922 40.268C206.086 40.112 206.168 39.894 206.168 39.614C206.168 39.43 206.13 39.272 206.054 39.14C205.982 39.004 205.878 38.9 205.742 38.828C205.606 38.752 205.444 38.714 205.256 38.714C205.068 38.714 204.9 38.754 204.752 38.834C204.604 38.914 204.498 39.024 204.434 39.164H203.762L204.05 36.74H206.546V37.334H204.626L204.446 38.792L204.344 38.702C204.412 38.582 204.498 38.484 204.602 38.408C204.706 38.328 204.826 38.268 204.962 38.228C205.102 38.184 205.25 38.162 205.406 38.162C205.694 38.162 205.944 38.224 206.156 38.348C206.372 38.472 206.54 38.644 206.66 38.864C206.78 39.084 206.84 39.334 206.84 39.614C206.84 39.906 206.774 40.164 206.642 40.388C206.51 40.612 206.326 40.786 206.09 40.91C205.854 41.034 205.578 41.096 205.262 41.096ZM208.751 41.072C208.451 41.072 208.197 41.026 207.989 40.934C207.785 40.842 207.627 40.716 207.515 40.556C207.403 40.392 207.339 40.204 207.323 39.992L207.977 39.962C208.009 40.138 208.085 40.278 208.205 40.382C208.325 40.486 208.507 40.538 208.751 40.538C208.951 40.538 209.109 40.506 209.225 40.442C209.341 40.378 209.399 40.276 209.399 40.136C209.399 40.06 209.379 39.996 209.339 39.944C209.303 39.888 209.231 39.842 209.123 39.806C209.015 39.766 208.855 39.728 208.643 39.692C208.327 39.632 208.079 39.562 207.899 39.482C207.719 39.402 207.591 39.3 207.515 39.176C207.439 39.052 207.401 38.902 207.401 38.726C207.401 38.434 207.509 38.196 207.725 38.012C207.945 37.828 208.261 37.736 208.673 37.736C208.949 37.736 209.181 37.784 209.369 37.88C209.557 37.972 209.703 38.098 209.807 38.258C209.915 38.414 209.983 38.59 210.011 38.786L209.357 38.822C209.337 38.71 209.297 38.614 209.237 38.534C209.181 38.45 209.105 38.386 209.009 38.342C208.913 38.294 208.799 38.27 208.667 38.27C208.463 38.27 208.311 38.31 208.211 38.39C208.111 38.47 208.061 38.574 208.061 38.702C208.061 38.798 208.083 38.876 208.127 38.936C208.175 38.996 208.251 39.046 208.355 39.086C208.459 39.122 208.597 39.154 208.769 39.182C209.101 39.238 209.361 39.308 209.549 39.392C209.737 39.472 209.869 39.572 209.945 39.692C210.021 39.812 210.059 39.958 210.059 40.13C210.059 40.33 210.003 40.5 209.891 40.64C209.779 40.78 209.625 40.888 209.429 40.964C209.233 41.036 209.007 41.072 208.751 41.072Z" fill="white" fill-opacity="0.6"/>
<rect x="214" y="38" width="1" height="2" rx="0.5" fill="white" fill-opacity="0.3"/>
<rect x="219" y="38" width="1" height="2" rx="0.5" fill="white" fill-opacity="0.3"/>
<rect x="224" y="37" width="1" height="4" rx="0.5" fill="white" fill-opacity="0.6"/>
<rect x="229" y="38" width="1" height="2" rx="0.5" fill="white" fill-opacity="0.3"/>
<rect x="234" y="38" width="1" height="2" rx="0.5" fill="white" fill-opacity="0.3"/>
<path d="M240.419 41.096C239.927 41.096 239.547 40.982 239.279 40.754C239.015 40.526 238.873 40.226 238.853 39.854L239.519 39.818C239.543 40.062 239.635 40.238 239.795 40.346C239.959 40.45 240.167 40.502 240.419 40.502C240.587 40.502 240.741 40.48 240.881 40.436C241.025 40.388 241.139 40.312 241.223 40.208C241.311 40.1 241.355 39.96 241.355 39.788C241.355 39.532 241.269 39.344 241.097 39.224C240.925 39.1 240.697 39.038 240.413 39.038H240.059V38.474H240.413C240.641 38.474 240.831 38.428 240.983 38.336C241.135 38.244 241.211 38.084 241.211 37.856C241.211 37.656 241.147 37.504 241.019 37.4C240.891 37.292 240.695 37.238 240.431 37.238C240.175 37.238 239.981 37.288 239.849 37.388C239.717 37.488 239.639 37.624 239.615 37.796L238.949 37.76C238.989 37.424 239.135 37.154 239.387 36.95C239.643 36.746 239.991 36.644 240.431 36.644C240.735 36.644 240.995 36.692 241.211 36.788C241.427 36.88 241.593 37.014 241.709 37.19C241.825 37.366 241.883 37.572 241.883 37.808C241.883 38.068 241.799 38.28 241.631 38.444C241.467 38.608 241.225 38.72 240.905 38.78V38.672C241.253 38.716 241.527 38.84 241.727 39.044C241.927 39.244 242.027 39.5 242.027 39.812C242.027 40.08 241.959 40.312 241.823 40.508C241.687 40.7 241.499 40.846 241.259 40.946C241.019 41.046 240.739 41.096 240.419 41.096ZM244.217 41.096C243.865 41.096 243.559 41.006 243.299 40.826C243.039 40.646 242.839 40.39 242.699 40.058C242.559 39.726 242.489 39.332 242.489 38.876C242.489 38.42 242.559 38.026 242.699 37.694C242.843 37.358 243.043 37.1 243.299 36.92C243.559 36.736 243.865 36.644 244.217 36.644C244.573 36.644 244.879 36.736 245.135 36.92C245.395 37.1 245.595 37.356 245.735 37.688C245.879 38.02 245.951 38.416 245.951 38.876C245.951 39.332 245.881 39.726 245.741 40.058C245.601 40.39 245.401 40.646 245.141 40.826C244.881 41.006 244.573 41.096 244.217 41.096ZM244.217 40.502C244.557 40.502 244.819 40.362 245.003 40.082C245.187 39.802 245.279 39.4 245.279 38.876C245.279 38.524 245.237 38.226 245.153 37.982C245.073 37.738 244.953 37.554 244.793 37.43C244.637 37.302 244.445 37.238 244.217 37.238C243.993 37.238 243.801 37.302 243.641 37.43C243.485 37.554 243.365 37.738 243.281 37.982C243.201 38.226 243.161 38.524 243.161 38.876C243.161 39.4 243.253 39.802 243.437 40.082C243.621 40.362 243.881 40.502 244.217 40.502ZM247.874 41.072C247.574 41.072 247.32 41.026 247.112 40.934C246.908 40.842 246.75 40.716 246.638 40.556C246.526 40.392 246.462 40.204 246.446 39.992L247.1 39.962C247.132 40.138 247.208 40.278 247.328 40.382C247.448 40.486 247.63 40.538 247.874 40.538C248.074 40.538 248.232 40.506 248.348 40.442C248.464 40.378 248.522 40.276 248.522 40.136C248.522 40.06 248.502 39.996 248.462 39.944C248.426 39.888 248.354 39.842 248.246 39.806C248.138 39.766 247.978 39.728 247.766 39.692C247.45 39.632 247.202 39.562 247.022 39.482C246.842 39.402 246.714 39.3 246.638 39.176C246.562 39.052 246.524 38.902 246.524 38.726C246.524 38.434 246.632 38.196 246.848 38.012C247.068 37.828 247.384 37.736 247.796 37.736C248.072 37.736 248.304 37.784 248.492 37.88C248.68 37.972 248.826 38.098 248.93 38.258C249.038 38.414 249.106 38.59 249.134 38.786L248.48 38.822C248.46 38.71 248.42 38.614 248.36 38.534C248.304 38.45 248.228 38.386 248.132 38.342C248.036 38.294 247.922 38.27 247.79 38.27C247.586 38.27 247.434 38.31 247.334 38.39C247.234 38.47 247.184 38.574 247.184 38.702C247.184 38.798 247.206 38.876 247.25 38.936C247.298 38.996 247.374 39.046 247.478 39.086C247.582 39.122 247.72 39.154 247.892 39.182C248.224 39.238 248.484 39.308 248.672 39.392C248.86 39.472 248.992 39.572 249.068 39.692C249.144 39.812 249.182 39.958 249.182 40.13C249.182 40.33 249.126 40.5 249.014 40.64C248.902 40.78 248.748 40.888 248.552 40.964C248.356 41.036 248.13 41.072 247.874 41.072Z" fill="white" fill-opacity="0.6"/>
<rect x="253" y="38" width="1" height="2" rx="0.5" fill="white" fill-opacity="0.3"/>
<rect x="258" y="38" width="1" height="2" rx="0.5" fill="white" fill-opacity="0.3"/>
<rect x="263" y="37" width="1" height="4" rx="0.5" fill="white" fill-opacity="0.6"/>
<rect x="268" y="38" width="1" height="2" rx="0.5" fill="white" fill-opacity="0.3"/>
<rect x="273" y="38" width="1" height="2" rx="0.5" fill="white" fill-opacity="0.3"/>
<path d="M279.557 41.096C279.065 41.096 278.685 40.982 278.417 40.754C278.153 40.526 278.011 40.226 277.991 39.854L278.657 39.818C278.681 40.062 278.773 40.238 278.933 40.346C279.097 40.45 279.305 40.502 279.557 40.502C279.725 40.502 279.879 40.48 280.019 40.436C280.163 40.388 280.277 40.312 280.361 40.208C280.449 40.1 280.493 39.96 280.493 39.788C280.493 39.532 280.407 39.344 280.235 39.224C280.063 39.1 279.835 39.038 279.551 39.038H279.197V38.474H279.551C279.779 38.474 279.969 38.428 280.121 38.336C280.273 38.244 280.349 38.084 280.349 37.856C280.349 37.656 280.285 37.504 280.157 37.4C280.029 37.292 279.833 37.238 279.569 37.238C279.313 37.238 279.119 37.288 278.987 37.388C278.855 37.488 278.777 37.624 278.753 37.796L278.087 37.76C278.127 37.424 278.273 37.154 278.525 36.95C278.781 36.746 279.129 36.644 279.569 36.644C279.873 36.644 280.133 36.692 280.349 36.788C280.565 36.88 280.731 37.014 280.847 37.19C280.963 37.366 281.021 37.572 281.021 37.808C281.021 38.068 280.937 38.28 280.769 38.444C280.605 38.608 280.363 38.72 280.043 38.78V38.672C280.391 38.716 280.665 38.84 280.865 39.044C281.065 39.244 281.165 39.5 281.165 39.812C281.165 40.08 281.097 40.312 280.961 40.508C280.825 40.7 280.637 40.846 280.397 40.946C280.157 41.046 279.877 41.096 279.557 41.096ZM283.247 41.096C282.931 41.096 282.661 41.046 282.437 40.946C282.213 40.842 282.037 40.698 281.909 40.514C281.781 40.33 281.707 40.118 281.687 39.878L282.353 39.836C282.385 40.06 282.479 40.228 282.635 40.34C282.795 40.448 282.999 40.502 283.247 40.502C283.527 40.502 283.747 40.424 283.907 40.268C284.071 40.112 284.153 39.894 284.153 39.614C284.153 39.43 284.115 39.272 284.039 39.14C283.967 39.004 283.863 38.9 283.727 38.828C283.591 38.752 283.429 38.714 283.241 38.714C283.053 38.714 282.885 38.754 282.737 38.834C282.589 38.914 282.483 39.024 282.419 39.164H281.747L282.035 36.74H284.531V37.334H282.611L282.431 38.792L282.329 38.702C282.397 38.582 282.483 38.484 282.587 38.408C282.691 38.328 282.811 38.268 282.947 38.228C283.087 38.184 283.235 38.162 283.391 38.162C283.679 38.162 283.929 38.224 284.141 38.348C284.357 38.472 284.525 38.644 284.645 38.864C284.765 39.084 284.825 39.334 284.825 39.614C284.825 39.906 284.759 40.164 284.627 40.388C284.495 40.612 284.311 40.786 284.075 40.91C283.839 41.034 283.563 41.096 283.247 41.096ZM286.737 41.072C286.437 41.072 286.183 41.026 285.975 40.934C285.771 40.842 285.613 40.716 285.501 40.556C285.389 40.392 285.325 40.204 285.309 39.992L285.963 39.962C285.995 40.138 286.071 40.278 286.191 40.382C286.311 40.486 286.493 40.538 286.737 40.538C286.937 40.538 287.095 40.506 287.211 40.442C287.327 40.378 287.385 40.276 287.385 40.136C287.385 40.06 287.365 39.996 287.325 39.944C287.289 39.888 287.217 39.842 287.109 39.806C287.001 39.766 286.841 39.728 286.629 39.692C286.313 39.632 286.065 39.562 285.885 39.482C285.705 39.402 285.577 39.3 285.501 39.176C285.425 39.052 285.387 38.902 285.387 38.726C285.387 38.434 285.495 38.196 285.711 38.012C285.931 37.828 286.247 37.736 286.659 37.736C286.935 37.736 287.167 37.784 287.355 37.88C287.543 37.972 287.689 38.098 287.793 38.258C287.901 38.414 287.969 38.59 287.997 38.786L287.343 38.822C287.323 38.71 287.283 38.614 287.223 38.534C287.167 38.45 287.091 38.386 286.995 38.342C286.899 38.294 286.785 38.27 286.653 38.27C286.449 38.27 286.297 38.31 286.197 38.39C286.097 38.47 286.047 38.574 286.047 38.702C286.047 38.798 286.069 38.876 286.113 38.936C286.161 38.996 286.237 39.046 286.341 39.086C286.445 39.122 286.583 39.154 286.755 39.182C287.087 39.238 287.347 39.308 287.535 39.392C287.723 39.472 287.855 39.572 287.931 39.692C288.007 39.812 288.045 39.958 288.045 40.13C288.045 40.33 287.989 40.5 287.877 40.64C287.765 40.78 287.611 40.888 287.415 40.964C287.219 41.036 286.993 41.072 286.737 41.072Z" fill="white" fill-opacity="0.6"/>
<rect x="292" y="38" width="1" height="2" rx="0.5" fill="white" fill-opacity="0.3"/>
<rect x="297" y="38" width="1" height="2" rx="0.5" fill="white" fill-opacity="0.3"/>
<rect x="302" y="37" width="1" height="4" rx="0.5" fill="white" fill-opacity="0.6"/>
<rect x="307" y="38" width="1" height="2" rx="0.5" fill="white" fill-opacity="0.3"/>
<rect x="312" y="38" width="1" height="2" rx="0.5" fill="white" fill-opacity="0.3"/>
<path d="M318.87 41V40.112H316.722V39.56L318.792 36.74H319.518V39.524H320.04V40.112H319.518V41H318.87ZM317.46 39.524H318.87V37.64L317.46 39.524ZM322.229 41.096C321.877 41.096 321.571 41.006 321.311 40.826C321.051 40.646 320.851 40.39 320.711 40.058C320.571 39.726 320.501 39.332 320.501 38.876C320.501 38.42 320.571 38.026 320.711 37.694C320.855 37.358 321.055 37.1 321.311 36.92C321.571 36.736 321.877 36.644 322.229 36.644C322.585 36.644 322.891 36.736 323.147 36.92C323.407 37.1 323.607 37.356 323.747 37.688C323.891 38.02 323.963 38.416 323.963 38.876C323.963 39.332 323.893 39.726 323.753 40.058C323.613 40.39 323.413 40.646 323.153 40.826C322.893 41.006 322.585 41.096 322.229 41.096ZM322.229 40.502C322.569 40.502 322.831 40.362 323.015 40.082C323.199 39.802 323.291 39.4 323.291 38.876C323.291 38.524 323.249 38.226 323.165 37.982C323.085 37.738 322.965 37.554 322.805 37.43C322.649 37.302 322.457 37.238 322.229 37.238C322.005 37.238 321.813 37.302 321.653 37.43C321.497 37.554 321.377 37.738 321.293 37.982C321.213 38.226 321.173 38.524 321.173 38.876C321.173 39.4 321.265 39.802 321.449 40.082C321.633 40.362 321.893 40.502 322.229 40.502ZM325.886 41.072C325.586 41.072 325.332 41.026 325.124 40.934C324.92 40.842 324.762 40.716 324.65 40.556C324.538 40.392 324.474 40.204 324.458 39.992L325.112 39.962C325.144 40.138 325.22 40.278 325.34 40.382C325.46 40.486 325.642 40.538 325.886 40.538C326.086 40.538 326.244 40.506 326.36 40.442C326.476 40.378 326.534 40.276 326.534 40.136C326.534 40.06 326.514 39.996 326.474 39.944C326.438 39.888 326.366 39.842 326.258 39.806C326.15 39.766 325.99 39.728 325.778 39.692C325.462 39.632 325.214 39.562 325.034 39.482C324.854 39.402 324.726 39.3 324.65 39.176C324.574 39.052 324.536 38.902 324.536 38.726C324.536 38.434 324.644 38.196 324.86 38.012C325.08 37.828 325.396 37.736 325.808 37.736C326.084 37.736 326.316 37.784 326.504 37.88C326.692 37.972 326.838 38.098 326.942 38.258C327.05 38.414 327.118 38.59 327.146 38.786L326.492 38.822C326.472 38.71 326.432 38.614 326.372 38.534C326.316 38.45 326.24 38.386 326.144 38.342C326.048 38.294 325.934 38.27 325.802 38.27C325.598 38.27 325.446 38.31 325.346 38.39C325.246 38.47 325.196 38.574 325.196 38.702C325.196 38.798 325.218 38.876 325.262 38.936C325.31 38.996 325.386 39.046 325.49 39.086C325.594 39.122 325.732 39.154 325.904 39.182C326.236 39.238 326.496 39.308 326.684 39.392C326.872 39.472 327.004 39.572 327.08 39.692C327.156 39.812 327.194 39.958 327.194 40.13C327.194 40.33 327.138 40.5 327.026 40.64C326.914 40.78 326.76 40.888 326.564 40.964C326.368 41.036 326.142 41.072 325.886 41.072Z" fill="white" fill-opacity="0.6"/>
<rect x="331" y="38" width="1" height="2" rx="0.5" fill="white" fill-opacity="0.3"/>
<rect x="336" y="38" width="1" height="2" rx="0.5" fill="white" fill-opacity="0.3"/>
<rect x="341" y="37" width="1" height="4" rx="0.5" fill="white" fill-opacity="0.6"/>
<rect x="346" y="38" width="1" height="2" rx="0.5" fill="white" fill-opacity="0.3"/>
<rect x="351" y="38" width="1" height="2" rx="0.5" fill="white" fill-opacity="0.3"/>
<path d="M358.007 41V40.112H355.859V39.56L357.929 36.74H358.655V39.524H359.177V40.112H358.655V41H358.007ZM356.597 39.524H358.007V37.64L356.597 39.524ZM361.259 41.096C360.943 41.096 360.673 41.046 360.449 40.946C360.225 40.842 360.049 40.698 359.921 40.514C359.793 40.33 359.719 40.118 359.699 39.878L360.365 39.836C360.397 40.06 360.491 40.228 360.647 40.34C360.807 40.448 361.011 40.502 361.259 40.502C361.539 40.502 361.759 40.424 361.919 40.268C362.083 40.112 362.165 39.894 362.165 39.614C362.165 39.43 362.127 39.272 362.051 39.14C361.979 39.004 361.875 38.9 361.739 38.828C361.603 38.752 361.441 38.714 361.253 38.714C361.065 38.714 360.897 38.754 360.749 38.834C360.601 38.914 360.495 39.024 360.431 39.164H359.759L360.047 36.74H362.543V37.334H360.623L360.443 38.792L360.341 38.702C360.409 38.582 360.495 38.484 360.599 38.408C360.703 38.328 360.823 38.268 360.959 38.228C361.099 38.184 361.247 38.162 361.403 38.162C361.691 38.162 361.941 38.224 362.153 38.348C362.369 38.472 362.537 38.644 362.657 38.864C362.777 39.084 362.837 39.334 362.837 39.614C362.837 39.906 362.771 40.164 362.639 40.388C362.507 40.612 362.323 40.786 362.087 40.91C361.851 41.034 361.575 41.096 361.259 41.096ZM364.748 41.072C364.448 41.072 364.194 41.026 363.986 40.934C363.782 40.842 363.624 40.716 363.512 40.556C363.4 40.392 363.336 40.204 363.32 39.992L363.974 39.962C364.006 40.138 364.082 40.278 364.202 40.382C364.322 40.486 364.504 40.538 364.748 40.538C364.948 40.538 365.106 40.506 365.222 40.442C365.338 40.378 365.396 40.276 365.396 40.136C365.396 40.06 365.376 39.996 365.336 39.944C365.3 39.888 365.228 39.842 365.12 39.806C365.012 39.766 364.852 39.728 364.64 39.692C364.324 39.632 364.076 39.562 363.896 39.482C363.716 39.402 363.588 39.3 363.512 39.176C363.436 39.052 363.398 38.902 363.398 38.726C363.398 38.434 363.506 38.196 363.722 38.012C363.942 37.828 364.258 37.736 364.67 37.736C364.946 37.736 365.178 37.784 365.366 37.88C365.554 37.972 365.7 38.098 365.804 38.258C365.912 38.414 365.98 38.59 366.008 38.786L365.354 38.822C365.334 38.71 365.294 38.614 365.234 38.534C365.178 38.45 365.102 38.386 365.006 38.342C364.91 38.294 364.796 38.27 364.664 38.27C364.46 38.27 364.308 38.31 364.208 38.39C364.108 38.47 364.058 38.574 364.058 38.702C364.058 38.798 364.08 38.876 364.124 38.936C364.172 38.996 364.248 39.046 364.352 39.086C364.456 39.122 364.594 39.154 364.766 39.182C365.098 39.238 365.358 39.308 365.546 39.392C365.734 39.472 365.866 39.572 365.942 39.692C366.018 39.812 366.056 39.958 366.056 40.13C366.056 40.33 366 40.5 365.888 40.64C365.776 40.78 365.622 40.888 365.426 40.964C365.23 41.036 365.004 41.072 364.748 41.072Z" fill="white" fill-opacity="0.6"/>
<rect x="370" y="38" width="1" height="2" rx="0.5" fill="white" fill-opacity="0.3"/>
<rect x="375" y="38" width="1" height="2" rx="0.5" fill="white" fill-opacity="0.3"/>
<rect x="380" y="37" width="1" height="4" rx="0.5" fill="white" fill-opacity="0.6"/>
<rect x="385" y="38" width="1" height="2" rx="0.5" fill="white" fill-opacity="0.3"/>
<rect x="390" y="38" width="1" height="2" rx="0.5" fill="white" fill-opacity="0.3"/>
<path d="M396.432 41.096C396.116 41.096 395.846 41.046 395.622 40.946C395.398 40.842 395.222 40.698 395.094 40.514C394.966 40.33 394.892 40.118 394.872 39.878L395.538 39.836C395.57 40.06 395.664 40.228 395.82 40.34C395.98 40.448 396.184 40.502 396.432 40.502C396.712 40.502 396.932 40.424 397.092 40.268C397.256 40.112 397.338 39.894 397.338 39.614C397.338 39.43 397.3 39.272 397.224 39.14C397.152 39.004 397.048 38.9 396.912 38.828C396.776 38.752 396.614 38.714 396.426 38.714C396.238 38.714 396.07 38.754 395.922 38.834C395.774 38.914 395.668 39.024 395.604 39.164H394.932L395.22 36.74H397.716V37.334H395.796L395.616 38.792L395.514 38.702C395.582 38.582 395.668 38.484 395.772 38.408C395.876 38.328 395.996 38.268 396.132 38.228C396.272 38.184 396.42 38.162 396.576 38.162C396.864 38.162 397.114 38.224 397.326 38.348C397.542 38.472 397.71 38.644 397.83 38.864C397.95 39.084 398.01 39.334 398.01 39.614C398.01 39.906 397.944 40.164 397.812 40.388C397.68 40.612 397.496 40.786 397.26 40.91C397.024 41.034 396.748 41.096 396.432 41.096ZM400.264 41.096C399.912 41.096 399.606 41.006 399.346 40.826C399.086 40.646 398.886 40.39 398.746 40.058C398.606 39.726 398.536 39.332 398.536 38.876C398.536 38.42 398.606 38.026 398.746 37.694C398.89 37.358 399.09 37.1 399.346 36.92C399.606 36.736 399.912 36.644 400.264 36.644C400.62 36.644 400.926 36.736 401.182 36.92C401.442 37.1 401.642 37.356 401.782 37.688C401.926 38.02 401.998 38.416 401.998 38.876C401.998 39.332 401.928 39.726 401.788 40.058C401.648 40.39 401.448 40.646 401.188 40.826C400.928 41.006 400.62 41.096 400.264 41.096ZM400.264 40.502C400.604 40.502 400.866 40.362 401.05 40.082C401.234 39.802 401.326 39.4 401.326 38.876C401.326 38.524 401.284 38.226 401.2 37.982C401.12 37.738 401 37.554 400.84 37.43C400.684 37.302 400.492 37.238 400.264 37.238C400.04 37.238 399.848 37.302 399.688 37.43C399.532 37.554 399.412 37.738 399.328 37.982C399.248 38.226 399.208 38.524 399.208 38.876C399.208 39.4 399.3 39.802 399.484 40.082C399.668 40.362 399.928 40.502 400.264 40.502ZM403.921 41.072C403.621 41.072 403.367 41.026 403.159 40.934C402.955 40.842 402.797 40.716 402.685 40.556C402.573 40.392 402.509 40.204 402.493 39.992L403.147 39.962C403.179 40.138 403.255 40.278 403.375 40.382C403.495 40.486 403.677 40.538 403.921 40.538C404.121 40.538 404.279 40.506 404.395 40.442C404.511 40.378 404.569 40.276 404.569 40.136C404.569 40.06 404.549 39.996 404.509 39.944C404.473 39.888 404.401 39.842 404.293 39.806C404.185 39.766 404.025 39.728 403.813 39.692C403.497 39.632 403.249 39.562 403.069 39.482C402.889 39.402 402.761 39.3 402.685 39.176C402.609 39.052 402.571 38.902 402.571 38.726C402.571 38.434 402.679 38.196 402.895 38.012C403.115 37.828 403.431 37.736 403.843 37.736C404.119 37.736 404.351 37.784 404.539 37.88C404.727 37.972 404.873 38.098 404.977 38.258C405.085 38.414 405.153 38.59 405.181 38.786L404.527 38.822C404.507 38.71 404.467 38.614 404.407 38.534C404.351 38.45 404.275 38.386 404.179 38.342C404.083 38.294 403.969 38.27 403.837 38.27C403.633 38.27 403.481 38.31 403.381 38.39C403.281 38.47 403.231 38.574 403.231 38.702C403.231 38.798 403.253 38.876 403.297 38.936C403.345 38.996 403.421 39.046 403.525 39.086C403.629 39.122 403.767 39.154 403.939 39.182C404.271 39.238 404.531 39.308 404.719 39.392C404.907 39.472 405.039 39.572 405.115 39.692C405.191 39.812 405.229 39.958 405.229 40.13C405.229 40.33 405.173 40.5 405.061 40.64C404.949 40.78 404.795 40.888 404.599 40.964C404.403 41.036 404.177 41.072 403.921 41.072Z" fill="white" fill-opacity="0.6"/>
<rect x="409" y="38" width="1" height="2" rx="0.5" fill="white" fill-opacity="0.3"/>
<rect x="414" y="38" width="1" height="2" rx="0.5" fill="white" fill-opacity="0.3"/>
<rect x="419" y="37" width="1" height="4" rx="0.5" fill="white" fill-opacity="0.6"/>
<rect x="424" y="38" width="1" height="2" rx="0.5" fill="white" fill-opacity="0.3"/>
<rect x="429" y="38" width="1" height="2" rx="0.5" fill="white" fill-opacity="0.3"/>
<path d="M435.57 41.096C435.254 41.096 434.984 41.046 434.76 40.946C434.536 40.842 434.36 40.698 434.232 40.514C434.104 40.33 434.03 40.118 434.01 39.878L434.676 39.836C434.708 40.06 434.802 40.228 434.958 40.34C435.118 40.448 435.322 40.502 435.57 40.502C435.85 40.502 436.07 40.424 436.23 40.268C436.394 40.112 436.476 39.894 436.476 39.614C436.476 39.43 436.438 39.272 436.362 39.14C436.29 39.004 436.186 38.9 436.05 38.828C435.914 38.752 435.752 38.714 435.564 38.714C435.376 38.714 435.208 38.754 435.06 38.834C434.912 38.914 434.806 39.024 434.742 39.164H434.07L434.358 36.74H436.854V37.334H434.934L434.754 38.792L434.652 38.702C434.72 38.582 434.806 38.484 434.91 38.408C435.014 38.328 435.134 38.268 435.27 38.228C435.41 38.184 435.558 38.162 435.714 38.162C436.002 38.162 436.252 38.224 436.464 38.348C436.68 38.472 436.848 38.644 436.968 38.864C437.088 39.084 437.148 39.334 437.148 39.614C437.148 39.906 437.082 40.164 436.95 40.388C436.818 40.612 436.634 40.786 436.398 40.91C436.162 41.034 435.886 41.096 435.57 41.096ZM439.294 41.096C438.978 41.096 438.708 41.046 438.484 40.946C438.26 40.842 438.084 40.698 437.956 40.514C437.828 40.33 437.754 40.118 437.734 39.878L438.4 39.836C438.432 40.06 438.526 40.228 438.682 40.34C438.842 40.448 439.046 40.502 439.294 40.502C439.574 40.502 439.794 40.424 439.954 40.268C440.118 40.112 440.2 39.894 440.2 39.614C440.2 39.43 440.162 39.272 440.086 39.14C440.014 39.004 439.91 38.9 439.774 38.828C439.638 38.752 439.476 38.714 439.288 38.714C439.1 38.714 438.932 38.754 438.784 38.834C438.636 38.914 438.53 39.024 438.466 39.164H437.794L438.082 36.74H440.578V37.334H438.658L438.478 38.792L438.376 38.702C438.444 38.582 438.53 38.484 438.634 38.408C438.738 38.328 438.858 38.268 438.994 38.228C439.134 38.184 439.282 38.162 439.438 38.162C439.726 38.162 439.976 38.224 440.188 38.348C440.404 38.472 440.572 38.644 440.692 38.864C440.812 39.084 440.872 39.334 440.872 39.614C440.872 39.906 440.806 40.164 440.674 40.388C440.542 40.612 440.358 40.786 440.122 40.91C439.886 41.034 439.61 41.096 439.294 41.096ZM442.784 41.072C442.484 41.072 442.23 41.026 442.022 40.934C441.818 40.842 441.66 40.716 441.548 40.556C441.436 40.392 441.372 40.204 441.356 39.992L442.01 39.962C442.042 40.138 442.118 40.278 442.238 40.382C442.358 40.486 442.54 40.538 442.784 40.538C442.984 40.538 443.142 40.506 443.258 40.442C443.374 40.378 443.432 40.276 443.432 40.136C443.432 40.06 443.412 39.996 443.372 39.944C443.336 39.888 443.264 39.842 443.156 39.806C443.048 39.766 442.888 39.728 442.676 39.692C442.36 39.632 442.112 39.562 441.932 39.482C441.752 39.402 441.624 39.3 441.548 39.176C441.472 39.052 441.434 38.902 441.434 38.726C441.434 38.434 441.542 38.196 441.758 38.012C441.978 37.828 442.294 37.736 442.706 37.736C442.982 37.736 443.214 37.784 443.402 37.88C443.59 37.972 443.736 38.098 443.84 38.258C443.948 38.414 444.016 38.59 444.044 38.786L443.39 38.822C443.37 38.71 443.33 38.614 443.27 38.534C443.214 38.45 443.138 38.386 443.042 38.342C442.946 38.294 442.832 38.27 442.7 38.27C442.496 38.27 442.344 38.31 442.244 38.39C442.144 38.47 442.094 38.574 442.094 38.702C442.094 38.798 442.116 38.876 442.16 38.936C442.208 38.996 442.284 39.046 442.388 39.086C442.492 39.122 442.63 39.154 442.802 39.182C443.134 39.238 443.394 39.308 443.582 39.392C443.77 39.472 443.902 39.572 443.978 39.692C444.054 39.812 444.092 39.958 444.092 40.13C444.092 40.33 444.036 40.5 443.924 40.64C443.812 40.78 443.658 40.888 443.462 40.964C443.266 41.036 443.04 41.072 442.784 41.072Z" fill="white" fill-opacity="0.6"/>
<rect x="448" y="38" width="1" height="2" rx="0.5" fill="white" fill-opacity="0.3"/>
<rect x="453" y="38" width="1" height="2" rx="0.5" fill="white" fill-opacity="0.3"/>
<rect x="458" y="37" width="1" height="4" rx="0.5" fill="white" fill-opacity="0.6"/>
<rect x="463" y="38" width="1" height="2" rx="0.5" fill="white" fill-opacity="0.3"/>
<rect x="468" y="38" width="1" height="2" rx="0.5" fill="white" fill-opacity="0.3"/>
<path d="M474.447 41.096C474.111 41.096 473.827 41.022 473.595 40.874C473.363 40.722 473.187 40.504 473.067 40.22C472.947 39.932 472.887 39.584 472.887 39.176C472.887 38.82 472.917 38.49 472.977 38.186C473.041 37.878 473.141 37.61 473.277 37.382C473.413 37.15 473.589 36.97 473.805 36.842C474.025 36.71 474.291 36.644 474.603 36.644C474.995 36.644 475.301 36.74 475.521 36.932C475.741 37.12 475.893 37.372 475.977 37.688L475.335 37.742C475.287 37.586 475.207 37.462 475.095 37.37C474.987 37.278 474.823 37.232 474.603 37.232C474.275 37.232 474.017 37.372 473.829 37.652C473.641 37.932 473.541 38.36 473.529 38.936L473.415 38.912C473.459 38.776 473.533 38.652 473.637 38.54C473.741 38.424 473.871 38.332 474.027 38.264C474.187 38.192 474.369 38.156 474.573 38.156C474.857 38.156 475.105 38.216 475.317 38.336C475.533 38.452 475.699 38.618 475.815 38.834C475.935 39.05 475.995 39.302 475.995 39.59C475.995 39.902 475.929 40.172 475.797 40.4C475.665 40.624 475.483 40.796 475.251 40.916C475.019 41.036 474.751 41.096 474.447 41.096ZM474.453 40.52C474.713 40.52 474.923 40.438 475.083 40.274C475.247 40.106 475.329 39.878 475.329 39.59C475.329 39.41 475.293 39.254 475.221 39.122C475.153 38.986 475.055 38.882 474.927 38.81C474.803 38.738 474.659 38.702 474.495 38.702C474.315 38.702 474.155 38.738 474.015 38.81C473.875 38.882 473.765 38.986 473.685 39.122C473.605 39.254 473.565 39.41 473.565 39.59C473.565 39.77 473.601 39.93 473.673 40.07C473.745 40.21 473.847 40.32 473.979 40.4C474.115 40.48 474.273 40.52 474.453 40.52ZM478.25 41.096C477.898 41.096 477.592 41.006 477.332 40.826C477.072 40.646 476.872 40.39 476.732 40.058C476.592 39.726 476.522 39.332 476.522 38.876C476.522 38.42 476.592 38.026 476.732 37.694C476.876 37.358 477.076 37.1 477.332 36.92C477.592 36.736 477.898 36.644 478.25 36.644C478.606 36.644 478.912 36.736 479.168 36.92C479.428 37.1 479.628 37.356 479.768 37.688C479.912 38.02 479.984 38.416 479.984 38.876C479.984 39.332 479.914 39.726 479.774 40.058C479.634 40.39 479.434 40.646 479.174 40.826C478.914 41.006 478.606 41.096 478.25 41.096ZM478.25 40.502C478.59 40.502 478.852 40.362 479.036 40.082C479.22 39.802 479.312 39.4 479.312 38.876C479.312 38.524 479.27 38.226 479.186 37.982C479.106 37.738 478.986 37.554 478.826 37.43C478.67 37.302 478.478 37.238 478.25 37.238C478.026 37.238 477.834 37.302 477.674 37.43C477.518 37.554 477.398 37.738 477.314 37.982C477.234 38.226 477.194 38.524 477.194 38.876C477.194 39.4 477.286 39.802 477.47 40.082C477.654 40.362 477.914 40.502 478.25 40.502ZM481.907 41.072C481.607 41.072 481.353 41.026 481.145 40.934C480.941 40.842 480.783 40.716 480.671 40.556C480.559 40.392 480.495 40.204 480.479 39.992L481.133 39.962C481.165 40.138 481.241 40.278 481.361 40.382C481.481 40.486 481.663 40.538 481.907 40.538C482.107 40.538 482.265 40.506 482.381 40.442C482.497 40.378 482.555 40.276 482.555 40.136C482.555 40.06 482.535 39.996 482.495 39.944C482.459 39.888 482.387 39.842 482.279 39.806C482.171 39.766 482.011 39.728 481.799 39.692C481.483 39.632 481.235 39.562 481.055 39.482C480.875 39.402 480.747 39.3 480.671 39.176C480.595 39.052 480.557 38.902 480.557 38.726C480.557 38.434 480.665 38.196 480.881 38.012C481.101 37.828 481.417 37.736 481.829 37.736C482.105 37.736 482.337 37.784 482.525 37.88C482.713 37.972 482.859 38.098 482.963 38.258C483.071 38.414 483.139 38.59 483.167 38.786L482.513 38.822C482.493 38.71 482.453 38.614 482.393 38.534C482.337 38.45 482.261 38.386 482.165 38.342C482.069 38.294 481.955 38.27 481.823 38.27C481.619 38.27 481.467 38.31 481.367 38.39C481.267 38.47 481.217 38.574 481.217 38.702C481.217 38.798 481.239 38.876 481.283 38.936C481.331 38.996 481.407 39.046 481.511 39.086C481.615 39.122 481.753 39.154 481.925 39.182C482.257 39.238 482.517 39.308 482.705 39.392C482.893 39.472 483.025 39.572 483.101 39.692C483.177 39.812 483.215 39.958 483.215 40.13C483.215 40.33 483.159 40.5 483.047 40.64C482.935 40.78 482.781 40.888 482.585 40.964C482.389 41.036 482.163 41.072 481.907 41.072Z" fill="white" fill-opacity="0.6"/>
<rect x="487" y="38" width="1" height="2" rx="0.5" fill="white" fill-opacity="0.3"/>
<rect x="492" y="38" width="1" height="2" rx="0.5" fill="white" fill-opacity="0.3"/>
<rect x="497" y="37" width="1" height="4" rx="0.5" fill="white" fill-opacity="0.6"/>
<rect x="502" y="38" width="1" height="2" rx="0.5" fill="white" fill-opacity="0.3"/>
<rect x="507" y="38" width="1" height="2" rx="0.5" fill="white" fill-opacity="0.3"/>
<path d="M513.585 41.096C513.249 41.096 512.965 41.022 512.733 40.874C512.501 40.722 512.325 40.504 512.205 40.22C512.085 39.932 512.025 39.584 512.025 39.176C512.025 38.82 512.055 38.49 512.115 38.186C512.179 37.878 512.279 37.61 512.415 37.382C512.551 37.15 512.727 36.97 512.943 36.842C513.163 36.71 513.429 36.644 513.741 36.644C514.133 36.644 514.439 36.74 514.659 36.932C514.879 37.12 515.031 37.372 515.115 37.688L514.473 37.742C514.425 37.586 514.345 37.462 514.233 37.37C514.125 37.278 513.961 37.232 513.741 37.232C513.413 37.232 513.155 37.372 512.967 37.652C512.779 37.932 512.679 38.36 512.667 38.936L512.553 38.912C512.597 38.776 512.671 38.652 512.775 38.54C512.879 38.424 513.009 38.332 513.165 38.264C513.325 38.192 513.507 38.156 513.711 38.156C513.995 38.156 514.243 38.216 514.455 38.336C514.671 38.452 514.837 38.618 514.953 38.834C515.073 39.05 515.133 39.302 515.133 39.59C515.133 39.902 515.067 40.172 514.935 40.4C514.803 40.624 514.621 40.796 514.389 40.916C514.157 41.036 513.889 41.096 513.585 41.096ZM513.591 40.52C513.851 40.52 514.061 40.438 514.221 40.274C514.385 40.106 514.467 39.878 514.467 39.59C514.467 39.41 514.431 39.254 514.359 39.122C514.291 38.986 514.193 38.882 514.065 38.81C513.941 38.738 513.797 38.702 513.633 38.702C513.453 38.702 513.293 38.738 513.153 38.81C513.013 38.882 512.903 38.986 512.823 39.122C512.743 39.254 512.703 39.41 512.703 39.59C512.703 39.77 512.739 39.93 512.811 40.07C512.883 40.21 512.985 40.32 513.117 40.4C513.253 40.48 513.411 40.52 513.591 40.52ZM517.279 41.096C516.963 41.096 516.693 41.046 516.469 40.946C516.245 40.842 516.069 40.698 515.941 40.514C515.813 40.33 515.739 40.118 515.719 39.878L516.385 39.836C516.417 40.06 516.511 40.228 516.667 40.34C516.827 40.448 517.031 40.502 517.279 40.502C517.559 40.502 517.779 40.424 517.939 40.268C518.103 40.112 518.185 39.894 518.185 39.614C518.185 39.43 518.147 39.272 518.071 39.14C517.999 39.004 517.895 38.9 517.759 38.828C517.623 38.752 517.461 38.714 517.273 38.714C517.085 38.714 516.917 38.754 516.769 38.834C516.621 38.914 516.515 39.024 516.451 39.164H515.779L516.067 36.74H518.563V37.334H516.643L516.463 38.792L516.361 38.702C516.429 38.582 516.515 38.484 516.619 38.408C516.723 38.328 516.843 38.268 516.979 38.228C517.119 38.184 517.267 38.162 517.423 38.162C517.711 38.162 517.961 38.224 518.173 38.348C518.389 38.472 518.557 38.644 518.677 38.864C518.797 39.084 518.857 39.334 518.857 39.614C518.857 39.906 518.791 40.164 518.659 40.388C518.527 40.612 518.343 40.786 518.107 40.91C517.871 41.034 517.595 41.096 517.279 41.096ZM520.769 41.072C520.469 41.072 520.215 41.026 520.007 40.934C519.803 40.842 519.645 40.716 519.533 40.556C519.421 40.392 519.357 40.204 519.341 39.992L519.995 39.962C520.027 40.138 520.103 40.278 520.223 40.382C520.343 40.486 520.525 40.538 520.769 40.538C520.969 40.538 521.127 40.506 521.243 40.442C521.359 40.378 521.417 40.276 521.417 40.136C521.417 40.06 521.397 39.996 521.357 39.944C521.321 39.888 521.249 39.842 521.141 39.806C521.033 39.766 520.873 39.728 520.661 39.692C520.345 39.632 520.097 39.562 519.917 39.482C519.737 39.402 519.609 39.3 519.533 39.176C519.457 39.052 519.419 38.902 519.419 38.726C519.419 38.434 519.527 38.196 519.743 38.012C519.963 37.828 520.279 37.736 520.691 37.736C520.967 37.736 521.199 37.784 521.387 37.88C521.575 37.972 521.721 38.098 521.825 38.258C521.933 38.414 522.001 38.59 522.029 38.786L521.375 38.822C521.355 38.71 521.315 38.614 521.255 38.534C521.199 38.45 521.123 38.386 521.027 38.342C520.931 38.294 520.817 38.27 520.685 38.27C520.481 38.27 520.329 38.31 520.229 38.39C520.129 38.47 520.079 38.574 520.079 38.702C520.079 38.798 520.101 38.876 520.145 38.936C520.193 38.996 520.269 39.046 520.373 39.086C520.477 39.122 520.615 39.154 520.787 39.182C521.119 39.238 521.379 39.308 521.567 39.392C521.755 39.472 521.887 39.572 521.963 39.692C522.039 39.812 522.077 39.958 522.077 40.13C522.077 40.33 522.021 40.5 521.909 40.64C521.797 40.78 521.643 40.888 521.447 40.964C521.251 41.036 521.025 41.072 520.769 41.072Z" fill="white" fill-opacity="0.6"/>
<rect x="526" y="38" width="1" height="2" rx="0.5" fill="white" fill-opacity="0.3"/>
<rect x="531" y="38" width="1" height="2" rx="0.5" fill="white" fill-opacity="0.3"/>
<rect x="536" y="37" width="1" height="4" rx="0.5" fill="white" fill-opacity="0.6"/>
<rect x="541" y="38" width="1" height="2" rx="0.5" fill="white" fill-opacity="0.3"/>
<rect x="546" y="38" width="1" height="2" rx="0.5" fill="white" fill-opacity="0.3"/>
<path d="M551.914 41C551.914 40.56 551.972 40.126 552.088 39.698C552.208 39.266 552.376 38.852 552.592 38.456C552.812 38.056 553.074 37.682 553.378 37.334H550.996V36.74H554.062V37.292C553.726 37.676 553.446 38.06 553.222 38.444C553.002 38.824 552.838 39.224 552.73 39.644C552.626 40.06 552.574 40.512 552.574 41H551.914ZM555.907 41.096C555.555 41.096 555.249 41.006 554.989 40.826C554.729 40.646 554.529 40.39 554.389 40.058C554.249 39.726 554.179 39.332 554.179 38.876C554.179 38.42 554.249 38.026 554.389 37.694C554.533 37.358 554.733 37.1 554.989 36.92C555.249 36.736 555.555 36.644 555.907 36.644C556.263 36.644 556.569 36.736 556.825 36.92C557.085 37.1 557.285 37.356 557.425 37.688C557.569 38.02 557.641 38.416 557.641 38.876C557.641 39.332 557.571 39.726 557.431 40.058C557.291 40.39 557.091 40.646 556.831 40.826C556.571 41.006 556.263 41.096 555.907 41.096ZM555.907 40.502C556.247 40.502 556.509 40.362 556.693 40.082C556.877 39.802 556.969 39.4 556.969 38.876C556.969 38.524 556.927 38.226 556.843 37.982C556.763 37.738 556.643 37.554 556.483 37.43C556.327 37.302 556.135 37.238 555.907 37.238C555.683 37.238 555.491 37.302 555.331 37.43C555.175 37.554 555.055 37.738 554.971 37.982C554.891 38.226 554.851 38.524 554.851 38.876C554.851 39.4 554.943 39.802 555.127 40.082C555.311 40.362 555.571 40.502 555.907 40.502ZM559.564 41.072C559.264 41.072 559.01 41.026 558.802 40.934C558.598 40.842 558.44 40.716 558.328 40.556C558.216 40.392 558.152 40.204 558.136 39.992L558.79 39.962C558.822 40.138 558.898 40.278 559.018 40.382C559.138 40.486 559.32 40.538 559.564 40.538C559.764 40.538 559.922 40.506 560.038 40.442C560.154 40.378 560.212 40.276 560.212 40.136C560.212 40.06 560.192 39.996 560.152 39.944C560.116 39.888 560.044 39.842 559.936 39.806C559.828 39.766 559.668 39.728 559.456 39.692C559.14 39.632 558.892 39.562 558.712 39.482C558.532 39.402 558.404 39.3 558.328 39.176C558.252 39.052 558.214 38.902 558.214 38.726C558.214 38.434 558.322 38.196 558.538 38.012C558.758 37.828 559.074 37.736 559.486 37.736C559.762 37.736 559.994 37.784 560.182 37.88C560.37 37.972 560.516 38.098 560.62 38.258C560.728 38.414 560.796 38.59 560.824 38.786L560.17 38.822C560.15 38.71 560.11 38.614 560.05 38.534C559.994 38.45 559.918 38.386 559.822 38.342C559.726 38.294 559.612 38.27 559.48 38.27C559.276 38.27 559.124 38.31 559.024 38.39C558.924 38.47 558.874 38.574 558.874 38.702C558.874 38.798 558.896 38.876 558.94 38.936C558.988 38.996 559.064 39.046 559.168 39.086C559.272 39.122 559.41 39.154 559.582 39.182C559.914 39.238 560.174 39.308 560.362 39.392C560.55 39.472 560.682 39.572 560.758 39.692C560.834 39.812 560.872 39.958 560.872 40.13C560.872 40.33 560.816 40.5 560.704 40.64C560.592 40.78 560.438 40.888 560.242 40.964C560.046 41.036 559.82 41.072 559.564 41.072Z" fill="white" fill-opacity="0.6"/>
</g>
<rect x="0.5" y="0.5" width="559" height="47" rx="7.5" stroke="#24242C"/>
</g>
<defs>
<clipPath id="clip0_91_5150">
<rect width="560" height="48" rx="8" fill="white"/>
</clipPath>
<clipPath id="clip1_91_5150">
<rect width="10" height="10" fill="white" transform="translate(28 10)"/>
</clipPath>
<clipPath id="clip2_91_5150">
<rect width="8" height="8" fill="white" transform="translate(276 11)"/>
</clipPath>
<clipPath id="clip3_91_5150">
<rect width="10" height="10" fill="white" transform="translate(522 10)"/>
</clipPath>
<clipPath id="clip4_91_5150">
<rect width="10" height="10" fill="white" transform="translate(540 10)"/>
</clipPath>
</defs>
</svg>
