<svg width="118" height="118" viewBox="0 0 118 118" fill="none" xmlns="http://www.w3.org/2000/svg">
<g clip-path="url(#clip0_91_5686)">
<path d="M26.2569 56.0837H0.666016V18.167C0.666016 13.5257 2.50976 9.07451 5.79165 5.79262C9.07354 2.51074 13.5247 0.666992 18.166 0.666992H56.0827V26.2578C56.0827 32.097 55.7269 38.1462 52.6644 43.1162C50.2706 47.0012 47.0002 50.2716 43.1152 52.6653C38.1452 55.7278 32.096 56.0837 26.2569 56.0837Z" fill="url(#paint0_linear_91_5686)"/>
<path d="M117.333 59.0003C117.333 91.2178 91.217 117.334 58.9995 117.334C27.762 117.334 2.26162 92.7782 0.736205 61.917H26.257C32.0962 61.917 38.1454 62.2728 43.1154 65.3353C46.6771 67.5279 49.7256 70.4609 52.0541 73.9352C54.3826 77.4096 55.9366 81.3442 56.6108 85.472L56.7916 86.5891C56.949 87.0496 57.2465 87.4494 57.6424 87.7325C58.0383 88.0155 58.5128 88.1677 58.9995 88.1677C59.4862 88.1677 59.9607 88.0155 60.3566 87.7325C60.7525 87.4494 61.05 87.0496 61.2074 86.5891L61.3883 85.472C62.3735 79.4408 65.2282 73.8715 69.5495 69.5503C73.8707 65.229 79.44 62.3743 85.4712 61.3891L86.5883 61.2082C87.0488 61.0508 87.4486 60.7533 87.7317 60.3574C88.0147 59.9615 88.1669 59.487 88.1669 59.0003C88.1669 58.5136 88.0147 58.0391 87.7317 57.6432C87.4486 57.2473 87.0488 56.9498 86.5883 56.7924L85.4712 56.6116C81.3433 55.9376 77.4087 54.3837 73.9343 52.0551C70.4599 49.7266 67.5269 46.678 65.3345 43.1162C62.272 38.1462 61.9162 32.097 61.9162 26.2578V0.666992H99.8328C104.474 0.666992 108.925 2.51074 112.207 5.79262C115.489 9.07451 117.333 13.5257 117.333 18.167V59.0003Z" fill="url(#paint1_linear_91_5686)"/>
<g filter="url(#filter0_f_91_5686)">
<path d="M56.085 11.0811L18.3232 56.084H0.667969V52.9238L44.5176 0.666992H56.085V11.0811Z" fill="white"/>
</g>
<g filter="url(#filter1_f_91_5686)">
<path d="M117.333 51.6045L62.2559 117.242C61.1781 117.301 60.0926 117.334 59 117.334C53.6686 117.334 48.5042 116.617 43.5977 115.277L117.333 27.4043V51.6045Z" fill="white"/>
</g>
</g>
<defs>
<filter id="filter0_f_91_5686" x="-20.9987" y="-20.9997" width="98.7503" height="98.7503" filterUnits="userSpaceOnUse" color-interpolation-filters="sRGB">
<feFlood flood-opacity="0" result="BackgroundImageFix"/>
<feBlend mode="normal" in="SourceGraphic" in2="BackgroundImageFix" result="shape"/>
<feGaussianBlur stdDeviation="10.8333" result="effect1_foregroundBlur_91_5686"/>
</filter>
<filter id="filter1_f_91_5686" x="21.931" y="5.73763" width="117.069" height="133.263" filterUnits="userSpaceOnUse" color-interpolation-filters="sRGB">
<feFlood flood-opacity="0" result="BackgroundImageFix"/>
<feBlend mode="normal" in="SourceGraphic" in2="BackgroundImageFix" result="shape"/>
<feGaussianBlur stdDeviation="10.8333" result="effect1_foregroundBlur_91_5686"/>
</filter>
<linearGradient id="paint0_linear_91_5686" x1="0.666016" y1="0.666992" x2="129.481" y2="16.1289" gradientUnits="userSpaceOnUse">
<stop stop-color="#F0A9D3"/>
<stop offset="0.504808" stop-color="#F9DEE3"/>
<stop offset="1" stop-color="#9691F2"/>
</linearGradient>
<linearGradient id="paint1_linear_91_5686" x1="0.666016" y1="0.666992" x2="129.481" y2="16.1289" gradientUnits="userSpaceOnUse">
<stop stop-color="#F0A9D3"/>
<stop offset="0.504808" stop-color="#F9DEE3"/>
<stop offset="1" stop-color="#9691F2"/>
</linearGradient>
<clipPath id="clip0_91_5686">
<rect width="116.667" height="116.667" fill="white" transform="translate(0.666016 0.666992)"/>
</clipPath>
</defs>
</svg>
