<svg width="272" height="38" viewBox="0 0 272 38" fill="none" xmlns="http://www.w3.org/2000/svg">
<rect x="0.469727" y="0.73877" width="36.5217" height="36.5217" rx="7.82609" fill="#252547"/>
<path fill-rule="evenodd" clip-rule="evenodd" d="M7.86084 11.3912C7.86084 9.59032 9.32079 8.13037 11.1217 8.13037C12.5415 8.13037 13.7494 9.03777 14.197 10.3043H16.5565V12.4782H14.197C13.7494 13.7447 12.5415 14.6521 11.1217 14.6521C9.32079 14.6521 7.86084 13.1922 7.86084 11.3912ZM21.9913 12.4782H18.7304V10.3043H21.9913V12.4782ZM29.6 10.3043C26.523 10.3043 23.5998 11.6488 21.5974 13.985L14.2129 22.6002C12.6235 24.4545 10.3031 25.5217 7.86084 25.5217V27.6956C10.9378 27.6956 13.861 26.351 15.8635 24.0149L23.2479 15.3997C24.8374 13.5454 27.1577 12.4782 29.6 12.4782V10.3043Z" fill="white"/>
<rect x="47.4263" y="0.73877" width="36.5217" height="36.5217" rx="7.82609" fill="#252547"/>
<g clip-path="url(#clip0_91_5508)">
<path fill-rule="evenodd" clip-rule="evenodd" d="M59.1652 9.2168C59.8833 9.21648 60.5903 9.39403 61.223 9.73358C61.8557 10.0731 62.3945 10.5641 62.7912 11.1627C63.1879 11.7612 63.4302 12.4487 63.4964 13.1637C63.5626 13.8788 63.4507 14.5991 63.1706 15.2603L66.6163 17.6733L73.6663 12.7364C73.9001 12.5725 74.1639 12.4562 74.4426 12.3943C74.7213 12.3324 75.0095 12.3259 75.2908 12.3754C75.572 12.4248 75.8407 12.5292 76.0815 12.6825C76.3224 12.8359 76.5307 13.0351 76.6946 13.269L68.512 18.9994L76.6946 24.7288C76.5308 24.9627 76.3226 25.162 76.0817 25.3155C75.8409 25.4689 75.5722 25.5734 75.291 25.6229C75.0098 25.6725 74.7216 25.6662 74.4428 25.6043C74.164 25.5425 73.9002 25.4263 73.6663 25.2624L66.6163 20.3266L63.1706 22.7396C63.583 23.7141 63.6258 24.8055 63.2911 25.8093C62.9565 26.8131 62.2672 27.6604 61.3525 28.1923C60.4379 28.7243 59.3606 28.9045 58.3226 28.6991C57.2846 28.4937 56.3571 27.9169 55.714 27.0766C55.0709 26.2364 54.7562 25.1904 54.829 24.1348C54.9018 23.0792 55.3571 22.0864 56.1095 21.3424C56.8619 20.5984 57.8598 20.1543 58.9162 20.0934C59.9725 20.0325 61.0149 20.3588 61.8478 21.0114L64.7217 18.9994L61.8478 16.9864C61.3026 17.4138 60.663 17.7048 59.9825 17.835C59.302 17.9652 58.6003 17.9309 57.9357 17.7349C57.2712 17.539 56.6631 17.1871 56.1621 16.7085C55.6611 16.2299 55.2818 15.6385 55.0557 14.9836C54.8295 14.3287 54.7632 13.6292 54.8622 12.9435C54.9612 12.2578 55.2226 11.6056 55.6247 11.0414C56.0267 10.4772 56.5578 10.0172 57.1737 9.69982C57.7896 9.38244 58.4724 9.21683 59.1652 9.2168ZM59.1652 22.2603C58.5887 22.2603 58.0357 22.4893 57.628 22.897C57.2203 23.3047 56.9913 23.8576 56.9913 24.4342C56.9913 25.0107 57.2203 25.5637 57.628 25.9714C58.0357 26.3791 58.5887 26.6081 59.1652 26.6081C59.7418 26.6081 60.2947 26.3791 60.7024 25.9714C61.1101 25.5637 61.3391 25.0107 61.3391 24.4342C61.3391 23.8576 61.1101 23.3047 60.7024 22.897C60.2947 22.4893 59.7418 22.2603 59.1652 22.2603ZM55.9043 17.9125C56.1926 17.9125 56.4691 18.027 56.6729 18.2308C56.8768 18.4347 56.9913 18.7111 56.9913 18.9994C56.9913 19.2877 56.8768 19.5642 56.6729 19.768C56.4691 19.9718 56.1926 20.0864 55.9043 20.0864C55.6161 20.0864 55.3396 19.9718 55.1357 19.768C54.9319 19.5642 54.8174 19.2877 54.8174 18.9994C54.8174 18.7111 54.9319 18.4347 55.1357 18.2308C55.3396 18.027 55.6161 17.9125 55.9043 17.9125ZM60.2522 17.9125C60.5404 17.9125 60.8169 18.027 61.0208 18.2308C61.2246 18.4347 61.3391 18.7111 61.3391 18.9994C61.3391 19.2877 61.2246 19.5642 61.0208 19.768C60.8169 19.9718 60.5404 20.0864 60.2522 20.0864C59.9639 20.0864 59.6874 19.9718 59.4836 19.768C59.2797 19.5642 59.1652 19.2877 59.1652 18.9994C59.1652 18.7111 59.2797 18.4347 59.4836 18.2308C59.6874 18.027 59.9639 17.9125 60.2522 17.9125ZM71.1217 17.9125C71.41 17.9125 71.6865 18.027 71.8903 18.2308C72.0942 18.4347 72.2087 18.7111 72.2087 18.9994C72.2087 19.2877 72.0942 19.5642 71.8903 19.768C71.6865 19.9718 71.41 20.0864 71.1217 20.0864C70.8335 20.0864 70.557 19.9718 70.3531 19.768C70.1493 19.5642 70.0348 19.2877 70.0348 18.9994C70.0348 18.7111 70.1493 18.4347 70.3531 18.2308C70.557 18.027 70.8335 17.9125 71.1217 17.9125ZM75.4696 17.9125C75.7578 17.9125 76.0343 18.027 76.2382 18.2308C76.442 18.4347 76.5565 18.7111 76.5565 18.9994C76.5565 19.2877 76.442 19.5642 76.2382 19.768C76.0343 19.9718 75.7578 20.0864 75.4696 20.0864C75.1813 20.0864 74.9048 19.9718 74.701 19.768C74.4971 19.5642 74.3826 19.2877 74.3826 18.9994C74.3826 18.7111 74.4971 18.4347 74.701 18.2308C74.9048 18.027 75.1813 17.9125 75.4696 17.9125ZM59.1652 11.3907C58.8797 11.3907 58.597 11.4469 58.3333 11.5562C58.0695 11.6654 57.8299 11.8256 57.628 12.0274C57.4262 12.2293 57.266 12.469 57.1568 12.7327C57.0475 12.9965 56.9913 13.2791 56.9913 13.5646C56.9913 13.8501 57.0475 14.1328 57.1568 14.3965C57.266 14.6603 57.4262 14.8999 57.628 15.1018C57.8299 15.3037 58.0695 15.4638 58.3333 15.5731C58.597 15.6823 58.8797 15.7385 59.1652 15.7385C59.7418 15.7385 60.2947 15.5095 60.7024 15.1018C61.1101 14.6941 61.3391 14.1412 61.3391 13.5646C61.3391 12.9881 61.1101 12.4351 60.7024 12.0274C60.2947 11.6197 59.7418 11.3907 59.1652 11.3907Z" fill="white"/>
</g>
<rect x="94.3828" y="0.73877" width="36.5217" height="36.5217" rx="7.82609" fill="#252547"/>
<path fill-rule="evenodd" clip-rule="evenodd" d="M118.078 7.58667C118.078 9.68771 116.375 11.3909 114.274 11.3909V13.5648C116.375 13.5648 118.078 15.2681 118.078 17.3692L119.165 17.3693H120.252C120.252 15.2682 121.955 13.5648 124.056 13.5648L124.057 11.3909C121.956 11.3909 120.252 9.68771 120.252 7.58667H118.078ZM107.209 12.478V25.5215H109.383V12.478H107.209ZM111.556 15.7388V29.8693H113.73V15.7388H111.556ZM102.861 16.8258V21.1736H105.035V16.8258H102.861ZM115.904 19.5432V25.5215H118.078V19.5432H115.904ZM120.252 19.5432V21.1736H122.426V19.5432H120.252Z" fill="white"/>
<rect x="141.339" y="0.73877" width="36.5217" height="36.5217" rx="7.82609" fill="#252547"/>
<g clip-path="url(#clip1_91_5508)">
<path d="M170.535 25.5208L156.339 11.3245C156.029 11.028 155.616 10.8625 155.186 10.8625C154.757 10.8625 154.344 11.028 154.034 11.3245L151.925 13.4327C151.62 13.7386 151.449 14.1532 151.449 14.5854C151.449 15.0176 151.62 15.4322 151.925 15.7382L166.121 29.9345C166.427 30.2397 166.841 30.4111 167.274 30.4111C167.706 30.4111 168.12 30.2397 168.426 29.9345L170.535 27.8259C170.687 27.6745 170.807 27.4948 170.889 27.297C170.971 27.0992 171.013 26.8872 171.013 26.6731C171.013 26.459 170.971 26.247 170.889 26.0492C170.807 25.8514 170.687 25.6721 170.535 25.5208ZM153.078 14.5854L155.186 12.4773L159.262 16.5534L157.154 18.6623L153.078 14.5862L153.078 14.5854ZM167.274 28.7817L158.306 19.8151L160.415 17.7062L169.383 26.6736L167.274 28.7817Z" fill="white"/>
<path d="M148.187 18.9995L149.817 17.3691L151.448 18.9995L149.817 20.6299L148.187 18.9995Z" fill="white"/>
<path d="M157.97 9.2168L159.6 7.58638L161.231 9.2168L159.6 10.8472L157.97 9.2168Z" fill="white"/>
<path d="M148.187 9.2168L149.817 7.58638L151.448 9.2168L149.817 10.8472L148.187 9.2168Z" fill="white"/>
</g>
<rect x="188.296" y="0.73877" width="36.5217" height="36.5217" rx="7.82609" fill="#252547"/>
<path d="M212.399 30.9553V26.4716H200.714C200.279 26.4716 199.899 26.3085 199.573 25.9825C199.247 25.6564 199.084 25.2759 199.084 24.8411V13.1564H194.6V11.5259H199.084V7.04224H200.714V24.8411H218.513V26.4716H214.029V30.9553H212.399ZM212.399 23.2107V13.1564H202.345V11.5259H212.399C212.834 11.5259 213.214 11.689 213.54 12.0151C213.866 12.3411 214.029 12.7216 214.029 13.1564V23.2107H212.399Z" fill="white"/>
<rect x="235.252" y="0.73877" width="36.5217" height="36.5217" rx="7.82609" fill="#252547"/>
<path fill-rule="evenodd" clip-rule="evenodd" d="M247.339 11.0867V13.7823C247.339 14.2145 246.988 14.5649 246.556 14.5649C246.124 14.5649 245.773 14.2145 245.773 13.7823V10.3041C245.773 10.2214 245.786 10.1416 245.81 10.0668C245.911 9.75058 246.207 9.52148 246.556 9.52148H260.469C260.739 9.52148 260.977 9.65835 261.118 9.86653C261.202 9.99143 261.252 10.142 261.252 10.3041V13.7823C261.252 14.2145 260.901 14.5649 260.469 14.5649C260.037 14.5649 259.686 14.2145 259.686 13.7823V11.0867H254.469V26.9128H256.564C256.996 26.9128 257.346 27.2632 257.346 27.6954C257.346 28.1277 256.996 28.478 256.564 28.478H250.477C250.044 28.478 249.694 28.1277 249.694 27.6954C249.694 27.2632 250.044 26.9128 250.477 26.9128H252.556V11.0867H247.339Z" fill="white"/>
<defs>
<clipPath id="clip0_91_5508">
<rect width="26.087" height="26.087" fill="white" transform="translate(52.6436 5.95605)"/>
</clipPath>
<clipPath id="clip1_91_5508">
<rect width="26.087" height="26.087" fill="white" transform="translate(146.557 5.95605)"/>
</clipPath>
</defs>
</svg>
