<svg width="320" height="38" viewBox="0 0 320 38" fill="none" xmlns="http://www.w3.org/2000/svg">
<rect x="0.869629" y="0.869629" width="36.5217" height="36.5217" rx="7.82609" fill="#252547"/>
<path d="M24.9727 31.0861V26.6024H13.288C12.8532 26.6024 12.4727 26.4394 12.1467 26.1133C11.8206 25.7872 11.6575 25.4068 11.6575 24.972V13.2872H7.17383V11.6568H11.6575V7.1731H13.288V24.972H31.0869V26.6024H26.6032V31.0861H24.9727ZM24.9727 23.3416V13.2872H14.9184V11.6568H24.9727C25.4075 11.6568 25.788 11.8198 26.114 12.1459C26.4401 12.472 26.6032 12.8524 26.6032 13.2872V23.3416H24.9727Z" fill="white"/>
<rect x="47.8262" y="0.869629" width="36.5217" height="36.5217" rx="7.82609" fill="#252547"/>
<path fill-rule="evenodd" clip-rule="evenodd" d="M59.9124 11.2176V13.9131C59.9124 14.3454 59.562 14.6958 59.1298 14.6958C58.6976 14.6958 58.3472 14.3454 58.3472 13.9131V10.435C58.3472 10.3522 58.36 10.2725 58.3838 10.1976C58.4843 9.88144 58.7803 9.65234 59.1298 9.65234H73.0428C73.313 9.65234 73.5511 9.78921 73.6918 9.99739C73.7762 10.1223 73.8254 10.2729 73.8254 10.435V13.9131C73.8254 14.3454 73.4751 14.6958 73.0428 14.6958C72.6106 14.6958 72.2602 14.3454 72.2602 13.9131V11.2176H67.0428V27.0436H69.1373C69.5696 27.0436 69.9199 27.394 69.9199 27.8262C69.9199 28.2586 69.5696 28.6088 69.1373 28.6088H63.0504C62.6182 28.6088 62.2678 28.2586 62.2678 27.8262C62.2678 27.394 62.6182 27.0436 63.0504 27.0436H65.1298V11.2176H59.9124Z" fill="white"/>
<rect x="94.7827" y="0.869629" width="36.5217" height="36.5217" rx="7.82609" fill="#252547"/>
<g clip-path="url(#clip0_91_5087)">
<path d="M115.603 28.9128C115.05 28.915 114.508 28.7524 114.047 28.4457C113.587 28.139 113.228 27.7021 113.016 27.1906C112.804 26.6791 112.75 26.1162 112.859 25.5736C112.969 25.031 113.237 24.5333 113.631 24.1438L117.821 19.9455C117.944 19.8425 118.045 19.7149 118.116 19.5708C118.188 19.4267 118.229 19.2693 118.236 19.1087C118.243 18.948 118.217 18.7876 118.159 18.6377C118.1 18.4877 118.012 18.3516 117.898 18.2379C117.784 18.1241 117.648 18.0354 117.498 17.9772C117.348 17.919 117.188 17.8927 117.027 17.9C116.866 17.9072 116.709 17.9479 116.565 18.0194C116.421 18.0908 116.293 18.1915 116.19 18.315L110.598 23.8993C110.066 24.4099 109.358 24.6951 108.621 24.6951C107.884 24.6951 107.176 24.4099 106.644 23.8993C106.122 23.3752 105.829 22.6659 105.829 21.9264C105.829 21.187 106.122 20.4776 106.644 19.9536L113.639 12.959C113.762 12.856 113.863 12.7284 113.934 12.5844C114.006 12.4403 114.046 12.2829 114.054 12.1223C114.061 11.9616 114.035 11.8012 113.976 11.6513C113.918 11.5013 113.83 11.3652 113.716 11.2515C113.602 11.1377 113.466 11.049 113.316 10.9908C113.166 10.9326 113.006 10.9063 112.845 10.9136C112.684 10.9208 112.527 10.9615 112.383 11.0329C112.239 11.1044 112.111 11.2051 112.008 11.3286L105.226 18.0705L104.076 16.9292L110.834 10.1628C111.367 9.68099 112.064 9.42238 112.782 9.4406C113.5 9.45882 114.183 9.75248 114.69 10.2607C115.197 10.769 115.49 11.4529 115.506 12.1707C115.523 12.8885 115.263 13.5853 114.78 14.1167L107.794 21.1031C107.579 21.3199 107.458 21.6129 107.458 21.9183C107.458 22.2237 107.579 22.5167 107.794 22.7335C108.013 22.9428 108.305 23.0596 108.609 23.0596C108.912 23.0596 109.204 22.9428 109.424 22.7335L115.016 17.1411C115.271 16.8604 115.579 16.6342 115.923 16.4762C116.267 16.3183 116.64 16.2319 117.018 16.2223C117.397 16.2127 117.774 16.2801 118.125 16.4203C118.477 16.5606 118.797 16.7709 119.065 17.0383C119.333 17.3058 119.544 17.625 119.685 17.9764C119.826 18.3278 119.894 18.7042 119.885 19.0828C119.876 19.4613 119.79 19.8342 119.633 20.1786C119.476 20.5231 119.25 20.8321 118.97 21.0868L114.772 25.2851C114.587 25.507 114.491 25.7901 114.504 26.0788C114.517 26.3674 114.638 26.6408 114.842 26.8451C115.047 27.0494 115.32 27.1699 115.609 27.183C115.897 27.196 116.18 27.1006 116.402 26.9156L120.022 23.3042L121.196 24.4781L117.576 28.0976C117.318 28.3579 117.011 28.5641 116.672 28.704C116.333 28.844 115.97 28.915 115.603 28.9128Z" fill="white"/>
</g>
<rect x="141.739" y="0.869629" width="36.5217" height="36.5217" rx="7.82609" fill="#252547"/>
<path fill-rule="evenodd" clip-rule="evenodd" d="M149.13 11.5221C149.13 9.72118 150.59 8.26123 152.391 8.26123C153.811 8.26123 155.019 9.16863 155.467 10.4351H157.826V12.6091H155.467C155.019 13.8756 153.811 14.783 152.391 14.783C150.59 14.783 149.13 13.323 149.13 11.5221ZM163.261 12.6091H160V10.4351H163.261V12.6091ZM170.87 10.4351C167.793 10.4351 164.869 11.7797 162.867 14.1158L155.482 22.731C153.893 24.5854 151.573 25.6525 149.13 25.6525V27.8264C152.207 27.8264 155.131 26.4819 157.133 24.1458L164.517 15.5306C166.107 13.6763 168.427 12.6091 170.87 12.6091V10.4351Z" fill="white"/>
<rect x="188.696" y="0.869629" width="36.5217" height="36.5217" rx="7.82609" fill="#252547"/>
<g clip-path="url(#clip1_91_5087)">
<path fill-rule="evenodd" clip-rule="evenodd" d="M200.435 9.34766C201.153 9.34734 201.86 9.52489 202.493 9.86444C203.125 10.204 203.664 10.695 204.061 11.2935C204.457 11.8921 204.7 12.5796 204.766 13.2946C204.832 14.0096 204.72 14.7299 204.44 15.3911L207.886 17.8042L214.936 12.8672C215.17 12.7033 215.433 12.5871 215.712 12.5251C215.991 12.4632 216.279 12.4568 216.56 12.5062C216.841 12.5557 217.11 12.6601 217.351 12.8134C217.592 12.9667 217.8 13.166 217.964 13.3998L209.781 19.1303L217.964 24.8596C217.8 25.0935 217.592 25.2929 217.351 25.4463C217.11 25.5998 216.842 25.7042 216.561 25.7538C216.279 25.8034 215.991 25.797 215.712 25.7352C215.434 25.6733 215.17 25.5572 214.936 25.3933L207.886 20.4574L204.44 22.8705C204.853 23.8449 204.895 24.9363 204.561 25.9401C204.226 26.9439 203.537 27.7912 202.622 28.3232C201.707 28.8552 200.63 29.0354 199.592 28.83C198.554 28.6246 197.627 28.0477 196.984 27.2075C196.34 26.3672 196.026 25.3213 196.099 24.2657C196.171 23.2101 196.627 22.2172 197.379 21.4733C198.131 20.7293 199.129 20.2852 200.186 20.2243C201.242 20.1633 202.284 20.4897 203.117 21.1422L205.991 19.1303L203.117 17.1172C202.572 17.5447 201.933 17.8356 201.252 17.9658C200.572 18.096 199.87 18.0617 199.205 17.8658C198.541 17.6698 197.933 17.3179 197.432 16.8393C196.931 16.3607 196.551 15.7694 196.325 15.1145C196.099 14.4596 196.033 13.7601 196.132 13.0744C196.231 12.3886 196.492 11.7365 196.894 11.1723C197.296 10.608 197.827 10.1481 198.443 9.83068C199.059 9.5133 199.742 9.34769 200.435 9.34766ZM200.435 22.3911C199.858 22.3911 199.305 22.6202 198.898 23.0279C198.49 23.4355 198.261 23.9885 198.261 24.565C198.261 25.1416 198.49 25.6945 198.898 26.1022C199.305 26.5099 199.858 26.739 200.435 26.739C201.011 26.739 201.564 26.5099 201.972 26.1022C202.38 25.6945 202.609 25.1416 202.609 24.565C202.609 23.9885 202.38 23.4355 201.972 23.0279C201.564 22.6202 201.011 22.3911 200.435 22.3911ZM197.174 18.0433C197.462 18.0433 197.739 18.1578 197.942 18.3617C198.146 18.5655 198.261 18.842 198.261 19.1303C198.261 19.4185 198.146 19.695 197.942 19.8989C197.739 20.1027 197.462 20.2172 197.174 20.2172C196.886 20.2172 196.609 20.1027 196.405 19.8989C196.201 19.695 196.087 19.4185 196.087 19.1303C196.087 18.842 196.201 18.5655 196.405 18.3617C196.609 18.1578 196.886 18.0433 197.174 18.0433ZM201.522 18.0433C201.81 18.0433 202.086 18.1578 202.29 18.3617C202.494 18.5655 202.609 18.842 202.609 19.1303C202.609 19.4185 202.494 19.695 202.29 19.8989C202.086 20.1027 201.81 20.2172 201.522 20.2172C201.233 20.2172 200.957 20.1027 200.753 19.8989C200.549 19.695 200.435 19.4185 200.435 19.1303C200.435 18.842 200.549 18.5655 200.753 18.3617C200.957 18.1578 201.233 18.0433 201.522 18.0433ZM212.391 18.0433C212.68 18.0433 212.956 18.1578 213.16 18.3617C213.364 18.5655 213.478 18.842 213.478 19.1303C213.478 19.4185 213.364 19.695 213.16 19.8989C212.956 20.1027 212.68 20.2172 212.391 20.2172C212.103 20.2172 211.827 20.1027 211.623 19.8989C211.419 19.695 211.304 19.4185 211.304 19.1303C211.304 18.842 211.419 18.5655 211.623 18.3617C211.827 18.1578 212.103 18.0433 212.391 18.0433ZM216.739 18.0433C217.027 18.0433 217.304 18.1578 217.508 18.3617C217.712 18.5655 217.826 18.842 217.826 19.1303C217.826 19.4185 217.712 19.695 217.508 19.8989C217.304 20.1027 217.027 20.2172 216.739 20.2172C216.451 20.2172 216.174 20.1027 215.97 19.8989C215.767 19.695 215.652 19.4185 215.652 19.1303C215.652 18.842 215.767 18.5655 215.97 18.3617C216.174 18.1578 216.451 18.0433 216.739 18.0433ZM200.435 11.5216C200.149 11.5216 199.867 11.5778 199.603 11.687C199.339 11.7963 199.099 11.9564 198.898 12.1583C198.696 12.3602 198.536 12.5998 198.426 12.8636C198.317 13.1273 198.261 13.41 198.261 13.6955C198.261 13.981 198.317 14.2637 198.426 14.5274C198.536 14.7912 198.696 15.0308 198.898 15.2327C199.099 15.4345 199.339 15.5947 199.603 15.7039C199.867 15.8132 200.149 15.8694 200.435 15.8694C201.011 15.8694 201.564 15.6404 201.972 15.2327C202.38 14.825 202.609 14.272 202.609 13.6955C202.609 13.1189 202.38 12.566 201.972 12.1583C201.564 11.7506 201.011 11.5216 200.435 11.5216Z" fill="white"/>
</g>
<rect x="235.652" y="0.869629" width="36.5217" height="36.5217" rx="7.82609" fill="#252547"/>
<path fill-rule="evenodd" clip-rule="evenodd" d="M259.348 7.71753C259.348 9.81857 257.645 11.5218 255.543 11.5218V13.6957C257.645 13.6957 259.348 15.399 259.348 17.5L260.435 17.5001H261.522C261.522 15.3991 263.225 13.6957 265.326 13.6957L265.326 11.5218C263.225 11.5218 261.522 9.81857 261.522 7.71753H259.348ZM248.478 12.6088V25.6523H250.652V12.6088H248.478ZM252.826 15.8697V30.0001H255V15.8697H252.826ZM244.13 16.9567V21.3045H246.304V16.9567H244.13ZM257.174 19.6741V25.6523H259.348V19.6741H257.174ZM261.522 19.6741V21.3045H263.696V19.6741H261.522Z" fill="white"/>
<rect x="282.609" y="0.869629" width="36.5217" height="36.5217" rx="7.82609" fill="#252547"/>
<g clip-path="url(#clip2_91_5087)">
<path d="M311.805 25.6516L297.609 11.4554C297.298 11.1589 296.885 10.9934 296.456 10.9934C296.027 10.9934 295.614 11.1589 295.303 11.4554L293.195 13.5635C292.89 13.8695 292.718 14.2841 292.718 14.7163C292.718 15.1485 292.89 15.5631 293.195 15.869L307.39 30.0653C307.696 30.3705 308.111 30.5419 308.543 30.5419C308.975 30.5419 309.39 30.3705 309.696 30.0653L311.805 27.9568C311.956 27.8054 312.076 27.6257 312.158 27.4279C312.24 27.2301 312.283 27.0181 312.283 26.804C312.283 26.5899 312.24 26.3779 312.158 26.1801C312.076 25.9823 311.956 25.803 311.805 25.6516ZM294.348 14.7162L296.456 12.6082L300.532 16.6843L298.423 18.7931L294.347 14.7171L294.348 14.7162ZM308.543 28.9125L299.576 19.9459L301.685 17.8371L310.652 26.8044L308.543 28.9125Z" fill="white"/>
<path d="M289.457 19.1304L291.087 17.5L292.717 19.1304L291.087 20.7608L289.457 19.1304Z" fill="white"/>
<path d="M299.239 9.34766L300.87 7.71724L302.5 9.34766L300.87 10.9781L299.239 9.34766Z" fill="white"/>
<path d="M289.457 9.34766L291.087 7.71724L292.717 9.34766L291.087 10.9781L289.457 9.34766Z" fill="white"/>
</g>
<defs>
<clipPath id="clip0_91_5087">
<rect width="26.087" height="26.087" fill="white" transform="translate(100 6.08691)"/>
</clipPath>
<clipPath id="clip1_91_5087">
<rect width="26.087" height="26.087" fill="white" transform="translate(193.913 6.08691)"/>
</clipPath>
<clipPath id="clip2_91_5087">
<rect width="26.087" height="26.087" fill="white" transform="translate(287.826 6.08691)"/>
</clipPath>
</defs>
</svg>
