<svg width="319" height="38" viewBox="0 0 319 38" fill="none" xmlns="http://www.w3.org/2000/svg">
<rect x="0.0698242" y="0.869629" width="36.5217" height="36.5217" rx="7.82609" fill="#252547"/>
<path fill-rule="evenodd" clip-rule="evenodd" d="M7.46094 11.5221C7.46094 9.72118 8.92088 8.26123 10.7218 8.26123C12.1416 8.26123 13.3495 9.16863 13.7971 10.4351H16.1566V12.6091H13.7971C13.3495 13.8756 12.1416 14.783 10.7218 14.783C8.92088 14.783 7.46094 13.323 7.46094 11.5221ZM21.5914 12.6091H18.3305V10.4351H21.5914V12.6091ZM29.2001 10.4351C26.1231 10.4351 23.1999 11.7797 21.1975 14.1158L13.813 22.731C12.2236 24.5854 9.90323 25.6525 7.46094 25.6525V27.8264C10.5379 27.8264 13.4611 26.4819 15.4636 24.1458L22.848 15.5306C24.4375 13.6763 26.7578 12.6091 29.2001 12.6091V10.4351Z" fill="white"/>
<rect x="47.0264" y="0.869629" width="36.5217" height="36.5217" rx="7.82609" fill="#252547"/>
<g clip-path="url(#clip0_91_5055)">
<path fill-rule="evenodd" clip-rule="evenodd" d="M58.7653 9.34766C59.4834 9.34734 60.1904 9.52489 60.8231 9.86444C61.4558 10.204 61.9946 10.695 62.3913 11.2935C62.788 11.8921 63.0303 12.5796 63.0965 13.2946C63.1627 14.0096 63.0508 14.7299 62.7707 15.3911L66.2164 17.8042L73.2664 12.8672C73.5002 12.7033 73.764 12.5871 74.0427 12.5251C74.3214 12.4632 74.6096 12.4568 74.8909 12.5062C75.1721 12.5557 75.4408 12.6601 75.6816 12.8134C75.9225 12.9667 76.1308 13.166 76.2947 13.3998L68.112 19.1303L76.2947 24.8596C76.1309 25.0935 75.9227 25.2929 75.6818 25.4463C75.441 25.5998 75.1723 25.7042 74.8911 25.7538C74.6099 25.8034 74.3216 25.797 74.0429 25.7352C73.7641 25.6733 73.5003 25.5572 73.2664 25.3933L66.2164 20.4574L62.7707 22.8705C63.1831 23.8449 63.2259 24.9363 62.8912 25.9401C62.5565 26.9439 61.8673 27.7912 60.9526 28.3232C60.038 28.8552 58.9607 29.0354 57.9227 28.83C56.8847 28.6246 55.9572 28.0477 55.3141 27.2075C54.671 26.3672 54.3563 25.3213 54.4291 24.2657C54.5019 23.2101 54.9572 22.2172 55.7096 21.4733C56.462 20.7293 57.4599 20.2852 58.5163 20.2243C59.5726 20.1633 60.615 20.4897 61.4479 21.1422L64.3218 19.1303L61.4479 17.1172C60.9027 17.5447 60.2631 17.8356 59.5826 17.9658C58.9021 18.096 58.2004 18.0617 57.5358 17.8658C56.8713 17.6698 56.2632 17.3179 55.7622 16.8393C55.2612 16.3607 54.8819 15.7694 54.6558 15.1145C54.4296 14.4596 54.3633 13.7601 54.4623 13.0744C54.5613 12.3886 54.8227 11.7365 55.2248 11.1723C55.6268 10.608 56.1579 10.1481 56.7738 9.83068C57.3897 9.5133 58.0725 9.34769 58.7653 9.34766ZM58.7653 22.3911C58.1887 22.3911 57.6358 22.6202 57.2281 23.0279C56.8204 23.4355 56.5914 23.9885 56.5914 24.565C56.5914 25.1416 56.8204 25.6945 57.2281 26.1022C57.6358 26.5099 58.1887 26.739 58.7653 26.739C59.3419 26.739 59.8948 26.5099 60.3025 26.1022C60.7102 25.6945 60.9392 25.1416 60.9392 24.565C60.9392 23.9885 60.7102 23.4355 60.3025 23.0279C59.8948 22.6202 59.3419 22.3911 58.7653 22.3911ZM55.5044 18.0433C55.7927 18.0433 56.0692 18.1578 56.273 18.3617C56.4769 18.5655 56.5914 18.842 56.5914 19.1303C56.5914 19.4185 56.4769 19.695 56.273 19.8989C56.0692 20.1027 55.7927 20.2172 55.5044 20.2172C55.2162 20.2172 54.9397 20.1027 54.7358 19.8989C54.532 19.695 54.4175 19.4185 54.4175 19.1303C54.4175 18.842 54.532 18.5655 54.7358 18.3617C54.9397 18.1578 55.2162 18.0433 55.5044 18.0433ZM59.8523 18.0433C60.1405 18.0433 60.417 18.1578 60.6209 18.3617C60.8247 18.5655 60.9392 18.842 60.9392 19.1303C60.9392 19.4185 60.8247 19.695 60.6209 19.8989C60.417 20.1027 60.1405 20.2172 59.8523 20.2172C59.564 20.2172 59.2875 20.1027 59.0837 19.8989C58.8798 19.695 58.7653 19.4185 58.7653 19.1303C58.7653 18.842 58.8798 18.5655 59.0837 18.3617C59.2875 18.1578 59.564 18.0433 59.8523 18.0433ZM70.7218 18.0433C71.0101 18.0433 71.2866 18.1578 71.4904 18.3617C71.6943 18.5655 71.8088 18.842 71.8088 19.1303C71.8088 19.4185 71.6943 19.695 71.4904 19.8989C71.2866 20.1027 71.0101 20.2172 70.7218 20.2172C70.4336 20.2172 70.1571 20.1027 69.9532 19.8989C69.7494 19.695 69.6349 19.4185 69.6349 19.1303C69.6349 18.842 69.7494 18.5655 69.9532 18.3617C70.1571 18.1578 70.4336 18.0433 70.7218 18.0433ZM75.0697 18.0433C75.3579 18.0433 75.6344 18.1578 75.8383 18.3617C76.0421 18.5655 76.1566 18.842 76.1566 19.1303C76.1566 19.4185 76.0421 19.695 75.8383 19.8989C75.6344 20.1027 75.3579 20.2172 75.0697 20.2172C74.7814 20.2172 74.5049 20.1027 74.3011 19.8989C74.0972 19.695 73.9827 19.4185 73.9827 19.1303C73.9827 18.842 74.0972 18.5655 74.3011 18.3617C74.5049 18.1578 74.7814 18.0433 75.0697 18.0433ZM58.7653 11.5216C58.4798 11.5216 58.1971 11.5778 57.9334 11.687C57.6696 11.7963 57.43 11.9564 57.2281 12.1583C57.0263 12.3602 56.8661 12.5998 56.7569 12.8636C56.6476 13.1273 56.5914 13.41 56.5914 13.6955C56.5914 13.981 56.6476 14.2637 56.7569 14.5274C56.8661 14.7912 57.0263 15.0308 57.2281 15.2327C57.43 15.4345 57.6696 15.5947 57.9334 15.7039C58.1971 15.8132 58.4798 15.8694 58.7653 15.8694C59.3419 15.8694 59.8948 15.6404 60.3025 15.2327C60.7102 14.825 60.9392 14.272 60.9392 13.6955C60.9392 13.1189 60.7102 12.566 60.3025 12.1583C59.8948 11.7506 59.3419 11.5216 58.7653 11.5216Z" fill="white"/>
</g>
<rect x="93.9829" y="0.869629" width="36.5217" height="36.5217" rx="7.82609" fill="#252547"/>
<path fill-rule="evenodd" clip-rule="evenodd" d="M117.678 7.71753C117.678 9.81857 115.975 11.5218 113.874 11.5218V13.6957C115.975 13.6957 117.678 15.399 117.678 17.5L118.765 17.5001H119.852C119.852 15.3991 121.556 13.6957 123.657 13.6957L123.657 11.5218C121.556 11.5218 119.852 9.81857 119.852 7.71753H117.678ZM106.809 12.6088V25.6523H108.983V12.6088H106.809ZM111.157 15.8697V30.0001H113.331V15.8697H111.157ZM102.461 16.9567V21.3045H104.635V16.9567H102.461ZM115.504 19.6741V25.6523H117.678V19.6741H115.504ZM119.852 19.6741V21.3045H122.026V19.6741H119.852Z" fill="white"/>
<rect x="140.939" y="0.869629" width="36.5217" height="36.5217" rx="7.82609" fill="#252547"/>
<g clip-path="url(#clip1_91_5055)">
<path d="M170.135 25.6516L155.939 11.4554C155.629 11.1589 155.216 10.9934 154.786 10.9934C154.357 10.9934 153.944 11.1589 153.634 11.4554L151.526 13.5635C151.22 13.8695 151.049 14.2841 151.049 14.7163C151.049 15.1485 151.22 15.5631 151.526 15.869L165.721 30.0653C166.027 30.3705 166.442 30.5419 166.874 30.5419C167.306 30.5419 167.721 30.3705 168.027 30.0653L170.135 27.9568C170.287 27.8054 170.407 27.6257 170.489 27.4279C170.571 27.2301 170.613 27.0181 170.613 26.804C170.613 26.5899 170.571 26.3779 170.489 26.1801C170.407 25.9823 170.287 25.803 170.135 25.6516ZM152.678 14.7162L154.786 12.6082L158.862 16.6843L156.754 18.7931L152.678 14.7171L152.678 14.7162ZM166.874 28.9125L157.906 19.9459L160.015 17.8371L168.983 26.8044L166.874 28.9125Z" fill="white"/>
<path d="M147.787 19.1304L149.418 17.5L151.048 19.1304L149.418 20.7608L147.787 19.1304Z" fill="white"/>
<path d="M157.57 9.34766L159.2 7.71724L160.831 9.34766L159.2 10.9781L157.57 9.34766Z" fill="white"/>
<path d="M147.787 9.34766L149.418 7.71724L151.048 9.34766L149.418 10.9781L147.787 9.34766Z" fill="white"/>
</g>
<rect x="187.896" y="0.869629" width="36.5217" height="36.5217" rx="7.82609" fill="#252547"/>
<path d="M211.999 31.0861V26.6024H200.314C199.88 26.6024 199.499 26.4394 199.173 26.1133C198.847 25.7872 198.684 25.4068 198.684 24.972V13.2872H194.2V11.6568H198.684V7.1731H200.314V24.972H218.113V26.6024H213.63V31.0861H211.999ZM211.999 23.3416V13.2872H201.945V11.6568H211.999C212.434 11.6568 212.814 11.8198 213.14 12.1459C213.466 12.472 213.63 12.8524 213.63 13.2872V23.3416H211.999Z" fill="white"/>
<rect x="234.853" y="0.869629" width="36.5217" height="36.5217" rx="7.82609" fill="#252547"/>
<path fill-rule="evenodd" clip-rule="evenodd" d="M246.939 11.2176V13.9131C246.939 14.3454 246.589 14.6958 246.157 14.6958C245.724 14.6958 245.374 14.3454 245.374 13.9131V10.435C245.374 10.3522 245.387 10.2725 245.411 10.1976C245.511 9.88144 245.807 9.65234 246.157 9.65234H260.07C260.34 9.65234 260.578 9.78921 260.719 9.99739C260.803 10.1223 260.852 10.2729 260.852 10.435V13.9131C260.852 14.3454 260.502 14.6958 260.07 14.6958C259.637 14.6958 259.287 14.3454 259.287 13.9131V11.2176H254.07V27.0436H256.164C256.596 27.0436 256.947 27.394 256.947 27.8262C256.947 28.2586 256.596 28.6088 256.164 28.6088H250.077C249.645 28.6088 249.295 28.2586 249.295 27.8262C249.295 27.394 249.645 27.0436 250.077 27.0436H252.157V11.2176H246.939Z" fill="white"/>
<rect x="281.809" y="0.869629" width="36.5217" height="36.5217" rx="7.82609" fill="#252547"/>
<g clip-path="url(#clip2_91_5055)">
<path d="M302.63 28.9128C302.076 28.915 301.535 28.7524 301.074 28.4457C300.613 28.139 300.254 27.7021 300.042 27.1906C299.831 26.6791 299.776 26.1162 299.886 25.5736C299.995 25.031 300.264 24.5333 300.657 24.1438L304.847 19.9455C304.971 19.8425 305.071 19.7149 305.143 19.5708C305.214 19.4267 305.255 19.2693 305.262 19.1087C305.269 18.948 305.243 18.7876 305.185 18.6377C305.127 18.4877 305.038 18.3516 304.924 18.2379C304.811 18.1241 304.674 18.0354 304.524 17.9772C304.375 17.919 304.214 17.8927 304.053 17.9C303.893 17.9072 303.735 17.9479 303.591 18.0194C303.447 18.0908 303.32 18.1915 303.217 18.315L297.624 23.8993C297.093 24.4099 296.384 24.6951 295.647 24.6951C294.91 24.6951 294.202 24.4099 293.67 23.8993C293.149 23.3752 292.856 22.6659 292.856 21.9264C292.856 21.187 293.149 20.4776 293.67 19.9536L300.665 12.959C300.789 12.856 300.889 12.7284 300.961 12.5844C301.032 12.4403 301.073 12.2829 301.08 12.1223C301.087 11.9616 301.061 11.8012 301.003 11.6513C300.945 11.5013 300.856 11.3652 300.742 11.2515C300.628 11.1377 300.492 11.049 300.342 10.9908C300.192 10.9326 300.032 10.9063 299.871 10.9136C299.711 10.9208 299.553 10.9615 299.409 11.0329C299.265 11.1044 299.138 11.2051 299.035 11.3286L292.252 18.0705L291.103 16.9292L297.861 10.1628C298.393 9.68099 299.09 9.42238 299.808 9.4406C300.526 9.45882 301.209 9.75248 301.716 10.2607C302.224 10.769 302.516 11.4529 302.533 12.1707C302.549 12.8885 302.289 13.5853 301.806 14.1167L294.82 21.1031C294.605 21.3199 294.484 21.6129 294.484 21.9183C294.484 22.2237 294.605 22.5167 294.82 22.7335C295.04 22.9428 295.332 23.0596 295.635 23.0596C295.939 23.0596 296.231 22.9428 296.45 22.7335L302.043 17.1411C302.297 16.8604 302.605 16.6342 302.95 16.4762C303.294 16.3183 303.666 16.2319 304.045 16.2223C304.423 16.2127 304.8 16.2801 305.152 16.4203C305.503 16.5606 305.823 16.7709 306.091 17.0383C306.359 17.3058 306.57 17.625 306.711 17.9764C306.852 18.3278 306.92 18.7042 306.911 19.0828C306.902 19.4613 306.817 19.8342 306.66 20.1786C306.502 20.5231 306.277 20.8321 305.997 21.0868L301.798 25.2851C301.613 25.507 301.518 25.7901 301.531 26.0788C301.544 26.3674 301.664 26.6408 301.869 26.8451C302.073 27.0494 302.346 27.1699 302.635 27.183C302.924 27.196 303.207 27.1006 303.429 26.9156L307.048 23.3042L308.222 24.4781L304.603 28.0976C304.344 28.3579 304.037 28.5641 303.698 28.704C303.36 28.844 302.996 28.915 302.63 28.9128Z" fill="white"/>
</g>
<defs>
<clipPath id="clip0_91_5055">
<rect width="26.087" height="26.087" fill="white" transform="translate(52.2437 6.08691)"/>
</clipPath>
<clipPath id="clip1_91_5055">
<rect width="26.087" height="26.087" fill="white" transform="translate(146.157 6.08691)"/>
</clipPath>
<clipPath id="clip2_91_5055">
<rect width="26.087" height="26.087" fill="white" transform="translate(287.026 6.08691)"/>
</clipPath>
</defs>
</svg>
