<svg width="24" height="20" viewBox="0 0 24 20" fill="none" xmlns="http://www.w3.org/2000/svg">
<path d="M21.625 0.375H2.375C1.91087 0.375 1.46575 0.559374 1.13756 0.887563C0.809374 1.21575 0.625 1.66087 0.625 2.125V17.875C0.625 18.3391 0.809374 18.7842 1.13756 19.1124C1.46575 19.4406 1.91087 19.625 2.375 19.625H21.625C22.0891 19.625 22.5342 19.4406 22.8624 19.1124C23.1906 18.7842 23.375 18.3391 23.375 17.875V2.125C23.375 1.66087 23.1906 1.21575 22.8624 0.887563C22.5342 0.559374 22.0891 0.375 21.625 0.375ZM21.625 17.875H2.375V2.125H21.625V17.875ZM6.75 5.1875C6.75 5.44709 6.67302 5.70085 6.5288 5.91669C6.38458 6.13252 6.1796 6.30075 5.93977 6.40009C5.69994 6.49943 5.43604 6.52542 5.18144 6.47478C4.92684 6.42414 4.69298 6.29913 4.50942 6.11558C4.32587 5.93202 4.20086 5.69816 4.15022 5.44356C4.09958 5.18896 4.12557 4.92506 4.22491 4.68523C4.32425 4.4454 4.49247 4.24042 4.70831 4.0962C4.92415 3.95198 5.17791 3.875 5.4375 3.875C5.7856 3.875 6.11944 4.01328 6.36558 4.25942C6.61172 4.50556 6.75 4.8394 6.75 5.1875ZM11.125 5.1875C11.125 5.44709 11.048 5.70085 10.9038 5.91669C10.7596 6.13252 10.5546 6.30075 10.3148 6.40009C10.0749 6.49943 9.81104 6.52542 9.55644 6.47478C9.30184 6.42414 9.06798 6.29913 8.88442 6.11558C8.70087 5.93202 8.57586 5.69816 8.52522 5.44356C8.47458 5.18896 8.50057 4.92506 8.59991 4.68523C8.69925 4.4454 8.86747 4.24042 9.08331 4.0962C9.29915 3.95198 9.55291 3.875 9.8125 3.875C10.1606 3.875 10.4944 4.01328 10.7406 4.25942C10.9867 4.50556 11.125 4.8394 11.125 5.1875Z" fill="#F9DEE3"/>
</svg>
