<svg width="272" height="38" viewBox="0 0 272 38" fill="none" xmlns="http://www.w3.org/2000/svg">
<rect x="0.269531" y="0.73877" width="36.5217" height="36.5217" rx="7.82609" fill="#252547"/>
<path d="M24.3726 30.9553V26.4716H12.6879C12.2531 26.4716 11.8726 26.3085 11.5466 25.9825C11.2205 25.6564 11.0574 25.2759 11.0574 24.8411V13.1564H6.57373V11.5259H11.0574V7.04224H12.6879V24.8411H30.4868V26.4716H26.0031V30.9553H24.3726ZM24.3726 23.2107V13.1564H14.3183V11.5259H24.3726C24.8074 11.5259 25.1879 11.689 25.5139 12.0151C25.84 12.3411 26.0031 12.7216 26.0031 13.1564V23.2107H24.3726Z" fill="white"/>
<rect x="47.2261" y="0.73877" width="36.5217" height="36.5217" rx="7.82609" fill="#252547"/>
<path fill-rule="evenodd" clip-rule="evenodd" d="M59.3123 11.0867V13.7823C59.3123 14.2145 58.9619 14.5649 58.5297 14.5649C58.0975 14.5649 57.7471 14.2145 57.7471 13.7823V10.3041C57.7471 10.2214 57.7599 10.1416 57.7837 10.0668C57.8842 9.75058 58.1802 9.52148 58.5297 9.52148H72.4427C72.7129 9.52148 72.951 9.65835 73.0917 9.86653C73.1761 9.99143 73.2253 10.142 73.2253 10.3041V13.7823C73.2253 14.2145 72.875 14.5649 72.4427 14.5649C72.0105 14.5649 71.6601 14.2145 71.6601 13.7823V11.0867H66.4427V26.9128H68.5372C68.9695 26.9128 69.3199 27.2632 69.3199 27.6954C69.3199 28.1277 68.9695 28.478 68.5372 28.478H62.4503C62.0181 28.478 61.6677 28.1277 61.6677 27.6954C61.6677 27.2632 62.0181 26.9128 62.4503 26.9128H64.5297V11.0867H59.3123Z" fill="white"/>
<rect x="94.1826" y="0.73877" width="36.5217" height="36.5217" rx="7.82609" fill="#252547"/>
<g clip-path="url(#clip0_91_5536)">
<path d="M115.004 28.782C114.45 28.7842 113.909 28.6215 113.448 28.3148C112.987 28.0081 112.628 27.5712 112.416 27.0597C112.205 26.5482 112.15 25.9854 112.26 25.4428C112.369 24.9002 112.638 24.4025 113.031 24.013L117.221 19.8146C117.345 19.7116 117.445 19.584 117.517 19.4399C117.588 19.2959 117.629 19.1385 117.636 18.9778C117.643 18.8172 117.617 18.6567 117.559 18.5068C117.501 18.3569 117.412 18.2207 117.298 18.107C117.185 17.9933 117.048 17.9045 116.898 17.8463C116.749 17.7882 116.588 17.7619 116.427 17.7691C116.267 17.7764 116.109 17.817 115.965 17.8885C115.821 17.96 115.694 18.0607 115.591 18.1842L109.998 23.7684C109.467 24.2791 108.758 24.5642 108.021 24.5642C107.284 24.5642 106.576 24.2791 106.044 23.7684C105.523 23.2444 105.23 22.535 105.23 21.7956C105.23 21.0561 105.523 20.3468 106.044 19.8228L113.039 12.8282C113.163 12.7252 113.263 12.5976 113.335 12.4535C113.406 12.3094 113.447 12.1521 113.454 11.9914C113.461 11.8307 113.435 11.6703 113.377 11.5204C113.319 11.3705 113.23 11.2343 113.116 11.1206C113.003 11.0069 112.866 10.9181 112.716 10.8599C112.566 10.8018 112.406 10.7755 112.245 10.7827C112.085 10.79 111.927 10.8306 111.783 10.9021C111.639 10.9735 111.512 11.0742 111.409 11.1978L104.626 17.9396L103.477 16.7983L110.235 10.032C110.767 9.55013 111.464 9.29152 112.182 9.30974C112.9 9.32796 113.583 9.62162 114.09 10.1299C114.598 10.6381 114.89 11.322 114.907 12.0398C114.923 12.7577 114.663 13.4545 114.18 13.9858L107.194 20.9722C106.979 21.189 106.858 21.482 106.858 21.7874C106.858 22.0928 106.979 22.3858 107.194 22.6026C107.414 22.812 107.706 22.9287 108.009 22.9287C108.313 22.9287 108.605 22.812 108.824 22.6026L114.417 17.0103C114.671 16.7295 114.979 16.5033 115.324 16.3454C115.668 16.1874 116.04 16.101 116.419 16.0914C116.797 16.0818 117.174 16.1492 117.526 16.2895C117.877 16.4298 118.197 16.64 118.465 16.9075C118.733 17.175 118.944 17.4941 119.085 17.8455C119.226 18.197 119.294 18.5734 119.285 18.9519C119.276 19.3305 119.191 19.7033 119.034 20.0478C118.876 20.3923 118.651 20.7012 118.371 20.9559L114.172 25.1543C113.987 25.3762 113.892 25.6593 113.905 25.9479C113.918 26.2366 114.038 26.5099 114.243 26.7142C114.447 26.9185 114.72 27.0391 115.009 27.0521C115.298 27.0651 115.581 26.9698 115.803 26.7847L119.422 23.1733L120.596 24.3472L116.977 27.9668C116.718 28.227 116.411 28.4332 116.072 28.5732C115.734 28.7132 115.37 28.7842 115.004 28.782Z" fill="white"/>
</g>
<rect x="141.139" y="0.73877" width="36.5217" height="36.5217" rx="7.82609" fill="#252547"/>
<g clip-path="url(#clip1_91_5536)">
<path fill-rule="evenodd" clip-rule="evenodd" d="M152.878 9.2168C153.596 9.21648 154.303 9.39403 154.936 9.73358C155.569 10.0731 156.107 10.5641 156.504 11.1627C156.901 11.7612 157.143 12.4487 157.209 13.1637C157.276 13.8788 157.164 14.5991 156.884 15.2603L160.329 17.6733L167.379 12.7364C167.613 12.5725 167.877 12.4562 168.156 12.3943C168.434 12.3324 168.722 12.3259 169.004 12.3754C169.285 12.4248 169.554 12.5292 169.794 12.6825C170.035 12.8359 170.244 13.0351 170.407 13.269L162.225 18.9994L170.407 24.7288C170.244 24.9627 170.035 25.162 169.795 25.3155C169.554 25.4689 169.285 25.5734 169.004 25.6229C168.723 25.6725 168.434 25.6662 168.156 25.6043C167.877 25.5425 167.613 25.4263 167.379 25.2624L160.329 20.3266L156.884 22.7396C157.296 23.7141 157.339 24.8055 157.004 25.8093C156.669 26.8131 155.98 27.6604 155.065 28.1923C154.151 28.7243 153.073 28.9045 152.035 28.6991C150.997 28.4937 150.07 27.9169 149.427 27.0766C148.784 26.2364 148.469 25.1904 148.542 24.1348C148.615 23.0792 149.07 22.0864 149.822 21.3424C150.575 20.5984 151.573 20.1543 152.629 20.0934C153.685 20.0325 154.728 20.3588 155.561 21.0114L158.435 18.9994L155.561 16.9864C155.015 17.4138 154.376 17.7048 153.695 17.835C153.015 17.9652 152.313 17.9309 151.649 17.7349C150.984 17.539 150.376 17.1871 149.875 16.7085C149.374 16.2299 148.995 15.6385 148.769 14.9836C148.542 14.3287 148.476 13.6292 148.575 12.9435C148.674 12.2578 148.935 11.6056 149.338 11.0414C149.74 10.4772 150.271 10.0172 150.887 9.69982C151.502 9.38244 152.185 9.21683 152.878 9.2168ZM152.878 22.2603C152.302 22.2603 151.749 22.4893 151.341 22.897C150.933 23.3047 150.704 23.8576 150.704 24.4342C150.704 25.0107 150.933 25.5637 151.341 25.9714C151.749 26.3791 152.302 26.6081 152.878 26.6081C153.455 26.6081 154.008 26.3791 154.415 25.9714C154.823 25.5637 155.052 25.0107 155.052 24.4342C155.052 23.8576 154.823 23.3047 154.415 22.897C154.008 22.4893 153.455 22.2603 152.878 22.2603ZM149.617 17.9125C149.906 17.9125 150.182 18.027 150.386 18.2308C150.59 18.4347 150.704 18.7111 150.704 18.9994C150.704 19.2877 150.59 19.5642 150.386 19.768C150.182 19.9718 149.906 20.0864 149.617 20.0864C149.329 20.0864 149.052 19.9718 148.849 19.768C148.645 19.5642 148.53 19.2877 148.53 18.9994C148.53 18.7111 148.645 18.4347 148.849 18.2308C149.052 18.027 149.329 17.9125 149.617 17.9125ZM153.965 17.9125C154.253 17.9125 154.53 18.027 154.734 18.2308C154.937 18.4347 155.052 18.7111 155.052 18.9994C155.052 19.2877 154.937 19.5642 154.734 19.768C154.53 19.9718 154.253 20.0864 153.965 20.0864C153.677 20.0864 153.4 19.9718 153.196 19.768C152.993 19.5642 152.878 19.2877 152.878 18.9994C152.878 18.7111 152.993 18.4347 153.196 18.2308C153.4 18.027 153.677 17.9125 153.965 17.9125ZM164.835 17.9125C165.123 17.9125 165.399 18.027 165.603 18.2308C165.807 18.4347 165.922 18.7111 165.922 18.9994C165.922 19.2877 165.807 19.5642 165.603 19.768C165.399 19.9718 165.123 20.0864 164.835 20.0864C164.546 20.0864 164.27 19.9718 164.066 19.768C163.862 19.5642 163.748 19.2877 163.748 18.9994C163.748 18.7111 163.862 18.4347 164.066 18.2308C164.27 18.027 164.546 17.9125 164.835 17.9125ZM169.182 17.9125C169.471 17.9125 169.747 18.027 169.951 18.2308C170.155 18.4347 170.269 18.7111 170.269 18.9994C170.269 19.2877 170.155 19.5642 169.951 19.768C169.747 19.9718 169.471 20.0864 169.182 20.0864C168.894 20.0864 168.618 19.9718 168.414 19.768C168.21 19.5642 168.095 19.2877 168.095 18.9994C168.095 18.7111 168.21 18.4347 168.414 18.2308C168.618 18.027 168.894 17.9125 169.182 17.9125ZM152.878 11.3907C152.593 11.3907 152.31 11.4469 152.046 11.5562C151.782 11.6654 151.543 11.8256 151.341 12.0274C151.139 12.2293 150.979 12.469 150.87 12.7327C150.76 12.9965 150.704 13.2791 150.704 13.5646C150.704 13.8501 150.76 14.1328 150.87 14.3965C150.979 14.6603 151.139 14.8999 151.341 15.1018C151.543 15.3037 151.782 15.4638 152.046 15.5731C152.31 15.6823 152.593 15.7385 152.878 15.7385C153.455 15.7385 154.008 15.5095 154.415 15.1018C154.823 14.6941 155.052 14.1412 155.052 13.5646C155.052 12.9881 154.823 12.4351 154.415 12.0274C154.008 11.6197 153.455 11.3907 152.878 11.3907Z" fill="white"/>
</g>
<rect x="188.096" y="0.73877" width="36.5217" height="36.5217" rx="7.82609" fill="#252547"/>
<path fill-rule="evenodd" clip-rule="evenodd" d="M211.791 7.58667C211.791 9.68771 210.088 11.3909 207.987 11.3909V13.5648C210.088 13.5648 211.791 15.2681 211.791 17.3692L212.878 17.3693H213.965C213.965 15.2682 215.668 13.5648 217.769 13.5648L217.769 11.3909C215.669 11.3909 213.965 9.68771 213.965 7.58667H211.791ZM200.922 12.478V25.5215H203.095V12.478H200.922ZM205.269 15.7388V29.8693H207.443V15.7388H205.269ZM196.574 16.8258V21.1736H198.748V16.8258H196.574ZM209.617 19.5432V25.5215H211.791V19.5432H209.617ZM213.965 19.5432V21.1736H216.139V19.5432H213.965Z" fill="white"/>
<rect x="235.052" y="0.73877" width="36.5217" height="36.5217" rx="7.82609" fill="#252547"/>
<g clip-path="url(#clip2_91_5536)">
<path d="M264.248 25.5208L250.052 11.3245C249.741 11.028 249.329 10.8625 248.899 10.8625C248.47 10.8625 248.057 11.028 247.746 11.3245L245.638 13.4327C245.333 13.7386 245.162 14.1532 245.162 14.5854C245.162 15.0176 245.333 15.4322 245.638 15.7382L259.834 29.9345C260.14 30.2397 260.554 30.4111 260.987 30.4111C261.419 30.4111 261.833 30.2397 262.139 29.9345L264.248 27.8259C264.4 27.6745 264.52 27.4948 264.602 27.297C264.684 27.0992 264.726 26.8872 264.726 26.6731C264.726 26.459 264.684 26.247 264.602 26.0492C264.52 25.8514 264.4 25.6721 264.248 25.5208ZM246.791 14.5854L248.899 12.4773L252.975 16.5534L250.867 18.6623L246.791 14.5862L246.791 14.5854ZM260.987 28.7817L252.019 19.8151L254.128 17.7062L263.095 26.6736L260.987 28.7817Z" fill="white"/>
<path d="M241.9 18.9995L243.53 17.3691L245.161 18.9995L243.53 20.6299L241.9 18.9995Z" fill="white"/>
<path d="M251.683 9.2168L253.313 7.58638L254.943 9.2168L253.313 10.8472L251.683 9.2168Z" fill="white"/>
<path d="M241.9 9.2168L243.53 7.58638L245.161 9.2168L243.53 10.8472L241.9 9.2168Z" fill="white"/>
</g>
<defs>
<clipPath id="clip0_91_5536">
<rect width="26.087" height="26.087" fill="white" transform="translate(99.4004 5.95605)"/>
</clipPath>
<clipPath id="clip1_91_5536">
<rect width="26.087" height="26.087" fill="white" transform="translate(146.356 5.95605)"/>
</clipPath>
<clipPath id="clip2_91_5536">
<rect width="26.087" height="26.087" fill="white" transform="translate(240.27 5.95605)"/>
</clipPath>
</defs>
</svg>
