<svg width="56" height="56" viewBox="0 0 56 56" fill="none" xmlns="http://www.w3.org/2000/svg">
<g clip-path="url(#clip0_91_5725)">
<rect width="56" height="56" rx="11.2" fill="white"/>
<rect width="56" height="56" rx="9.8" fill="url(#paint0_linear_91_5725)"/>
<rect x="0.7" y="0.7" width="54.6" height="54.6" rx="9.1" stroke="url(#paint1_linear_91_5725)" stroke-opacity="0.4" stroke-width="1.4"/>
<g style="mix-blend-mode:plus-lighter" clip-path="url(#clip1_91_5725)">
<path d="M27.9985 45.5C37.6638 45.5 45.4985 37.6652 45.4985 28V15.75C45.4985 14.3576 44.9454 13.0223 43.9608 12.0377C42.9763 11.0531 41.6409 10.5 40.2485 10.5H28.8735V18.1772C28.8735 19.929 28.9803 21.7437 29.899 23.2347C30.5568 24.3033 31.4366 25.2179 32.479 25.9164C33.5213 26.615 34.7017 27.0812 35.94 27.2834L36.2751 27.3376C36.4133 27.3848 36.5332 27.4741 36.6182 27.5929C36.7031 27.7116 36.7487 27.854 36.7487 28C36.7487 28.146 36.7031 28.2884 36.6182 28.4071C36.5332 28.5259 36.4133 28.6152 36.2751 28.6624L35.94 28.7166C34.1307 29.0122 32.4599 29.8686 31.1635 31.165C29.8671 32.4613 29.0107 34.1321 28.7152 35.9415L28.6609 36.2766C28.6137 36.4148 28.5244 36.5347 28.4057 36.6196C28.2869 36.7046 28.1445 36.7502 27.9985 36.7502C27.8525 36.7502 27.7102 36.7046 27.5914 36.6196C27.4726 36.5347 27.3834 36.4148 27.3362 36.2766L27.2819 35.9415C27.0797 34.7032 26.6135 33.5228 25.9149 32.4805C25.2164 31.4382 24.3018 30.5583 23.2333 29.9005C21.7423 28.9818 19.9275 28.875 18.1758 28.875H10.5195C10.9772 38.1334 18.6273 45.5 27.9985 45.5Z" fill="white"/>
<path d="M10.5 27.125H18.1773C19.929 27.125 21.7438 27.0183 23.2348 26.0995C24.4003 25.3814 25.3814 24.4003 26.0995 23.2348C27.0183 21.7438 27.125 19.929 27.125 18.1773V10.5H15.75C14.3576 10.5 13.0223 11.0531 12.0377 12.0377C11.0531 13.0223 10.5 14.3576 10.5 15.75V27.125Z" fill="white"/>
</g>
</g>
<defs>
<linearGradient id="paint0_linear_91_5725" x1="0" y1="0" x2="61.831" y2="7.42171" gradientUnits="userSpaceOnUse">
<stop stop-color="#F0A9D3"/>
<stop offset="0.504808" stop-color="#F9DEE3"/>
<stop offset="1" stop-color="#9691F2"/>
</linearGradient>
<linearGradient id="paint1_linear_91_5725" x1="28" y1="0" x2="28" y2="56" gradientUnits="userSpaceOnUse">
<stop stop-color="white"/>
<stop offset="1" stop-color="white" stop-opacity="0.2"/>
</linearGradient>
<clipPath id="clip0_91_5725">
<rect width="56" height="56" rx="11.2" fill="white"/>
</clipPath>
<clipPath id="clip1_91_5725">
<rect width="35" height="35" fill="white" transform="translate(10.5 10.5)"/>
</clipPath>
</defs>
</svg>
