<svg width="1284" height="644" viewBox="0 0 1284 644" fill="none" xmlns="http://www.w3.org/2000/svg">
<rect x="120.5" y="0.5" width="1043" height="643" rx="23.5" fill="url(#paint0_linear_4021_328)" stroke="url(#paint1_linear_4021_328)"/>
<line x1="1164" y1="203.5" x2="1284" y2="203.5" stroke="url(#paint2_linear_4021_328)"/>
<line x1="1164" y1="243.5" x2="1284" y2="243.5" stroke="url(#paint3_linear_4021_328)"/>
<line x1="1164" y1="283.5" x2="1284" y2="283.5" stroke="url(#paint4_linear_4021_328)"/>
<line x1="1164" y1="323.5" x2="1284" y2="323.5" stroke="url(#paint5_linear_4021_328)"/>
<line x1="1164" y1="363.5" x2="1284" y2="363.5" stroke="url(#paint6_linear_4021_328)"/>
<line x1="1164" y1="403.5" x2="1284" y2="403.5" stroke="url(#paint7_linear_4021_328)"/>
<line x1="1164" y1="443.5" x2="1284" y2="443.5" stroke="url(#paint8_linear_4021_328)"/>
<line x1="1164" y1="483.5" x2="1284" y2="483.5" stroke="url(#paint9_linear_4021_328)"/>
<line x1="1164" y1="523.5" x2="1284" y2="523.5" stroke="url(#paint10_linear_4021_328)"/>
<line x1="1164" y1="563.5" x2="1284" y2="563.5" stroke="url(#paint11_linear_4021_328)"/>
<line x1="1164" y1="603.5" x2="1284" y2="603.5" stroke="url(#paint12_linear_4021_328)"/>
<line y1="-0.5" x2="120" y2="-0.5" transform="matrix(-1 0 0 1 120 204)" stroke="url(#paint13_linear_4021_328)"/>
<line y1="-0.5" x2="120" y2="-0.5" transform="matrix(-1 0 0 1 120 244)" stroke="url(#paint14_linear_4021_328)"/>
<line y1="-0.5" x2="120" y2="-0.5" transform="matrix(-1 0 0 1 120 284)" stroke="url(#paint15_linear_4021_328)"/>
<line y1="-0.5" x2="120" y2="-0.5" transform="matrix(-1 0 0 1 120 324)" stroke="url(#paint16_linear_4021_328)"/>
<line y1="-0.5" x2="120" y2="-0.5" transform="matrix(-1 0 0 1 120 364)" stroke="url(#paint17_linear_4021_328)"/>
<line y1="-0.5" x2="120" y2="-0.5" transform="matrix(-1 0 0 1 120 404)" stroke="url(#paint18_linear_4021_328)"/>
<line y1="-0.5" x2="120" y2="-0.5" transform="matrix(-1 0 0 1 120 444)" stroke="url(#paint19_linear_4021_328)"/>
<line y1="-0.5" x2="120" y2="-0.5" transform="matrix(-1 0 0 1 120 484)" stroke="url(#paint20_linear_4021_328)"/>
<line y1="-0.5" x2="120" y2="-0.5" transform="matrix(-1 0 0 1 120 524)" stroke="url(#paint21_linear_4021_328)"/>
<line y1="-0.5" x2="120" y2="-0.5" transform="matrix(-1 0 0 1 120 564)" stroke="url(#paint22_linear_4021_328)"/>
<line y1="-0.5" x2="120" y2="-0.5" transform="matrix(-1 0 0 1 120 604)" stroke="url(#paint23_linear_4021_328)"/>
<defs>
<linearGradient id="paint0_linear_4021_328" x1="642" y1="0" x2="642" y2="644" gradientUnits="userSpaceOnUse">
<stop stop-color="#05060E" stop-opacity="0.2"/>
<stop offset="1" stop-color="#05060E"/>
</linearGradient>
<linearGradient id="paint1_linear_4021_328" x1="642" y1="0" x2="642" y2="322" gradientUnits="userSpaceOnUse">
<stop stop-color="#444362" stop-opacity="0"/>
<stop offset="1" stop-color="#444362" stop-opacity="0.52"/>
</linearGradient>
<linearGradient id="paint2_linear_4021_328" x1="1164" y1="204.5" x2="1284" y2="204.5" gradientUnits="userSpaceOnUse">
<stop stop-color="#252539" stop-opacity="0.56"/>
<stop offset="1" stop-color="#252539" stop-opacity="0"/>
</linearGradient>
<linearGradient id="paint3_linear_4021_328" x1="1164" y1="244.5" x2="1284" y2="244.5" gradientUnits="userSpaceOnUse">
<stop stop-color="#252539" stop-opacity="0.64"/>
<stop offset="1" stop-color="#252539" stop-opacity="0"/>
</linearGradient>
<linearGradient id="paint4_linear_4021_328" x1="1164" y1="284.5" x2="1284" y2="284.5" gradientUnits="userSpaceOnUse">
<stop stop-color="#252539" stop-opacity="0.72"/>
<stop offset="1" stop-color="#252539" stop-opacity="0"/>
</linearGradient>
<linearGradient id="paint5_linear_4021_328" x1="1164" y1="324.5" x2="1284" y2="324.5" gradientUnits="userSpaceOnUse">
<stop stop-color="#252539" stop-opacity="0.8"/>
<stop offset="1" stop-color="#252539" stop-opacity="0"/>
</linearGradient>
<linearGradient id="paint6_linear_4021_328" x1="1164" y1="364.5" x2="1284" y2="364.5" gradientUnits="userSpaceOnUse">
<stop stop-color="#252539"/>
<stop offset="1" stop-color="#252539" stop-opacity="0"/>
</linearGradient>
<linearGradient id="paint7_linear_4021_328" x1="1164" y1="404.5" x2="1284" y2="404.5" gradientUnits="userSpaceOnUse">
<stop stop-color="#252539"/>
<stop offset="1" stop-color="#252539" stop-opacity="0"/>
</linearGradient>
<linearGradient id="paint8_linear_4021_328" x1="1164" y1="444.5" x2="1284" y2="444.5" gradientUnits="userSpaceOnUse">
<stop stop-color="#252539"/>
<stop offset="1" stop-color="#252539" stop-opacity="0"/>
</linearGradient>
<linearGradient id="paint9_linear_4021_328" x1="1164" y1="484.5" x2="1284" y2="484.5" gradientUnits="userSpaceOnUse">
<stop stop-color="#252539"/>
<stop offset="1" stop-color="#252539" stop-opacity="0"/>
</linearGradient>
<linearGradient id="paint10_linear_4021_328" x1="1164" y1="524.5" x2="1284" y2="524.5" gradientUnits="userSpaceOnUse">
<stop stop-color="#252539"/>
<stop offset="1" stop-color="#252539" stop-opacity="0"/>
</linearGradient>
<linearGradient id="paint11_linear_4021_328" x1="1164" y1="564.5" x2="1284" y2="564.5" gradientUnits="userSpaceOnUse">
<stop stop-color="#252539"/>
<stop offset="1" stop-color="#252539" stop-opacity="0"/>
</linearGradient>
<linearGradient id="paint12_linear_4021_328" x1="1164" y1="604.5" x2="1284" y2="604.5" gradientUnits="userSpaceOnUse">
<stop stop-color="#252539"/>
<stop offset="1" stop-color="#252539" stop-opacity="0"/>
</linearGradient>
<linearGradient id="paint13_linear_4021_328" x1="0" y1="0.5" x2="120" y2="0.5" gradientUnits="userSpaceOnUse">
<stop stop-color="#252539" stop-opacity="0.56"/>
<stop offset="1" stop-color="#252539" stop-opacity="0"/>
</linearGradient>
<linearGradient id="paint14_linear_4021_328" x1="0" y1="0.5" x2="120" y2="0.5" gradientUnits="userSpaceOnUse">
<stop stop-color="#252539" stop-opacity="0.64"/>
<stop offset="1" stop-color="#252539" stop-opacity="0"/>
</linearGradient>
<linearGradient id="paint15_linear_4021_328" x1="0" y1="0.5" x2="120" y2="0.5" gradientUnits="userSpaceOnUse">
<stop stop-color="#252539" stop-opacity="0.72"/>
<stop offset="1" stop-color="#252539" stop-opacity="0"/>
</linearGradient>
<linearGradient id="paint16_linear_4021_328" x1="0" y1="0.5" x2="120" y2="0.5" gradientUnits="userSpaceOnUse">
<stop stop-color="#252539" stop-opacity="0.8"/>
<stop offset="1" stop-color="#252539" stop-opacity="0"/>
</linearGradient>
<linearGradient id="paint17_linear_4021_328" x1="0" y1="0.5" x2="120" y2="0.5" gradientUnits="userSpaceOnUse">
<stop stop-color="#252539"/>
<stop offset="1" stop-color="#252539" stop-opacity="0"/>
</linearGradient>
<linearGradient id="paint18_linear_4021_328" x1="0" y1="0.5" x2="120" y2="0.5" gradientUnits="userSpaceOnUse">
<stop stop-color="#252539"/>
<stop offset="1" stop-color="#252539" stop-opacity="0"/>
</linearGradient>
<linearGradient id="paint19_linear_4021_328" x1="0" y1="0.5" x2="120" y2="0.5" gradientUnits="userSpaceOnUse">
<stop stop-color="#252539"/>
<stop offset="1" stop-color="#252539" stop-opacity="0"/>
</linearGradient>
<linearGradient id="paint20_linear_4021_328" x1="0" y1="0.5" x2="120" y2="0.5" gradientUnits="userSpaceOnUse">
<stop stop-color="#252539"/>
<stop offset="1" stop-color="#252539" stop-opacity="0"/>
</linearGradient>
<linearGradient id="paint21_linear_4021_328" x1="0" y1="0.5" x2="120" y2="0.5" gradientUnits="userSpaceOnUse">
<stop stop-color="#252539"/>
<stop offset="1" stop-color="#252539" stop-opacity="0"/>
</linearGradient>
<linearGradient id="paint22_linear_4021_328" x1="0" y1="0.5" x2="120" y2="0.5" gradientUnits="userSpaceOnUse">
<stop stop-color="#252539"/>
<stop offset="1" stop-color="#252539" stop-opacity="0"/>
</linearGradient>
<linearGradient id="paint23_linear_4021_328" x1="0" y1="0.5" x2="120" y2="0.5" gradientUnits="userSpaceOnUse">
<stop stop-color="#252539"/>
<stop offset="1" stop-color="#252539" stop-opacity="0"/>
</linearGradient>
</defs>
</svg>
