<svg width="42" height="42" viewBox="0 0 42 42" fill="none" xmlns="http://www.w3.org/2000/svg">
<g clip-path="url(#clip0_91_5596)">
<rect x="1" y="1" width="40" height="40" rx="6" fill="#1B1A23"/>
<path d="M34.5 35V41" stroke="#272937"/>
<path d="M34.5 1V7" stroke="#272937"/>
<path d="M7.5 35V41" stroke="#272937"/>
<path d="M7.5 1V7" stroke="#272937"/>
<path d="M1 7.5H7" stroke="#272937"/>
<path d="M1 34.5H7" stroke="#272937"/>
<path d="M35 7.5H41" stroke="#272937"/>
<path d="M35 34.5H41" stroke="#272937"/>
<rect x="7.5" y="7.5" width="27" height="27" stroke="#7E96C8" stroke-opacity="0.12"/>
<g style="mix-blend-mode:plus-lighter" opacity="0.32" clip-path="url(#clip1_91_5596)" filter="url(#filter0_f_91_5596)">
<path d="M34.5002 5.83325L34.7171 6.70092C34.7594 6.87023 34.7806 6.95488 34.8246 7.02377C34.8636 7.0847 34.9154 7.13644 34.9763 7.17543C35.0452 7.21951 35.1299 7.24067 35.2992 7.283L36.1668 7.49992L35.2992 7.71683C35.1299 7.75916 35.0452 7.78033 34.9763 7.8244C34.9154 7.86339 34.8636 7.91514 34.8246 7.97607C34.7806 8.04496 34.7594 8.12961 34.7171 8.29892L34.5002 9.16659L34.2832 8.29892C34.2409 8.12961 34.2198 8.04496 34.1757 7.97607C34.1367 7.91514 34.0849 7.86339 34.024 7.8244C33.9551 7.78033 33.8705 7.75916 33.7012 7.71683L32.8335 7.49992L33.7012 7.283C33.8705 7.24067 33.9551 7.21951 34.024 7.17543C34.0849 7.13644 34.1367 7.0847 34.1757 7.02377C34.2198 6.95488 34.2409 6.87023 34.2832 6.70092L34.5002 5.83325Z" fill="#C9D3E8"/>
<path d="M34.5002 5.83325L34.7171 6.70092C34.7594 6.87023 34.7806 6.95488 34.8246 7.02377C34.8636 7.0847 34.9154 7.13644 34.9763 7.17543C35.0452 7.21951 35.1299 7.24067 35.2992 7.283L36.1668 7.49992L35.2992 7.71683C35.1299 7.75916 35.0452 7.78033 34.9763 7.8244C34.9154 7.86339 34.8636 7.91514 34.8246 7.97607C34.7806 8.04496 34.7594 8.12961 34.7171 8.29892L34.5002 9.16659L34.2832 8.29892C34.2409 8.12961 34.2198 8.04496 34.1757 7.97607C34.1367 7.91514 34.0849 7.86339 34.024 7.8244C33.9551 7.78033 33.8705 7.75916 33.7012 7.71683L32.8335 7.49992L33.7012 7.283C33.8705 7.24067 33.9551 7.21951 34.024 7.17543C34.0849 7.13644 34.1367 7.0847 34.1757 7.02377C34.2198 6.95488 34.2409 6.87023 34.2832 6.70092L34.5002 5.83325Z" fill="#C9D3E8"/>
<path d="M34.5002 5.83325L34.7171 6.70092C34.7594 6.87023 34.7806 6.95488 34.8246 7.02377C34.8636 7.0847 34.9154 7.13644 34.9763 7.17543C35.0452 7.21951 35.1299 7.24067 35.2992 7.283L36.1668 7.49992L35.2992 7.71683C35.1299 7.75916 35.0452 7.78033 34.9763 7.8244C34.9154 7.86339 34.8636 7.91514 34.8246 7.97607C34.7806 8.04496 34.7594 8.12961 34.7171 8.29892L34.5002 9.16659L34.2832 8.29892C34.2409 8.12961 34.2198 8.04496 34.1757 7.97607C34.1367 7.91514 34.0849 7.86339 34.024 7.8244C33.9551 7.78033 33.8705 7.75916 33.7012 7.71683L32.8335 7.49992L33.7012 7.283C33.8705 7.24067 33.9551 7.21951 34.024 7.17543C34.0849 7.13644 34.1367 7.0847 34.1757 7.02377C34.2198 6.95488 34.2409 6.87023 34.2832 6.70092L34.5002 5.83325Z" stroke="#C9D3E8" stroke-width="0.333333" stroke-linecap="round" stroke-linejoin="round"/>
<path d="M34.5002 5.83325L34.7171 6.70092C34.7594 6.87023 34.7806 6.95488 34.8246 7.02377C34.8636 7.0847 34.9154 7.13644 34.9763 7.17543C35.0452 7.21951 35.1299 7.24067 35.2992 7.283L36.1668 7.49992L35.2992 7.71683C35.1299 7.75916 35.0452 7.78033 34.9763 7.8244C34.9154 7.86339 34.8636 7.91514 34.8246 7.97607C34.7806 8.04496 34.7594 8.12961 34.7171 8.29892L34.5002 9.16659L34.2832 8.29892C34.2409 8.12961 34.2198 8.04496 34.1757 7.97607C34.1367 7.91514 34.0849 7.86339 34.024 7.8244C33.9551 7.78033 33.8705 7.75916 33.7012 7.71683L32.8335 7.49992L33.7012 7.283C33.8705 7.24067 33.9551 7.21951 34.024 7.17543C34.0849 7.13644 34.1367 7.0847 34.1757 7.02377C34.2198 6.95488 34.2409 6.87023 34.2832 6.70092L34.5002 5.83325Z" stroke="#C9D3E8" stroke-width="0.333333" stroke-linecap="round" stroke-linejoin="round"/>
</g>
<g style="mix-blend-mode:plus-lighter" opacity="0.32" clip-path="url(#clip2_91_5596)" filter="url(#filter1_f_91_5596)">
<path d="M34.5002 32.8333L34.7171 33.7009C34.7594 33.8702 34.7806 33.9549 34.8246 34.0238C34.8636 34.0847 34.9154 34.1364 34.9763 34.1754C35.0452 34.2195 35.1299 34.2407 35.2992 34.283L36.1668 34.4999L35.2992 34.7168C35.1299 34.7592 35.0452 34.7803 34.9763 34.8244C34.9154 34.8634 34.8636 34.9151 34.8246 34.9761C34.7806 35.045 34.7594 35.1296 34.7171 35.2989L34.5002 36.1666L34.2832 35.2989C34.2409 35.1296 34.2198 35.045 34.1757 34.9761C34.1367 34.9151 34.0849 34.8634 34.024 34.8244C33.9551 34.7803 33.8705 34.7592 33.7012 34.7168L32.8335 34.4999L33.7012 34.283C33.8705 34.2407 33.9551 34.2195 34.024 34.1754C34.0849 34.1364 34.1367 34.0847 34.1757 34.0238C34.2198 33.9549 34.2409 33.8702 34.2832 33.7009L34.5002 32.8333Z" fill="#C9D3E8"/>
<path d="M34.5002 32.8333L34.7171 33.7009C34.7594 33.8702 34.7806 33.9549 34.8246 34.0238C34.8636 34.0847 34.9154 34.1364 34.9763 34.1754C35.0452 34.2195 35.1299 34.2407 35.2992 34.283L36.1668 34.4999L35.2992 34.7168C35.1299 34.7592 35.0452 34.7803 34.9763 34.8244C34.9154 34.8634 34.8636 34.9151 34.8246 34.9761C34.7806 35.045 34.7594 35.1296 34.7171 35.2989L34.5002 36.1666L34.2832 35.2989C34.2409 35.1296 34.2198 35.045 34.1757 34.9761C34.1367 34.9151 34.0849 34.8634 34.024 34.8244C33.9551 34.7803 33.8705 34.7592 33.7012 34.7168L32.8335 34.4999L33.7012 34.283C33.8705 34.2407 33.9551 34.2195 34.024 34.1754C34.0849 34.1364 34.1367 34.0847 34.1757 34.0238C34.2198 33.9549 34.2409 33.8702 34.2832 33.7009L34.5002 32.8333Z" fill="#C9D3E8"/>
<path d="M34.5002 32.8333L34.7171 33.7009C34.7594 33.8702 34.7806 33.9549 34.8246 34.0238C34.8636 34.0847 34.9154 34.1364 34.9763 34.1754C35.0452 34.2195 35.1299 34.2407 35.2992 34.283L36.1668 34.4999L35.2992 34.7168C35.1299 34.7592 35.0452 34.7803 34.9763 34.8244C34.9154 34.8634 34.8636 34.9151 34.8246 34.9761C34.7806 35.045 34.7594 35.1296 34.7171 35.2989L34.5002 36.1666L34.2832 35.2989C34.2409 35.1296 34.2198 35.045 34.1757 34.9761C34.1367 34.9151 34.0849 34.8634 34.024 34.8244C33.9551 34.7803 33.8705 34.7592 33.7012 34.7168L32.8335 34.4999L33.7012 34.283C33.8705 34.2407 33.9551 34.2195 34.024 34.1754C34.0849 34.1364 34.1367 34.0847 34.1757 34.0238C34.2198 33.9549 34.2409 33.8702 34.2832 33.7009L34.5002 32.8333Z" stroke="#C9D3E8" stroke-width="0.333333" stroke-linecap="round" stroke-linejoin="round"/>
<path d="M34.5002 32.8333L34.7171 33.7009C34.7594 33.8702 34.7806 33.9549 34.8246 34.0238C34.8636 34.0847 34.9154 34.1364 34.9763 34.1754C35.0452 34.2195 35.1299 34.2407 35.2992 34.283L36.1668 34.4999L35.2992 34.7168C35.1299 34.7592 35.0452 34.7803 34.9763 34.8244C34.9154 34.8634 34.8636 34.9151 34.8246 34.9761C34.7806 35.045 34.7594 35.1296 34.7171 35.2989L34.5002 36.1666L34.2832 35.2989C34.2409 35.1296 34.2198 35.045 34.1757 34.9761C34.1367 34.9151 34.0849 34.8634 34.024 34.8244C33.9551 34.7803 33.8705 34.7592 33.7012 34.7168L32.8335 34.4999L33.7012 34.283C33.8705 34.2407 33.9551 34.2195 34.024 34.1754C34.0849 34.1364 34.1367 34.0847 34.1757 34.0238C34.2198 33.9549 34.2409 33.8702 34.2832 33.7009L34.5002 32.8333Z" stroke="#C9D3E8" stroke-width="0.333333" stroke-linecap="round" stroke-linejoin="round"/>
</g>
<g style="mix-blend-mode:plus-lighter" opacity="0.32" clip-path="url(#clip3_91_5596)" filter="url(#filter2_f_91_5596)">
<path d="M7.50016 5.83325L7.71708 6.70092C7.75941 6.87023 7.78057 6.95488 7.82465 7.02377C7.86364 7.0847 7.91538 7.13644 7.97631 7.17543C8.0452 7.21951 8.12985 7.24067 8.29916 7.283L9.16683 7.49992L8.29916 7.71683C8.12985 7.75916 8.0452 7.78033 7.97631 7.8244C7.91538 7.86339 7.86364 7.91514 7.82465 7.97607C7.78057 8.04496 7.75941 8.12961 7.71708 8.29892L7.50016 9.16659L7.28325 8.29892C7.24092 8.12961 7.21976 8.04496 7.17568 7.97607C7.13669 7.91514 7.08494 7.86339 7.02401 7.8244C6.95513 7.78033 6.87047 7.75916 6.70116 7.71683L5.8335 7.49992L6.70116 7.283C6.87047 7.24067 6.95513 7.21951 7.02401 7.17543C7.08494 7.13644 7.13669 7.0847 7.17568 7.02377C7.21976 6.95488 7.24092 6.87023 7.28325 6.70092L7.50016 5.83325Z" fill="#C9D3E8"/>
<path d="M7.50016 5.83325L7.71708 6.70092C7.75941 6.87023 7.78057 6.95488 7.82465 7.02377C7.86364 7.0847 7.91538 7.13644 7.97631 7.17543C8.0452 7.21951 8.12985 7.24067 8.29916 7.283L9.16683 7.49992L8.29916 7.71683C8.12985 7.75916 8.0452 7.78033 7.97631 7.8244C7.91538 7.86339 7.86364 7.91514 7.82465 7.97607C7.78057 8.04496 7.75941 8.12961 7.71708 8.29892L7.50016 9.16659L7.28325 8.29892C7.24092 8.12961 7.21976 8.04496 7.17568 7.97607C7.13669 7.91514 7.08494 7.86339 7.02401 7.8244C6.95513 7.78033 6.87047 7.75916 6.70116 7.71683L5.8335 7.49992L6.70116 7.283C6.87047 7.24067 6.95513 7.21951 7.02401 7.17543C7.08494 7.13644 7.13669 7.0847 7.17568 7.02377C7.21976 6.95488 7.24092 6.87023 7.28325 6.70092L7.50016 5.83325Z" fill="#C9D3E8"/>
<path d="M7.50016 5.83325L7.71708 6.70092C7.75941 6.87023 7.78057 6.95488 7.82465 7.02377C7.86364 7.0847 7.91538 7.13644 7.97631 7.17543C8.0452 7.21951 8.12985 7.24067 8.29916 7.283L9.16683 7.49992L8.29916 7.71683C8.12985 7.75916 8.0452 7.78033 7.97631 7.8244C7.91538 7.86339 7.86364 7.91514 7.82465 7.97607C7.78057 8.04496 7.75941 8.12961 7.71708 8.29892L7.50016 9.16659L7.28325 8.29892C7.24092 8.12961 7.21976 8.04496 7.17568 7.97607C7.13669 7.91514 7.08494 7.86339 7.02401 7.8244C6.95513 7.78033 6.87047 7.75916 6.70116 7.71683L5.8335 7.49992L6.70116 7.283C6.87047 7.24067 6.95513 7.21951 7.02401 7.17543C7.08494 7.13644 7.13669 7.0847 7.17568 7.02377C7.21976 6.95488 7.24092 6.87023 7.28325 6.70092L7.50016 5.83325Z" stroke="#C9D3E8" stroke-width="0.333333" stroke-linecap="round" stroke-linejoin="round"/>
<path d="M7.50016 5.83325L7.71708 6.70092C7.75941 6.87023 7.78057 6.95488 7.82465 7.02377C7.86364 7.0847 7.91538 7.13644 7.97631 7.17543C8.0452 7.21951 8.12985 7.24067 8.29916 7.283L9.16683 7.49992L8.29916 7.71683C8.12985 7.75916 8.0452 7.78033 7.97631 7.8244C7.91538 7.86339 7.86364 7.91514 7.82465 7.97607C7.78057 8.04496 7.75941 8.12961 7.71708 8.29892L7.50016 9.16659L7.28325 8.29892C7.24092 8.12961 7.21976 8.04496 7.17568 7.97607C7.13669 7.91514 7.08494 7.86339 7.02401 7.8244C6.95513 7.78033 6.87047 7.75916 6.70116 7.71683L5.8335 7.49992L6.70116 7.283C6.87047 7.24067 6.95513 7.21951 7.02401 7.17543C7.08494 7.13644 7.13669 7.0847 7.17568 7.02377C7.21976 6.95488 7.24092 6.87023 7.28325 6.70092L7.50016 5.83325Z" stroke="#C9D3E8" stroke-width="0.333333" stroke-linecap="round" stroke-linejoin="round"/>
</g>
<g style="mix-blend-mode:plus-lighter" opacity="0.32" clip-path="url(#clip4_91_5596)" filter="url(#filter3_f_91_5596)">
<path d="M7.50016 32.8333L7.71708 33.7009C7.75941 33.8702 7.78057 33.9549 7.82465 34.0238C7.86364 34.0847 7.91538 34.1364 7.97631 34.1754C8.0452 34.2195 8.12985 34.2407 8.29916 34.283L9.16683 34.4999L8.29916 34.7168C8.12985 34.7592 8.0452 34.7803 7.97631 34.8244C7.91538 34.8634 7.86364 34.9151 7.82465 34.9761C7.78057 35.045 7.75941 35.1296 7.71708 35.2989L7.50016 36.1666L7.28325 35.2989C7.24092 35.1296 7.21976 35.045 7.17568 34.9761C7.13669 34.9151 7.08494 34.8634 7.02401 34.8244C6.95513 34.7803 6.87047 34.7592 6.70116 34.7168L5.8335 34.4999L6.70116 34.283C6.87047 34.2407 6.95513 34.2195 7.02401 34.1754C7.08494 34.1364 7.13669 34.0847 7.17568 34.0238C7.21976 33.9549 7.24092 33.8702 7.28325 33.7009L7.50016 32.8333Z" fill="#C9D3E8"/>
<path d="M7.50016 32.8333L7.71708 33.7009C7.75941 33.8702 7.78057 33.9549 7.82465 34.0238C7.86364 34.0847 7.91538 34.1364 7.97631 34.1754C8.0452 34.2195 8.12985 34.2407 8.29916 34.283L9.16683 34.4999L8.29916 34.7168C8.12985 34.7592 8.0452 34.7803 7.97631 34.8244C7.91538 34.8634 7.86364 34.9151 7.82465 34.9761C7.78057 35.045 7.75941 35.1296 7.71708 35.2989L7.50016 36.1666L7.28325 35.2989C7.24092 35.1296 7.21976 35.045 7.17568 34.9761C7.13669 34.9151 7.08494 34.8634 7.02401 34.8244C6.95513 34.7803 6.87047 34.7592 6.70116 34.7168L5.8335 34.4999L6.70116 34.283C6.87047 34.2407 6.95513 34.2195 7.02401 34.1754C7.08494 34.1364 7.13669 34.0847 7.17568 34.0238C7.21976 33.9549 7.24092 33.8702 7.28325 33.7009L7.50016 32.8333Z" fill="#C9D3E8"/>
<path d="M7.50016 32.8333L7.71708 33.7009C7.75941 33.8702 7.78057 33.9549 7.82465 34.0238C7.86364 34.0847 7.91538 34.1364 7.97631 34.1754C8.0452 34.2195 8.12985 34.2407 8.29916 34.283L9.16683 34.4999L8.29916 34.7168C8.12985 34.7592 8.0452 34.7803 7.97631 34.8244C7.91538 34.8634 7.86364 34.9151 7.82465 34.9761C7.78057 35.045 7.75941 35.1296 7.71708 35.2989L7.50016 36.1666L7.28325 35.2989C7.24092 35.1296 7.21976 35.045 7.17568 34.9761C7.13669 34.9151 7.08494 34.8634 7.02401 34.8244C6.95513 34.7803 6.87047 34.7592 6.70116 34.7168L5.8335 34.4999L6.70116 34.283C6.87047 34.2407 6.95513 34.2195 7.02401 34.1754C7.08494 34.1364 7.13669 34.0847 7.17568 34.0238C7.21976 33.9549 7.24092 33.8702 7.28325 33.7009L7.50016 32.8333Z" stroke="#C9D3E8" stroke-width="0.333333" stroke-linecap="round" stroke-linejoin="round"/>
<path d="M7.50016 32.8333L7.71708 33.7009C7.75941 33.8702 7.78057 33.9549 7.82465 34.0238C7.86364 34.0847 7.91538 34.1364 7.97631 34.1754C8.0452 34.2195 8.12985 34.2407 8.29916 34.283L9.16683 34.4999L8.29916 34.7168C8.12985 34.7592 8.0452 34.7803 7.97631 34.8244C7.91538 34.8634 7.86364 34.9151 7.82465 34.9761C7.78057 35.045 7.75941 35.1296 7.71708 35.2989L7.50016 36.1666L7.28325 35.2989C7.24092 35.1296 7.21976 35.045 7.17568 34.9761C7.13669 34.9151 7.08494 34.8634 7.02401 34.8244C6.95513 34.7803 6.87047 34.7592 6.70116 34.7168L5.8335 34.4999L6.70116 34.283C6.87047 34.2407 6.95513 34.2195 7.02401 34.1754C7.08494 34.1364 7.13669 34.0847 7.17568 34.0238C7.21976 33.9549 7.24092 33.8702 7.28325 33.7009L7.50016 32.8333Z" stroke="#C9D3E8" stroke-width="0.333333" stroke-linecap="round" stroke-linejoin="round"/>
</g>
<path d="M28.0443 21.7444C27.8128 23.9193 26.5805 25.9574 24.5413 27.1347C21.1534 29.0907 16.8213 27.9299 14.8653 24.542L14.657 24.1812M13.9553 20.256C14.1868 18.0811 15.4191 16.043 17.4583 14.8657C20.8462 12.9097 25.1783 14.0705 27.1343 17.4584L27.3426 17.8192M13.9111 26.0552L14.5212 23.7785L16.7979 24.3886M25.2022 17.6119L27.4789 18.2219L28.0889 15.9452" stroke="#C9D3E8" stroke-width="1.66667" stroke-linecap="round" stroke-linejoin="round"/>
</g>
<rect x="0.5" y="0.5" width="41" height="41" rx="6.5" stroke="url(#paint0_linear_91_5596)"/>
<defs>
<filter id="filter0_f_91_5596" x="31.7" y="4.7" width="5.6" height="5.6" filterUnits="userSpaceOnUse" color-interpolation-filters="sRGB">
<feFlood flood-opacity="0" result="BackgroundImageFix"/>
<feBlend mode="normal" in="SourceGraphic" in2="BackgroundImageFix" result="shape"/>
<feGaussianBlur stdDeviation="0.4" result="effect1_foregroundBlur_91_5596"/>
</filter>
<filter id="filter1_f_91_5596" x="31.7" y="31.7" width="5.6" height="5.6" filterUnits="userSpaceOnUse" color-interpolation-filters="sRGB">
<feFlood flood-opacity="0" result="BackgroundImageFix"/>
<feBlend mode="normal" in="SourceGraphic" in2="BackgroundImageFix" result="shape"/>
<feGaussianBlur stdDeviation="0.4" result="effect1_foregroundBlur_91_5596"/>
</filter>
<filter id="filter2_f_91_5596" x="4.7" y="4.7" width="5.6" height="5.6" filterUnits="userSpaceOnUse" color-interpolation-filters="sRGB">
<feFlood flood-opacity="0" result="BackgroundImageFix"/>
<feBlend mode="normal" in="SourceGraphic" in2="BackgroundImageFix" result="shape"/>
<feGaussianBlur stdDeviation="0.4" result="effect1_foregroundBlur_91_5596"/>
</filter>
<filter id="filter3_f_91_5596" x="4.7" y="31.7" width="5.6" height="5.6" filterUnits="userSpaceOnUse" color-interpolation-filters="sRGB">
<feFlood flood-opacity="0" result="BackgroundImageFix"/>
<feBlend mode="normal" in="SourceGraphic" in2="BackgroundImageFix" result="shape"/>
<feGaussianBlur stdDeviation="0.4" result="effect1_foregroundBlur_91_5596"/>
</filter>
<linearGradient id="paint0_linear_91_5596" x1="21" y1="1" x2="21" y2="41" gradientUnits="userSpaceOnUse">
<stop stop-color="#7E96C8" stop-opacity="0.24"/>
<stop offset="1" stop-color="#7E96C8" stop-opacity="0"/>
</linearGradient>
<clipPath id="clip0_91_5596">
<rect x="1" y="1" width="40" height="40" rx="6" fill="white"/>
</clipPath>
<clipPath id="clip1_91_5596">
<rect width="4" height="4" fill="white" transform="translate(32.5 5.5)"/>
</clipPath>
<clipPath id="clip2_91_5596">
<rect width="4" height="4" fill="white" transform="translate(32.5 32.5)"/>
</clipPath>
<clipPath id="clip3_91_5596">
<rect width="4" height="4" fill="white" transform="translate(5.5 5.5)"/>
</clipPath>
<clipPath id="clip4_91_5596">
<rect width="4" height="4" fill="white" transform="translate(5.5 32.5)"/>
</clipPath>
</defs>
</svg>
