<svg width="185" height="56" viewBox="0 0 185 56" fill="none" xmlns="http://www.w3.org/2000/svg">
<g filter="url(#filter0_d_91_6801)">
<g clip-path="url(#clip0_91_6801)">
<rect x="8" y="8" width="40" height="40" rx="8" fill="white"/>
<rect x="8" y="8" width="40" height="40" rx="7" fill="url(#paint0_linear_91_6801)"/>
<rect x="8.5" y="8.5" width="39" height="39" rx="6.5" stroke="url(#paint1_linear_91_6801)" stroke-opacity="0.4"/>
<g clip-path="url(#clip1_91_6801)">
<path d="M27.9987 40.5C34.9024 40.5 40.4987 34.9037 40.4987 28V19.25C40.4987 18.2554 40.1036 17.3016 39.4003 16.5983C38.6971 15.8951 37.7432 15.5 36.7487 15.5H28.6237V20.9838C28.6237 22.235 28.6999 23.5312 29.3562 24.5962C29.826 25.3595 30.4545 26.0128 31.199 26.5117C31.9435 27.0107 32.7866 27.3437 33.6712 27.4881L33.9105 27.5269C34.0092 27.5606 34.0949 27.6244 34.1556 27.7092C34.2162 27.794 34.2488 27.8957 34.2488 28C34.2488 28.1043 34.2162 28.206 34.1556 28.2908C34.0949 28.3756 34.0092 28.4394 33.9105 28.4731L33.6712 28.5119C32.3788 28.723 31.1853 29.3347 30.2594 30.2607C29.3334 31.1867 28.7217 32.3801 28.5105 33.6725L28.4718 33.9119C28.4381 34.0106 28.3743 34.0962 28.2895 34.1569C28.2046 34.2175 28.103 34.2502 27.9987 34.2502C27.8944 34.2502 27.7927 34.2175 27.7079 34.1569C27.623 34.0962 27.5593 34.0106 27.5255 33.9119L27.4868 33.6725C27.3423 32.788 27.0093 31.9449 26.5104 31.2003C26.0114 30.4558 25.3581 29.8273 24.5949 29.3575C23.5299 28.7013 22.2337 28.625 20.9824 28.625H15.5137C15.8405 35.2381 21.3049 40.5 27.9987 40.5Z" fill="white"/>
<path d="M15.5 27.3749H20.9838C22.235 27.3749 23.5313 27.2987 24.5963 26.6424C25.4288 26.1295 26.1296 25.4287 26.6425 24.5962C27.2988 23.5312 27.375 22.2349 27.375 20.9837V15.4999H19.25C18.2554 15.4999 17.3016 15.895 16.5983 16.5983C15.8951 17.3016 15.5 18.2554 15.5 19.2499V27.3749Z" fill="white"/>
</g>
</g>
</g>
<g style="mix-blend-mode:plus-lighter">
<path d="M74.28 38H70.668L65.516 21.564V38H62.044V17.7H67.56L72.488 33.884L77.388 17.7H82.904V38H79.432V21.564L74.28 38ZM88.6895 30.496C88.6895 32.176 89.0535 33.436 89.8095 34.332C90.5655 35.228 91.5175 35.648 92.6655 35.648C93.7855 35.648 94.7375 35.228 95.4935 34.332C96.2495 33.436 96.6415 32.176 96.6415 30.496C96.6415 28.844 96.2495 27.556 95.4935 26.66C94.7375 25.764 93.7855 25.316 92.6655 25.316C91.5175 25.316 90.5655 25.764 89.8095 26.66C89.0535 27.556 88.6895 28.844 88.6895 30.496ZM92.6655 22.6C94.6815 22.6 96.4175 23.3 97.8735 24.644C99.3295 26.016 100.086 27.976 100.086 30.496C100.086 33.072 99.3295 35.004 97.8735 36.348C96.4175 37.692 94.6815 38.364 92.6655 38.364C90.6495 38.364 88.8855 37.692 87.4295 36.348C85.9735 35.004 85.2455 33.072 85.2455 30.496C85.2455 27.976 85.9735 26.016 87.4295 24.644C88.8855 23.3 90.6495 22.6 92.6655 22.6ZM103.782 22.936L107.254 33.688L110.698 22.936H114.17L108.738 38H105.602L100.114 22.936H103.782ZM115.485 17.7H118.817V21.06H115.485V17.7ZM115.485 22.936H118.817V38H115.485V22.936ZM135.615 31.42H124.387C124.499 32.764 124.947 33.772 125.731 34.5C126.515 35.228 127.439 35.592 128.475 35.592C130.351 35.592 131.583 34.892 132.171 33.492H135.447C135.055 34.836 134.271 35.984 133.095 36.936C131.919 37.888 130.407 38.364 128.615 38.364C126.263 38.364 124.415 37.608 123.043 36.068C121.671 34.528 120.999 32.624 120.999 30.356C120.999 28.116 121.671 26.24 123.071 24.784C124.471 23.328 126.235 22.6 128.391 22.6C130.687 22.6 132.479 23.44 133.823 25.12C135.167 26.8 135.755 28.9 135.615 31.42ZM128.391 25.204C127.439 25.204 126.571 25.512 125.787 26.128C125.003 26.744 124.527 27.696 124.387 28.984H132.227C132.171 27.864 131.779 26.94 131.051 26.24C130.295 25.568 129.399 25.204 128.391 25.204ZM147.959 24.952V22.936H151.291V36.488C151.291 38.924 150.675 40.688 149.471 41.808C148.295 42.9 146.531 43.432 144.123 43.432C142.359 43.432 140.903 43.068 139.783 42.312C138.635 41.584 137.935 40.408 137.683 38.812H140.987C141.127 39.54 141.435 40.044 141.939 40.352C142.443 40.66 143.199 40.8 144.207 40.8C145.579 40.8 146.587 40.436 147.203 39.708C147.707 39.148 147.959 38.28 147.959 37.16V35.396C147.007 36.964 145.495 37.748 143.479 37.748C141.631 37.748 140.063 37.076 138.803 35.676C137.543 34.304 136.927 32.456 136.927 30.16C136.927 27.864 137.543 26.044 138.803 24.672C140.063 23.3 141.631 22.6 143.479 22.6C145.495 22.6 147.007 23.384 147.959 24.952ZM148.099 30.16C148.099 28.564 147.735 27.36 147.007 26.52C146.279 25.68 145.327 25.26 144.207 25.26C143.059 25.26 142.135 25.708 141.435 26.604C140.735 27.5 140.399 28.676 140.399 30.16C140.399 31.7 140.735 32.904 141.435 33.8C142.135 34.696 143.059 35.116 144.207 35.116C145.327 35.116 146.279 34.696 147.007 33.856C147.735 33.016 148.099 31.784 148.099 30.16ZM168.073 31.42H156.845C156.957 32.764 157.405 33.772 158.189 34.5C158.973 35.228 159.897 35.592 160.933 35.592C162.809 35.592 164.041 34.892 164.629 33.492H167.905C167.513 34.836 166.729 35.984 165.553 36.936C164.377 37.888 162.865 38.364 161.073 38.364C158.721 38.364 156.873 37.608 155.501 36.068C154.129 34.528 153.457 32.624 153.457 30.356C153.457 28.116 154.129 26.24 155.529 24.784C156.929 23.328 158.693 22.6 160.849 22.6C163.145 22.6 164.937 23.44 166.281 25.12C167.625 26.8 168.213 28.9 168.073 31.42ZM160.849 25.204C159.897 25.204 159.029 25.512 158.245 26.128C157.461 26.744 156.985 27.696 156.845 28.984H164.685C164.629 27.864 164.237 26.94 163.509 26.24C162.753 25.568 161.857 25.204 160.849 25.204ZM173.589 22.936V25.036C174.485 23.412 175.997 22.6 178.153 22.6C181.569 22.6 183.277 24.588 183.277 28.536V38H179.945V29.348C179.945 28.76 179.889 28.256 179.833 27.836C179.777 27.444 179.637 27.024 179.469 26.604C179.301 26.184 178.993 25.876 178.601 25.652C178.209 25.428 177.705 25.316 177.089 25.316C174.737 25.316 173.589 26.884 173.589 29.992V38H170.257V22.936H173.589Z" fill="#D8DFF0"/>
</g>
<defs>
<filter id="filter0_d_91_6801" x="-4.76837e-07" y="-4.76837e-07" width="56" height="56" filterUnits="userSpaceOnUse" color-interpolation-filters="sRGB">
<feFlood flood-opacity="0" result="BackgroundImageFix"/>
<feColorMatrix in="SourceAlpha" type="matrix" values="0 0 0 0 0 0 0 0 0 0 0 0 0 0 0 0 0 0 127 0" result="hardAlpha"/>
<feMorphology radius="1" operator="dilate" in="SourceAlpha" result="effect1_dropShadow_91_6801"/>
<feOffset/>
<feGaussianBlur stdDeviation="3.5"/>
<feComposite in2="hardAlpha" operator="out"/>
<feColorMatrix type="matrix" values="0 0 0 0 0.52 0 0 0 0 0.385882 0 0 0 0 0.894118 0 0 0 0.8 0"/>
<feBlend mode="normal" in2="BackgroundImageFix" result="effect1_dropShadow_91_6801"/>
<feBlend mode="normal" in="SourceGraphic" in2="effect1_dropShadow_91_6801" result="shape"/>
</filter>
<linearGradient id="paint0_linear_91_6801" x1="8" y1="8" x2="52.165" y2="13.3012" gradientUnits="userSpaceOnUse">
<stop stop-color="#EBA0CC"/>
<stop offset="0.504808" stop-color="#F5D7DD"/>
<stop offset="1" stop-color="#9590F0"/>
</linearGradient>
<linearGradient id="paint1_linear_91_6801" x1="28" y1="8" x2="28" y2="48" gradientUnits="userSpaceOnUse">
<stop stop-color="white"/>
<stop offset="1" stop-color="white" stop-opacity="0.2"/>
</linearGradient>
<clipPath id="clip0_91_6801">
<rect x="8" y="8" width="40" height="40" rx="8" fill="white"/>
</clipPath>
<clipPath id="clip1_91_6801">
<rect width="25" height="25" fill="white" transform="translate(15.5 15.5)"/>
</clipPath>
</defs>
</svg>
