<svg width="16" height="19" viewBox="0 0 16 19" fill="none" xmlns="http://www.w3.org/2000/svg">
<path d="M9.04688 18.6797C8.93229 18.6797 8.83073 18.6406 8.74219 18.5625C8.65885 18.4844 8.60938 18.3828 8.59375 18.2578C8.46875 17.4141 8.33594 16.7031 8.19531 16.125C8.05469 15.5521 7.8724 15.0807 7.64844 14.7109C7.42448 14.3411 7.1276 14.0469 6.75781 13.8281C6.39323 13.6042 5.92708 13.4245 5.35938 13.2891C4.79688 13.1536 4.09896 13.0312 3.26562 12.9219C3.13021 12.9062 3.02344 12.8568 2.94531 12.7734C2.86719 12.6849 2.82812 12.5781 2.82812 12.4531C2.82812 12.3333 2.86719 12.2318 2.94531 12.1484C3.02865 12.0599 3.13542 12.0078 3.26562 11.9922C4.09896 11.8984 4.79948 11.7891 5.36719 11.6641C5.9349 11.5339 6.40365 11.3568 6.77344 11.1328C7.14323 10.9036 7.4401 10.6016 7.66406 10.2266C7.89323 9.85156 8.07552 9.375 8.21094 8.79688C8.35156 8.21875 8.47917 7.50521 8.59375 6.65625C8.60938 6.53125 8.65885 6.42969 8.74219 6.35156C8.83073 6.27344 8.93229 6.23438 9.04688 6.23438C9.17188 6.23438 9.27344 6.27344 9.35156 6.35156C9.4349 6.42969 9.48958 6.53125 9.51562 6.65625C9.63021 7.50521 9.75521 8.21875 9.89062 8.79688C10.0312 9.375 10.2135 9.85156 10.4375 10.2266C10.6667 10.5964 10.9635 10.8958 11.3281 11.125C11.6979 11.349 12.1667 11.526 12.7344 11.6562C13.3021 11.7865 14.0026 11.8984 14.8359 11.9922C14.9661 12.0078 15.0703 12.0599 15.1484 12.1484C15.2318 12.237 15.2734 12.3385 15.2734 12.4531C15.2734 12.5781 15.2318 12.6849 15.1484 12.7734C15.0703 12.862 14.9661 12.9115 14.8359 12.9219C14.0026 13.0156 13.2995 13.1276 12.7266 13.2578C12.1589 13.3828 11.6901 13.5573 11.3203 13.7812C10.9505 14.0052 10.6536 14.3047 10.4297 14.6797C10.2057 15.0547 10.0234 15.5339 9.88281 16.1172C9.7474 16.7005 9.625 17.4141 9.51562 18.2578C9.49479 18.3828 9.44271 18.4844 9.35938 18.5625C9.27604 18.6406 9.17188 18.6797 9.04688 18.6797ZM3.64844 10.0234C3.47135 10.0234 3.36979 9.92708 3.34375 9.73438C3.28125 9.21875 3.21615 8.8151 3.14844 8.52344C3.08073 8.22656 2.97135 8.00521 2.82031 7.85938C2.66927 7.70833 2.4401 7.59375 2.13281 7.51562C1.83073 7.4375 1.41667 7.35417 0.890625 7.26562C0.692708 7.23958 0.59375 7.14062 0.59375 6.96875C0.59375 6.80729 0.679688 6.71094 0.851562 6.67969C1.38802 6.58073 1.8099 6.49219 2.11719 6.41406C2.42448 6.33073 2.65365 6.21615 2.80469 6.07031C2.96094 5.92448 3.07292 5.70833 3.14062 5.42188C3.21354 5.13542 3.28125 4.73438 3.34375 4.21875C3.36979 4.02604 3.47135 3.92969 3.64844 3.92969C3.82031 3.92969 3.91927 4.02083 3.94531 4.20312C4.00781 4.72917 4.07292 5.14323 4.14062 5.44531C4.21354 5.7474 4.32552 5.97396 4.47656 6.125C4.6276 6.27604 4.85677 6.38802 5.16406 6.46094C5.47135 6.52865 5.89323 6.60156 6.42969 6.67969C6.50781 6.6849 6.57031 6.71615 6.61719 6.77344C6.66927 6.82552 6.69531 6.89062 6.69531 6.96875C6.69531 7.13542 6.60938 7.23438 6.4375 7.26562C5.89583 7.36979 5.47135 7.46354 5.16406 7.54688C4.86198 7.625 4.63542 7.73958 4.48438 7.89062C4.33333 8.03646 4.22135 8.25521 4.14844 8.54688C4.07552 8.83333 4.00781 9.23438 3.94531 9.75C3.92969 9.82812 3.89583 9.89323 3.84375 9.94531C3.79167 9.9974 3.72656 10.0234 3.64844 10.0234ZM7.42969 4.5625C7.32031 4.5625 7.25781 4.50521 7.24219 4.39062C7.1849 4.07292 7.13281 3.82292 7.08594 3.64062C7.04427 3.45833 6.97656 3.32031 6.88281 3.22656C6.79427 3.13281 6.65625 3.0599 6.46875 3.00781C6.28646 2.95052 6.02604 2.89323 5.6875 2.83594C5.57292 2.8099 5.51562 2.74219 5.51562 2.63281C5.51562 2.53385 5.57292 2.47135 5.6875 2.44531C6.02604 2.38281 6.28646 2.32552 6.46875 2.27344C6.65625 2.21615 6.79427 2.14062 6.88281 2.04688C6.97656 1.95312 7.04427 1.81771 7.08594 1.64062C7.13281 1.45833 7.1849 1.20833 7.24219 0.890625C7.25781 0.776042 7.32031 0.71875 7.42969 0.71875C7.53906 0.71875 7.60417 0.776042 7.625 0.890625C7.67708 1.20833 7.72656 1.45833 7.77344 1.64062C7.82031 1.82292 7.88802 1.96094 7.97656 2.05469C8.07031 2.14844 8.20833 2.22396 8.39062 2.28125C8.57812 2.33333 8.84115 2.38802 9.17969 2.44531C9.29427 2.46615 9.35156 2.52865 9.35156 2.63281C9.35156 2.74219 9.29427 2.8099 9.17969 2.83594C8.84115 2.89323 8.57812 2.95052 8.39062 3.00781C8.20833 3.0599 8.07031 3.13542 7.97656 3.23438C7.88802 3.32812 7.82031 3.46615 7.77344 3.64844C7.72656 3.82552 7.67708 4.07292 7.625 4.39062C7.60417 4.50521 7.53906 4.5625 7.42969 4.5625Z" fill="#D8DFF0" fill-opacity="0.8"/>
</svg>
