<svg width="104" height="24" viewBox="0 0 104 24" fill="none" xmlns="http://www.w3.org/2000/svg">
<g clip-path="url(#clip0_91_5815)">
<path d="M67.4902 8.83504C65.7361 7.29965 63.6197 6.54922 61.1723 6.54922C58.7586 6.54922 56.6414 7.30051 54.8864 8.83504C53.1332 10.3376 52.2414 12.4274 52.2414 15.1044C52.2414 17.7832 53.1332 19.8721 54.8864 21.4075C56.6405 22.9092 58.7586 23.6613 61.1723 23.6613C63.6197 23.6613 65.7361 22.9092 67.4902 21.4075C69.2773 19.8721 70.1682 17.7832 70.1682 15.1053C70.1682 12.4274 69.2756 10.3368 67.4902 8.83504ZM57.866 18.5327C56.9413 17.6519 56.475 16.5086 56.475 15.1044C56.475 13.7012 56.9369 12.5578 57.866 11.7089C58.7907 10.8281 59.8844 10.4033 61.1706 10.4033C62.4593 10.4033 63.5851 10.8281 64.5107 11.7089C65.4683 12.5578 65.9337 13.7012 65.9337 15.1053C65.9337 16.5094 65.4718 17.6528 64.5107 18.5336C63.5859 19.3825 62.4601 19.8065 61.1706 19.8065C59.8844 19.8065 58.7933 19.3825 57.866 18.5336V18.5327ZM76.4229 23.2019V0.794523H72.2551V23.2019H76.4229ZM89.8752 7.00604V15.9464C89.8752 18.1009 88.6957 19.5284 86.4501 19.5284C84.1674 19.5284 83.019 18.1018 83.019 15.9464V7.00604H78.8443V16.632C78.8443 20.3617 81.2259 23.6588 86.4501 23.6588H86.4822C91.6752 23.6588 94.0525 20.2892 94.0525 16.632V7.00604H89.8752ZM47.8049 7.00604L43.638 17.9775L39.4703 7.00604H35.0382L41.688 23.2028H45.5924L52.2414 7.00604H47.8049ZM35.0598 14.6476C35.0598 12.2962 34.2998 10.3704 32.8109 8.83504C31.3211 7.29965 29.4049 6.54922 27.0562 6.54922C24.6426 6.54922 22.5912 7.36614 20.903 8.96544C19.2476 10.5665 18.4234 12.5898 18.4234 15.1053C18.4234 17.6199 19.2494 19.6769 20.8709 21.2762C22.5262 22.8772 24.5109 23.6605 26.8586 23.6605C30.4657 23.6605 33.0119 22.0931 34.5632 18.9256L31.4554 17.1623C30.4319 19.1536 28.9421 20.1337 26.9245 20.1337C24.4441 20.1337 22.6909 18.5664 22.4265 16.0846H35.0581V14.6476H35.0598ZM26.9219 9.68391C29.2697 9.68391 30.8262 10.9896 31.2214 13.0803H22.4239C23.054 11.1545 24.7717 9.68391 26.9219 9.68391ZM18.4234 23.2028L12.8326 13.5371C16.3703 12.2633 18.1236 10.0432 18.1236 6.81002C18.1271 2.85841 14.9499 0.34375 9.89032 0.34375H0V23.2019H4.36623V13.9274H8.07207L13.4289 23.2019L18.4234 23.2028ZM9.88858 4.13215C12.4686 4.13215 13.7591 5.14423 13.7591 7.13558C13.7591 9.12692 12.4678 10.139 9.88858 10.139H4.3671V4.13301L9.88858 4.13215ZM101.117 23.6588C98.4352 23.6588 96.2599 21.5111 96.2599 18.8591V2.63043H100.427V7.01209H104V10.3428H100.427V18.5949C100.427 19.3721 101.065 20.0016 101.853 20.0016H104V23.6579L101.117 23.6588Z" fill="#C9D3E8"/>
</g>
<defs>
<clipPath id="clip0_91_5815">
<rect width="104" height="24" fill="white"/>
</clipPath>
</defs>
</svg>
