<svg width="252" height="94" viewBox="0 0 252 94" fill="none" xmlns="http://www.w3.org/2000/svg">
<g style="mix-blend-mode:luminosity">
<rect width="252" height="93.7407" rx="16" fill="#3B3B48" fill-opacity="0.5"/>
<path d="M31.25 29.7495C31.25 31.1308 29.85 32.2495 28.125 32.2495C26.4 32.2495 25 31.1308 25 29.7495C25 28.3683 26.4 27.2495 28.125 27.2495C29.85 27.2495 31.25 28.3683 31.25 29.7495Z" fill="white" fill-opacity="0.6"/>
<path fill-rule="evenodd" clip-rule="evenodd" d="M31.25 17.2495V29.7495H30V17.2495H31.25Z" fill="white" fill-opacity="0.6"/>
<path d="M30 17.0241C30.0002 16.7353 30.1004 16.4554 30.2836 16.2321C30.4668 16.0087 30.7217 15.8558 31.005 15.7991L34.755 15.0491C34.9363 15.0129 35.1233 15.0173 35.3027 15.0621C35.4821 15.1069 35.6493 15.1909 35.7923 15.308C35.9352 15.4252 36.0505 15.5726 36.1296 15.7397C36.2088 15.9067 36.2499 16.0893 36.25 16.2741V18.4991L30 19.7491V17.0241Z" fill="white" fill-opacity="0.6"/>
<path d="M54.2178 30.2875C53.1978 30.2875 52.3098 30.1015 51.5538 29.7295C50.8098 29.3575 50.2218 28.8415 49.7898 28.1815C49.3578 27.5215 49.1058 26.7535 49.0338 25.8775L51.0318 25.7515C51.1158 26.3515 51.2898 26.8615 51.5538 27.2815C51.8178 27.6895 52.1718 28.0015 52.6158 28.2175C53.0718 28.4215 53.6178 28.5235 54.2538 28.5235C54.8058 28.5235 55.2738 28.4575 55.6578 28.3255C56.0538 28.1815 56.3538 27.9715 56.5578 27.6955C56.7618 27.4195 56.8638 27.0835 56.8638 26.6875C56.8638 26.3275 56.7738 26.0095 56.5938 25.7335C56.4258 25.4455 56.0958 25.1875 55.6038 24.9595C55.1238 24.7195 54.4158 24.4855 53.4798 24.2575C52.4598 24.0055 51.6438 23.7295 51.0318 23.4295C50.4198 23.1295 49.9758 22.7575 49.6998 22.3135C49.4358 21.8575 49.3038 21.2995 49.3038 20.6395C49.3038 19.9075 49.4778 19.2655 49.8258 18.7135C50.1858 18.1495 50.6958 17.7115 51.3558 17.3995C52.0158 17.0875 52.8078 16.9315 53.7318 16.9315C54.7038 16.9315 55.5318 17.1115 56.2158 17.4715C56.9118 17.8315 57.4578 18.3235 57.8538 18.9475C58.2618 19.5715 58.5138 20.2855 58.6098 21.0895L56.6118 21.1975C56.5518 20.7055 56.4018 20.2735 56.1618 19.9015C55.9218 19.5175 55.5978 19.2235 55.1898 19.0195C54.7818 18.8035 54.2838 18.6955 53.6958 18.6955C52.9518 18.6955 52.3638 18.8695 51.9318 19.2175C51.5118 19.5535 51.3018 20.0035 51.3018 20.5675C51.3018 20.9275 51.3858 21.2335 51.5538 21.4855C51.7338 21.7255 52.0458 21.9355 52.4898 22.1155C52.9458 22.2955 53.5878 22.4875 54.4158 22.6915C55.5198 22.9435 56.3958 23.2555 57.0438 23.6275C57.7038 23.9875 58.1718 24.4135 58.4478 24.9055C58.7238 25.3975 58.8618 25.9555 58.8618 26.5795C58.8618 27.3355 58.6638 27.9955 58.2678 28.5595C57.8838 29.1115 57.3438 29.5375 56.6478 29.8375C55.9518 30.1375 55.1418 30.2875 54.2178 30.2875ZM64.9821 30.2155C64.0701 30.2155 63.2721 30.0115 62.5881 29.6035C61.9041 29.1955 61.3761 28.6135 61.0041 27.8575C60.6321 27.1015 60.4461 26.2195 60.4461 25.2115C60.4461 24.1915 60.6321 23.3095 61.0041 22.5655C61.3761 21.8215 61.9041 21.2455 62.5881 20.8375C63.2721 20.4175 64.0701 20.2075 64.9821 20.2075C65.8941 20.2075 66.6921 20.4175 67.3761 20.8375C68.0601 21.2455 68.5881 21.8215 68.9601 22.5655C69.3321 23.3095 69.5181 24.1915 69.5181 25.2115C69.5181 26.2195 69.3321 27.1015 68.9601 27.8575C68.5881 28.6135 68.0601 29.1955 67.3761 29.6035C66.6921 30.0115 65.8941 30.2155 64.9821 30.2155ZM64.9821 28.5595C65.7981 28.5595 66.4281 28.2655 66.8721 27.6775C67.3161 27.0775 67.5381 26.2555 67.5381 25.2115C67.5381 24.1675 67.3161 23.3515 66.8721 22.7635C66.4281 22.1635 65.7981 21.8635 64.9821 21.8635C64.1781 21.8635 63.5481 22.1635 63.0921 22.7635C62.6481 23.3515 62.4261 24.1675 62.4261 25.2115C62.4261 26.2555 62.6481 27.0775 63.0921 27.6775C63.5481 28.2655 64.1781 28.5595 64.9821 28.5595ZM74.2363 30.2155C73.2763 30.2155 72.5083 29.8975 71.9323 29.2615C71.3683 28.6135 71.0863 27.7195 71.0863 26.5795V20.4235H72.9943V26.0935C72.9943 26.9575 73.1443 27.5935 73.4443 28.0015C73.7443 28.4095 74.2003 28.6135 74.8123 28.6135C75.5083 28.6135 76.0483 28.3915 76.4323 27.9475C76.8283 27.4915 77.0263 26.8555 77.0263 26.0395V20.4235H78.9343V29.9995H77.1523L77.1163 27.4975L77.3863 27.6055C77.2183 28.4455 76.8643 29.0935 76.3243 29.5495C75.7843 29.9935 75.0883 30.2155 74.2363 30.2155ZM81.2732 29.9995V20.4235H83.0192L83.0912 22.9795L82.8572 22.8535C82.9652 22.2295 83.1692 21.7255 83.4692 21.3415C83.7692 20.9575 84.1352 20.6755 84.5672 20.4955C84.9992 20.3035 85.4672 20.2075 85.9712 20.2075C86.6912 20.2075 87.2852 20.3695 87.7532 20.6935C88.2332 21.0055 88.5932 21.4375 88.8332 21.9895C89.0852 22.5295 89.2112 23.1475 89.2112 23.8435V29.9995H87.3032V24.4195C87.3032 23.8555 87.2432 23.3815 87.1232 22.9975C87.0032 22.6135 86.8052 22.3195 86.5292 22.1155C86.2532 21.9115 85.8932 21.8095 85.4492 21.8095C84.7772 21.8095 84.2312 22.0315 83.8112 22.4755C83.3912 22.9195 83.1812 23.5675 83.1812 24.4195V29.9995H81.2732ZM94.739 30.2155C93.923 30.2155 93.209 30.0115 92.597 29.6035C91.997 29.1955 91.535 28.6195 91.211 27.8755C90.899 27.1195 90.743 26.2315 90.743 25.2115C90.743 24.1915 90.905 23.3095 91.229 22.5655C91.553 21.8095 92.015 21.2275 92.615 20.8195C93.215 20.4115 93.923 20.2075 94.739 20.2075C95.399 20.2075 95.987 20.3455 96.503 20.6215C97.019 20.8975 97.409 21.2815 97.673 21.7735V17.2195H99.581V29.9995H97.799L97.745 28.5595C97.481 29.0755 97.079 29.4835 96.539 29.7835C96.011 30.0715 95.411 30.2155 94.739 30.2155ZM95.243 28.5595C95.759 28.5595 96.197 28.4275 96.557 28.1635C96.917 27.8995 97.193 27.5155 97.385 27.0115C97.577 26.5075 97.673 25.9075 97.673 25.2115C97.673 24.4915 97.577 23.8855 97.385 23.3935C97.193 22.8895 96.917 22.5115 96.557 22.2595C96.197 21.9955 95.759 21.8635 95.243 21.8635C94.475 21.8635 93.863 22.1635 93.407 22.7635C92.951 23.3515 92.723 24.1675 92.723 25.2115C92.723 26.2435 92.951 27.0595 93.407 27.6595C93.863 28.2595 94.475 28.5595 95.243 28.5595Z" fill="white"/>
<path d="M186.419 15.7502C186.26 15.6814 186.086 15.656 185.914 15.6767C185.741 15.6973 185.578 15.7633 185.44 15.8678L180.756 19.5717H177.18C176.92 19.5717 176.67 19.6748 176.487 19.8586C176.303 20.0423 176.2 20.2916 176.2 20.5515V26.4305C176.2 26.6903 176.303 26.9396 176.487 27.1233C176.67 27.3072 176.92 27.4103 177.18 27.4103H180.756L185.391 31.1141C185.563 31.2525 185.777 31.3284 185.998 31.3297C186.144 31.3322 186.289 31.2985 186.419 31.2317C186.586 31.1523 186.727 31.0274 186.826 30.8714C186.925 30.7153 186.977 30.5346 186.978 30.3498V16.6321C186.977 16.4474 186.925 16.2667 186.826 16.1106C186.727 15.9546 186.586 15.8297 186.419 15.7502ZM185.018 28.3117L181.706 25.6662C181.534 25.5279 181.32 25.4519 181.099 25.4507H178.159V21.5312H181.099C181.32 21.53 181.534 21.4541 181.706 21.3157L185.018 18.6702V28.3117ZM193.504 17.9451C193.319 17.7606 193.069 17.6569 192.808 17.6569C192.547 17.6569 192.297 17.7606 192.112 17.9451C191.928 18.1296 191.824 18.3798 191.824 18.6407C191.824 18.9017 191.928 19.152 192.112 19.3365C192.689 19.9126 193.14 20.6023 193.436 21.362C193.732 22.1217 193.867 22.9347 193.832 23.7492C193.797 24.5639 193.593 25.3622 193.233 26.0938C192.873 26.8252 192.364 27.4738 191.74 27.9982C191.588 28.1278 191.48 28.3007 191.429 28.4936C191.378 28.6866 191.388 28.8903 191.456 29.0778C191.524 29.2653 191.648 29.4275 191.811 29.5427C191.973 29.658 192.168 29.7207 192.367 29.7227C192.596 29.7232 192.818 29.6435 192.994 29.4973C193.828 28.799 194.507 27.9348 194.989 26.9597C195.471 25.9847 195.744 24.9199 195.792 23.8334C195.84 22.7468 195.661 21.6622 195.267 20.6485C194.873 19.6347 194.273 18.7141 193.504 17.9451ZM190.731 20.7181C190.639 20.6267 190.531 20.5542 190.412 20.5047C190.292 20.4553 190.164 20.4299 190.035 20.4299C189.906 20.4299 189.778 20.4553 189.659 20.5047C189.539 20.5542 189.431 20.6267 189.339 20.7181C189.248 20.8094 189.176 20.9178 189.126 21.0372C189.077 21.1566 189.051 21.2845 189.051 21.4137C189.051 21.5429 189.077 21.6709 189.126 21.7902C189.176 21.9096 189.248 22.0181 189.339 22.1094C189.707 22.4752 189.915 22.9722 189.917 23.491C189.918 23.7765 189.856 24.0586 189.735 24.3174C189.615 24.5764 189.44 24.806 189.222 24.9901C189.123 25.0724 189.041 25.1734 188.98 25.2874C188.92 25.4014 188.883 25.5262 188.871 25.6546C188.86 25.7828 188.873 25.9122 188.911 26.0353C188.95 26.1584 189.012 26.2727 189.094 26.3717C189.177 26.4702 189.279 26.5514 189.393 26.6107C189.508 26.6698 189.633 26.706 189.761 26.7169C189.889 26.7278 190.018 26.7133 190.141 26.6742C190.264 26.6352 190.378 26.5723 190.476 26.4892C190.914 26.1219 191.266 25.6632 191.509 25.1453C191.751 24.6274 191.876 24.0627 191.877 23.491C191.872 22.4524 191.46 21.4572 190.731 20.7181Z" fill="white" fill-opacity="0.6"/>
<g clip-path="url(#clip0_91_5312)">
<path d="M226.901 20.559H219.06V18.5989C219.059 18.0169 219.23 17.4477 219.553 16.9631C219.875 16.4786 220.334 16.1006 220.871 15.8771C221.408 15.6535 222 15.5945 222.571 15.7074C223.142 15.8204 223.667 16.1001 224.078 16.5114C224.447 16.8878 224.71 17.3541 224.843 17.8639C224.875 17.9887 224.931 18.106 225.009 18.209C225.086 18.312 225.183 18.3988 225.294 18.4644C225.405 18.5299 225.528 18.5729 225.656 18.5909C225.784 18.6089 225.913 18.6017 226.038 18.5695C226.163 18.5374 226.281 18.4809 226.384 18.4034C226.487 18.3259 226.573 18.2289 226.639 18.1179C226.704 18.0068 226.747 17.8839 226.765 17.7563C226.783 17.6286 226.776 17.4987 226.744 17.3739C226.521 16.5259 226.078 15.7518 225.46 15.1295C224.774 14.4458 223.901 13.9807 222.951 13.7928C222.001 13.6049 221.017 13.7028 220.122 14.0739C219.228 14.4452 218.463 15.0731 217.925 15.8784C217.388 16.6839 217.1 17.6304 217.1 18.5989V20.559C216.32 20.559 215.573 20.8688 215.021 21.4202C214.47 21.9715 214.16 22.7194 214.16 23.4992V30.3595C214.16 31.1394 214.47 31.8871 215.021 32.4385C215.573 32.9899 216.32 33.2997 217.1 33.2997H226.901C227.681 33.2997 228.428 32.9899 228.98 32.4385C229.531 31.8871 229.841 31.1394 229.841 30.3595V23.4992C229.841 22.7194 229.531 21.9715 228.98 21.4202C228.428 20.8688 227.681 20.559 226.901 20.559ZM227.881 30.3595C227.881 30.6194 227.778 30.8688 227.594 31.0525C227.41 31.2364 227.161 31.3396 226.901 31.3396H217.1C216.84 31.3396 216.591 31.2364 216.407 31.0525C216.223 30.8688 216.12 30.6194 216.12 30.3595V23.4992C216.12 23.2393 216.223 22.9899 216.407 22.8062C216.591 22.6224 216.84 22.5191 217.1 22.5191H226.901C227.161 22.5191 227.41 22.6224 227.594 22.8062C227.778 22.9899 227.881 23.2393 227.881 23.4992V30.3595Z" fill="white" fill-opacity="0.6"/>
</g>
<g filter="url(#filter0_d_91_5312)">
<g clip-path="url(#clip1_91_5312)">
<rect x="8" y="45" width="236" height="40.7407" rx="10" fill="white" fill-opacity="0.03" shape-rendering="crispEdges"/>
<g style="mix-blend-mode:plus-lighter" opacity="0.5">
<rect x="16.8887" y="63.1482" width="2.22222" height="4.44444" rx="1.11111" fill="white"/>
</g>
<g style="mix-blend-mode:plus-lighter" opacity="0.5">
<rect x="21.3335" y="63.1482" width="2.22222" height="4.44444" rx="1.11111" fill="white"/>
</g>
<g style="mix-blend-mode:plus-lighter" opacity="0.5">
<rect x="25.7778" y="63.1482" width="2.22222" height="4.44444" rx="1.11111" fill="white"/>
</g>
<g style="mix-blend-mode:plus-lighter" opacity="0.5">
<rect x="30.2222" y="63.1482" width="2.22222" height="4.44444" rx="1.11111" fill="white"/>
</g>
<g style="mix-blend-mode:plus-lighter" opacity="0.5">
<rect x="34.6665" y="61.2964" width="2.22222" height="8.14815" rx="1.11111" fill="white"/>
</g>
<g style="mix-blend-mode:plus-lighter" opacity="0.5">
<rect x="39.1113" y="59.4441" width="2.22222" height="11.8519" rx="1.11111" fill="white"/>
</g>
<g style="mix-blend-mode:plus-lighter" opacity="0.5">
<rect x="43.5557" y="60.5554" width="2.22222" height="9.62963" rx="1.11111" fill="white"/>
</g>
<g style="mix-blend-mode:plus-lighter" opacity="0.5">
<rect x="48" y="62.4075" width="2.22222" height="5.92593" rx="1.11111" fill="white"/>
</g>
<g style="mix-blend-mode:plus-lighter" opacity="0.5">
<rect x="52.4443" y="63.1482" width="2.22222" height="4.44444" rx="1.11111" fill="white"/>
</g>
<g style="mix-blend-mode:plus-lighter" opacity="0.5">
<rect x="56.8887" y="63.1482" width="2.22222" height="4.44444" rx="1.11111" fill="white"/>
</g>
<g style="mix-blend-mode:plus-lighter" opacity="0.5">
<rect x="61.3335" y="63.1482" width="2.22222" height="4.44444" rx="1.11111" fill="white"/>
</g>
<g style="mix-blend-mode:plus-lighter" opacity="0.5">
<rect x="65.7778" y="63.1482" width="2.22222" height="4.44444" rx="1.11111" fill="white"/>
</g>
<g style="mix-blend-mode:plus-lighter" opacity="0.5">
<rect x="70.2222" y="63.1482" width="2.22222" height="4.44444" rx="1.11111" fill="white"/>
</g>
<g style="mix-blend-mode:plus-lighter" opacity="0.5">
<rect x="74.6665" y="63.1482" width="2.22222" height="4.44444" rx="1.11111" fill="white"/>
</g>
<g style="mix-blend-mode:plus-lighter" opacity="0.5">
<rect x="79.1113" y="62.4075" width="2.22222" height="5.92593" rx="1.11111" fill="white"/>
</g>
<g style="mix-blend-mode:plus-lighter" opacity="0.5">
<rect x="83.5557" y="61.2964" width="2.22222" height="8.14815" rx="1.11111" fill="white"/>
</g>
<g style="mix-blend-mode:plus-lighter" opacity="0.5">
<rect x="88" y="58.7036" width="2.22222" height="13.3333" rx="1.11111" fill="white"/>
</g>
<rect x="92.4443" y="53.8889" width="2.22222" height="22.963" rx="1.11111" fill="#FFE3FB"/>
<g style="mix-blend-mode:plus-lighter" opacity="0.5">
<rect x="96.8887" y="57.9626" width="2.22222" height="14.8148" rx="1.11111" fill="white"/>
</g>
<g style="mix-blend-mode:plus-lighter" opacity="0.5">
<rect x="101.333" y="63.1482" width="2.22222" height="4.44444" rx="1.11111" fill="white"/>
</g>
<g style="mix-blend-mode:plus-lighter" opacity="0.5">
<rect x="105.778" y="63.1482" width="2.22222" height="4.44444" rx="1.11111" fill="white"/>
</g>
<g style="mix-blend-mode:plus-lighter" opacity="0.5">
<rect x="110.222" y="63.1482" width="2.22222" height="4.44444" rx="1.11111" fill="white"/>
</g>
<g style="mix-blend-mode:plus-lighter" opacity="0.5">
<rect x="114.667" y="63.1482" width="2.22222" height="4.44444" rx="1.11111" fill="white"/>
</g>
<g style="mix-blend-mode:plus-lighter" opacity="0.5">
<rect x="119.111" y="63.1482" width="2.22222" height="4.44444" rx="1.11111" fill="white"/>
</g>
<g style="mix-blend-mode:plus-lighter" opacity="0.5">
<rect x="123.556" y="63.1482" width="2.22222" height="4.44444" rx="1.11111" fill="white"/>
</g>
<g style="mix-blend-mode:plus-lighter" opacity="0.5">
<rect x="128" y="59.074" width="2.22222" height="12.5926" rx="1.11111" fill="white"/>
</g>
<g style="mix-blend-mode:plus-lighter" opacity="0.5">
<rect x="132.444" y="56.8518" width="2.22222" height="17.037" rx="1.11111" fill="white"/>
</g>
<g style="mix-blend-mode:plus-lighter" opacity="0.5">
<rect x="136.889" y="60.5554" width="2.22222" height="9.62963" rx="1.11111" fill="white"/>
</g>
<g style="mix-blend-mode:plus-lighter" opacity="0.5">
<rect x="141.333" y="63.1482" width="2.22222" height="4.44444" rx="1.11111" fill="white"/>
</g>
<g style="mix-blend-mode:plus-lighter" opacity="0.5">
<rect x="145.778" y="63.1482" width="2.22222" height="4.44444" rx="1.11111" fill="white"/>
</g>
<g style="mix-blend-mode:plus-lighter" opacity="0.5">
<rect x="150.222" y="63.1482" width="2.22222" height="4.44444" rx="1.11111" fill="white"/>
</g>
<g style="mix-blend-mode:plus-lighter" opacity="0.5">
<rect x="154.667" y="63.1482" width="2.22222" height="4.44444" rx="1.11111" fill="white"/>
</g>
<g style="mix-blend-mode:plus-lighter" opacity="0.5">
<rect x="159.111" y="63.1482" width="2.22222" height="4.44444" rx="1.11111" fill="white"/>
</g>
<g style="mix-blend-mode:plus-lighter" opacity="0.5">
<rect x="163.556" y="63.1482" width="2.22222" height="4.44444" rx="1.11111" fill="white"/>
</g>
<g style="mix-blend-mode:plus-lighter" opacity="0.5">
<rect x="168" y="63.1482" width="2.22222" height="4.44444" rx="1.11111" fill="white"/>
</g>
<g style="mix-blend-mode:plus-lighter" opacity="0.5">
<rect x="172.444" y="63.1482" width="2.22222" height="4.44444" rx="1.11111" fill="white"/>
</g>
<g style="mix-blend-mode:plus-lighter" opacity="0.5">
<rect x="176.889" y="63.1482" width="2.22222" height="4.44444" rx="1.11111" fill="white"/>
</g>
<g style="mix-blend-mode:plus-lighter" opacity="0.5">
<rect x="181.333" y="61.2964" width="2.22222" height="8.14815" rx="1.11111" fill="white"/>
</g>
<g style="mix-blend-mode:plus-lighter" opacity="0.5">
<rect x="185.778" y="63.1482" width="2.22222" height="4.44444" rx="1.11111" fill="white"/>
</g>
<g style="mix-blend-mode:plus-lighter" opacity="0.5">
<rect x="190.222" y="59.4441" width="2.22222" height="11.8519" rx="1.11111" fill="white"/>
</g>
<g style="mix-blend-mode:plus-lighter" opacity="0.5">
<rect x="194.667" y="63.1482" width="2.22222" height="4.44444" rx="1.11111" fill="white"/>
</g>
<g style="mix-blend-mode:plus-lighter" opacity="0.5">
<rect x="199.111" y="60.5554" width="2.22222" height="9.62963" rx="1.11111" fill="white"/>
</g>
<g style="mix-blend-mode:plus-lighter" opacity="0.5">
<rect x="203.556" y="63.1482" width="2.22222" height="4.44444" rx="1.11111" fill="white"/>
</g>
<g style="mix-blend-mode:plus-lighter" opacity="0.5">
<rect x="208" y="62.4075" width="2.22222" height="5.92593" rx="1.11111" fill="white"/>
</g>
<g style="mix-blend-mode:plus-lighter" opacity="0.5">
<rect x="212.444" y="62.0369" width="2.22222" height="6.66667" rx="1.11111" fill="white"/>
</g>
<g style="mix-blend-mode:plus-lighter" opacity="0.5">
<rect x="216.889" y="63.1482" width="2.22222" height="4.44444" rx="1.11111" fill="white"/>
</g>
<g style="mix-blend-mode:plus-lighter" opacity="0.5">
<rect x="221.334" y="63.1482" width="2.22222" height="4.44444" rx="1.11111" fill="white"/>
</g>
<g style="mix-blend-mode:plus-lighter" opacity="0.5">
<rect x="225.777" y="63.1482" width="2.22222" height="4.44444" rx="1.11111" fill="white"/>
</g>
<g style="mix-blend-mode:plus-lighter" opacity="0.5">
<rect x="230.223" y="63.1482" width="2.22222" height="4.44444" rx="1.11111" fill="white"/>
</g>
<g style="mix-blend-mode:plus-lighter" opacity="0.5">
<rect x="234.666" y="63.1482" width="2.22222" height="4.44444" rx="1.11111" fill="white"/>
</g>
<g style="mix-blend-mode:plus-lighter" opacity="0.5">
<rect x="239.111" y="63.1482" width="2.22222" height="4.44444" rx="1.11111" fill="white"/>
</g>
<g style="mix-blend-mode:plus-lighter" opacity="0.5">
<rect x="243.556" y="63.1482" width="2.22222" height="4.44444" rx="1.11111" fill="white"/>
</g>
</g>
</g>
</g>
<defs>
<filter id="filter0_d_91_5312" x="-1.6" y="35.4" width="255.2" height="59.9407" filterUnits="userSpaceOnUse" color-interpolation-filters="sRGB">
<feFlood flood-opacity="0" result="BackgroundImageFix"/>
<feColorMatrix in="SourceAlpha" type="matrix" values="0 0 0 0 0 0 0 0 0 0 0 0 0 0 0 0 0 0 127 0" result="hardAlpha"/>
<feOffset dy="1.48148"/>
<feGaussianBlur stdDeviation="1.48148"/>
<feComposite in2="hardAlpha" operator="out"/>
<feColorMatrix type="matrix" values="0 0 0 0 0 0 0 0 0 0 0 0 0 0 0 0 0 0 0.25 0"/>
<feBlend mode="normal" in2="BackgroundImageFix" result="effect1_dropShadow_91_5312"/>
<feBlend mode="normal" in="SourceGraphic" in2="effect1_dropShadow_91_5312" result="shape"/>
</filter>
<clipPath id="clip0_91_5312">
<rect width="20" height="20" fill="white" transform="translate(212 13.4998)"/>
</clipPath>
<clipPath id="clip1_91_5312">
<rect x="8" y="45" width="236" height="40.7407" rx="10" fill="white"/>
</clipPath>
</defs>
</svg>
