<svg width="35" height="35" viewBox="0 0 35 35" fill="none" xmlns="http://www.w3.org/2000/svg">
<g style="mix-blend-mode:plus-lighter">
<path d="M29.749 0C31.1414 3.31302e-06 32.4764 0.553523 33.4609 1.53809C34.4455 2.52265 34.999 3.85762 34.999 5.25V17.5C34.999 27.1652 27.1643 35 17.499 35C8.12778 35 0.478145 27.6334 0.0205078 18.375H7.67578C9.42741 18.375 11.2425 18.4818 12.7334 19.4004C13.8019 20.0581 14.7165 20.9382 15.415 21.9805C16.1136 23.0228 16.58 24.2031 16.7822 25.4414L16.8369 25.7764C16.8841 25.9145 16.973 26.0352 17.0918 26.1201C17.2105 26.205 17.3531 26.25 17.499 26.25C17.645 26.25 17.7875 26.205 17.9062 26.1201C18.025 26.0352 18.1139 25.9145 18.1611 25.7764L18.2158 25.4414C18.5114 23.6321 19.3677 21.9614 20.6641 20.665C21.9604 19.3687 23.6311 18.5124 25.4404 18.2168L25.7754 18.1621C25.9134 18.1149 26.0333 18.0259 26.1182 17.9072C26.2031 17.7885 26.249 17.646 26.249 17.5C26.249 17.354 26.2031 17.2115 26.1182 17.0928C26.0333 16.9741 25.9134 16.8851 25.7754 16.8379L25.4404 16.7832C24.2021 16.581 23.0218 16.1146 21.9795 15.416C20.9372 14.7175 20.0571 13.8029 19.3994 12.7344C18.4809 11.2436 18.374 9.42921 18.374 7.67773V0H29.749Z" fill="url(#paint0_linear_91_5718)"/>
<path d="M16.625 0V7.67773C16.625 9.42921 16.5181 11.2436 15.5996 12.7344C14.8815 13.8999 13.8999 14.8815 12.7344 15.5996C11.2436 16.5181 9.42921 16.625 7.67773 16.625H0V5.25C2.84136e-07 3.85761 0.55352 2.52265 1.53809 1.53809C2.52265 0.55352 3.85761 2.84134e-07 5.25 0H16.625Z" fill="url(#paint1_linear_91_5718)"/>
</g>
<defs>
<linearGradient id="paint0_linear_91_5718" x1="0" y1="0" x2="38.6433" y2="4.63831" gradientUnits="userSpaceOnUse">
<stop stop-color="#F0A9D3"/>
<stop offset="0.504808" stop-color="#F9DEE3"/>
<stop offset="1" stop-color="#9691F2"/>
</linearGradient>
<linearGradient id="paint1_linear_91_5718" x1="0" y1="0" x2="38.6433" y2="4.63831" gradientUnits="userSpaceOnUse">
<stop stop-color="#F0A9D3"/>
<stop offset="0.504808" stop-color="#F9DEE3"/>
<stop offset="1" stop-color="#9691F2"/>
</linearGradient>
</defs>
</svg>
