<svg width="72" height="16" viewBox="0 0 72 16" fill="none" xmlns="http://www.w3.org/2000/svg">
<path d="M70.9501 6.98038C70.9501 2.96028 68.1494 0.132812 64.2231 0.132812C59.2248 0.132812 55.8747 3.7643 55.8747 8.95023C55.8747 12.9971 58.7022 15.7978 62.6955 15.7978C66.327 15.7978 69.0339 14.0424 70.1461 11.2417H66.1126C65.5766 12.1127 64.4376 12.6621 63.0439 12.6621C60.8999 12.6621 59.5598 11.2417 59.4392 9.23164H70.7223C70.8697 8.46782 70.9501 7.8112 70.9501 6.98038ZM59.7474 6.51137C60.1092 4.66213 61.9049 3.18809 64.0757 3.18809C65.9518 3.18809 67.3722 4.55492 67.3722 6.51137H59.7474ZM45.0339 15.436L45.7575 11.5767C47.9685 12.0189 48.3035 10.7727 48.8798 7.771L49.1612 6.28357C49.9652 2.08926 51.5866 -0.00119084 56.2231 0.561623L55.4995 4.42092C53.2885 3.97871 52.8999 5.65375 52.4041 8.25342L52.1226 9.74085C51.3186 13.9888 49.6436 15.9988 45.0339 15.436ZM39.6201 15.4494L42.3538 0.494621H45.9585L43.2382 15.4494H39.6201ZM18.9702 0.494621H22.4677L23.6067 11.3087L28.1896 0.494621H31.6603L32.8798 11.4159L37.3019 0.494621H40.786L34.4476 15.4494H30.4811L29.1947 5.15794L24.8128 15.4494H20.9803L18.9702 0.494621Z" fill="#C9D3E8"/>
<path d="M5.90362 4.45869L1.74951 8.42518H8.81149L9.54851 6.69654H5.97062L8.20847 4.45869L6.90864 2.22083H12.979L7.37765 15.447H9.48151L15.8199 0.492188H3.57196L5.90362 4.45869Z" fill="#C9D3E8"/>
</svg>
